<svg xmlns="http://www.w3.org/2000/svg" viewBox="0 0 671.7 629.3"><defs><style>.cls-1{fill:#333;}.cls-2{fill:#d74b94;}.cls-3{fill:#fff;}</style></defs><title>2Recurso 18</title><g id="Capa_2" data-name="Capa 2"><g id="Capa_1-2" data-name="Capa 1"><path class="cls-1" d="M662.62,258.93c-5.88-8.27-12.87-15.45-20.27-23.05-2.93-3-6-6.13-9-9.36-15.77-17-35.57-30.94-49.39-39.66a233.3,233.3,0,0,0-75.22-30.43,209.3,209.3,0,0,0-25.36-3.72A98.13,98.13,0,0,0,491,121.58c2-26-5.7-52.62-21.8-74.84C448,17.47,415.14,0,381.39,0a89.8,89.8,0,0,0-85.74,60.63c-25-17.05-54.39-26.4-83.33-26.4-40.23,0-76,17.47-98,47.93-19.84,27.4-26.36,63.09-17.9,97.91a138.15,138.15,0,0,0,10.21,28.12c-48.24,7.25-87.65,38.39-101.44,82C-5,322.46,0,358.38,19.05,388.75c15.63,25,39.33,44.67,67.64,56.49-13.87,18.82-20.85,41.43-19.44,64.14,1.69,27.61,15.08,52.85,37.72,71,20.76,16.7,47.62,25.89,75.63,25.9h0c2.6,0,5.25-.09,7.91-.25C218,604.25,245.38,592.5,265.63,573a105.32,105.32,0,0,0,18.59-23.85,276,276,0,0,0,21.13,20.37c28,24.84,55.8,36.53,67.66,41.52l1.52.65c30.5,12.93,57.32,15,70.21,16,1.26.1,2.4.18,3.41.28,9.65.87,21.51,1.35,33.39,1.35,9.82,0,19.41-.32,28.48-.95l.78-.05c14.9-1,16.53-1.23,29.2-3.62a45.94,45.94,0,0,0,28.85-71.89l-34-47.51a48.22,48.22,0,0,0-4.11-5l-3.26-14.67c-1.68-8-2.44-40.09,5.81-64.68,9.39-28,27.86-51.19,33.63-55.7L582.56,353a48.9,48.9,0,0,0,10-2.91c6.34-2.62,12.17-4.85,19.55-7.67l.86-.33c.92-.32,2.49-.83,4.2-1.4,3.7-1.22,6.44-2.13,8.56-2.89l11.38-3.43a49.15,49.15,0,0,0,25.53-75.44Z"/><path class="cls-2" d="M257.06,497.73c-2.15-35.27-37.48-61.79-78.87-59.24s-73.2,33.21-71,68.45,37.48,61.74,78.87,59.22S259.24,532.94,257.06,497.73Z"/><path class="cls-2" d="M231.21,361.63c14-44.19-16.79-93.31-68.67-109.7S57.26,258.08,43.3,302.26,60.09,395.56,112,412,217.26,405.8,231.21,361.63Z"/><path class="cls-2" d="M306.27,221.26c27.18-37.53,13.49-93.86-30.57-125.78s-101.85-27.36-129,10.15-13.49,93.85,30.58,125.76S279.1,258.76,306.27,221.26Z"/><path class="cls-2" d="M351.3,49.51c-25.51,18.55-28.59,57.84-6.85,87.81s60.08,39.23,85.57,20.74,28.59-57.83,6.86-87.81S376.79,31,351.3,49.51Z"/><path class="cls-3" d="M536.33,576.07a6,6,0,0,1-3.74,9.3c-11.32,2.14-11.13,2.1-25.32,3.08a379.9,379.9,0,0,1-55.52-.34c-10.67-1-34.13-1.61-61.6-13.26-10.09-4.28-34-13.73-58.28-35.28-11.33-10-28.79-25.79-42.88-52.23-15.17-28.49-18.15-53.82-19.49-66.28-4.41-41,5.35-72.44,10.14-87.32,12.6-39.14,32.37-64.11,36.64-69.39,8.33-10.3,26.05-31.74,56.92-48.34,9.47-5.09,47.23-26.42,96.1-24.15a190.21,190.21,0,0,1,31.19,3.7,192.83,192.83,0,0,1,62.17,25.13c11.44,7.22,28.66,19.32,41.43,33.06C614.45,264.9,624,273.64,630,282.11a9.16,9.16,0,0,1-4.75,14.05l-12,3.62-.46.16c-3,1.13-12,4-13.82,4.69-8,3.06-14.49,5.53-21.64,8.47a9.17,9.17,0,0,1-10.42-2.48c-.94-1.09-2-2.28-3.29-3.51-6.8-6.75-15-13.73-19.45-17.52-8.15-7-28.82-22.43-50.09-27.58-10-2.41-36.47-8.47-67.84,1.56a127.19,127.19,0,0,0-46,27.29c-31.07,28.56-39,63.9-41.32,74.85-3,14.09-11.71,55.7,12.48,96.68,28.76,48.73,81.5,58.27,91.22,60,10.26,1.86,14.38,4,51,2a10.07,10.07,0,0,1,8.71,4.18Z"/><path class="cls-2" d="M542.27,333.73c-2.09-3-31.94-44.27-81.27-41.94-33.72,1.59-55.39,22.55-61.06,28.45-25.05,26.05-26,58-26.37,70-.34,11.36-1.31,43.74,21.35,70.93,33.5,40.18,89.14,33.65,93.51,33.07-2.85-12.84-4.19-52.87,6.94-86C506.67,374.52,528.85,344.22,542.27,333.73Z"/></g></g></svg>