<svg xmlns="http://www.w3.org/2000/svg" viewBox="0 0 1371.64 711.9"><defs><style>.cls-1{fill:#333;}.cls-2,.cls-4{fill:#dd579a;}.cls-3{fill:#fff;}.cls-4{font-size:88.68px;font-family:SFComicScriptExtended, SF Comic Script Extended;letter-spacing:0em;}</style></defs><title>Recurso 16</title><g id="Capa_2" data-name="Capa 2"><g id="Capa_1-2" data-name="Capa 1"><path class="cls-1" d="M1371.64,212.6a48.75,48.75,0,0,0-48.7-48.69H1288a48.75,48.75,0,0,0-48.7,48.69v34.94a48.34,48.34,0,0,0,5.09,21.63,45.65,45.65,0,0,0-3.85,10.36,137.86,137.86,0,0,0-21.66-14.17,142.51,142.51,0,0,0-35.44-12.75,162.45,162.45,0,0,0-35.77-4,159.23,159.23,0,0,0-31.82,3.15,140.66,140.66,0,0,0-14.5,3.83,45.29,45.29,0,0,0-24.29-7h-30.79c0-.37,0-.73,0-1.1V212.6a48.74,48.74,0,0,0-48.7-48.69H962.67A48.74,48.74,0,0,0,914,212.6v34.94a48.34,48.34,0,0,0,5.09,21.63,45.09,45.09,0,0,0-4,11,138.14,138.14,0,0,0-22.42-14.78,142.51,142.51,0,0,0-35.44-12.75,162.45,162.45,0,0,0-35.77-4,159.23,159.23,0,0,0-31.82,3.15,140.66,140.66,0,0,0-14.5,3.83,45.29,45.29,0,0,0-24.29-7H710.41a45.65,45.65,0,0,0-44.58,35.91,168.11,168.11,0,0,0-71.19-32.94c-2.72-.54-5.62-1.09-8.73-1.58a48,48,0,0,0-8.81-26.19c-5.28-7.44-11.41-13.73-17.89-20.4-2.49-2.55-5.06-5.19-7.57-7.9-13.92-15-31.28-27.23-43.39-34.87A205.14,205.14,0,0,0,442,133.89c-4.86-1-9.72-1.85-14.82-2.48a90.38,90.38,0,0,0,4.23-21.2c1.85-23.65-5.15-47.74-19.73-67.86C392.45,15.83,362.62,0,331.91,0a82.42,82.42,0,0,0-76.07,49c-20.94-12.75-44.88-19.7-68.5-19.7-36.28,0-68.54,15.82-88.52,43.39-18,24.81-23.88,57.06-16.24,88.49a122.94,122.94,0,0,0,6,18.31c-40,8.47-72.18,35.59-83.92,72.75C-4.55,281.4,0,313.87,17.17,341.28A129.49,129.49,0,0,0,71.24,389,89,89,0,0,0,57.51,441.7C59.06,467,71.28,490,91.92,506.62c18.78,15.1,43,23.42,68.3,23.42h0c2.34,0,4.72-.07,7.12-.22,26.58-1.65,51.3-12.27,69.61-29.9a97.27,97.27,0,0,0,12.83-15.18c5.12,5.16,9.71,9.23,13.26,12.37,24.68,21.86,49,32.12,59.44,36.5l1.3.55c26.94,11.43,50.51,13.24,61.84,14.12l2.84.22c8.42.77,18.74,1.19,29.07,1.19,8.53,0,16.87-.28,24.76-.83l.66,0c12.93-.89,14.61-1.1,25.65-3.19a44.91,44.91,0,0,0,22.86-11.75l1.27.61c26.88,12.34,50.33,14,71.66,14h1.08c19.74,0,35-2.65,47.49-6.35a45.74,45.74,0,0,0,20.69,5h40.63a45.52,45.52,0,0,0,15.78-2.8,45.33,45.33,0,0,0,20.38,4.83H924.07c.87,0,1.73,0,2.58-.08V592.7a21.46,21.46,0,0,0,21.47,21.46h373.41A21.46,21.46,0,0,0,1343,592.7V544.78a45.71,45.71,0,0,0,28.64-42.34V290.07a45.39,45.39,0,0,0-5.09-20.9,48.34,48.34,0,0,0,5.09-21.63Z"/><path class="cls-2" d="M225.6,431.39c-1.84-30.16-32-52.84-67.44-50.66s-62.59,28.4-60.72,58.53,32.05,52.79,67.43,50.64S227.47,461.5,225.6,431.39Z"/><path class="cls-2" d="M203.5,315c11.94-37.78-14.36-79.79-58.72-93.8s-90,5.26-102,43,14.36,79.78,58.74,93.8S191.57,352.78,203.5,315Z"/><path class="cls-2" d="M267.68,195c23.24-32.09,11.53-80.26-26.14-107.55s-87.09-23.39-110.32,8.67-11.53,80.26,26.15,107.54S244.45,227.05,267.68,195Z"/><path class="cls-2" d="M306.18,48.14c-21.81,15.85-24.44,49.45-5.85,75.08s51.37,33.54,73.17,17.72,24.44-49.44,5.86-75.08S328,32.33,306.18,48.14Z"/><path class="cls-3" d="M464.39,498.38a5.08,5.08,0,0,1-3.19,7.95c-9.68,1.82-9.52,1.79-21.65,2.63a324.6,324.6,0,0,1-47.48-.29c-9.12-.83-29.18-1.37-52.66-11.34-8.63-3.66-29-11.74-49.84-30.16-9.69-8.59-24.62-22.06-36.66-44.67-13-24.36-15.52-46-16.67-56.67-3.78-35.06,4.57-61.94,8.67-74.66,10.77-33.47,27.68-54.82,31.33-59.34,7.12-8.8,22.27-27.14,48.67-41.33,8.1-4.36,40.38-22.59,82.17-20.65A161.12,161.12,0,0,1,433.75,173a164.62,164.62,0,0,1,53.16,21.48c9.78,6.17,24.5,16.52,35.42,28.27,8.86,9.53,17,17,22.17,24.25a7.82,7.82,0,0,1-4.06,12l-10.3,3.1-.39.14c-2.57,1-10.25,3.4-11.82,4-6.86,2.62-12.39,4.73-18.5,7.25a7.83,7.83,0,0,1-8.91-2.13c-.81-.92-1.75-1.94-2.81-3-5.82-5.76-12.86-11.73-16.64-15-7-6-24.64-19.18-42.83-23.59-8.53-2.06-31.18-7.24-58,1.34a108.61,108.61,0,0,0-39.33,23.33c-26.58,24.42-33.37,54.64-35.34,64-2.53,12.05-10,47.63,10.67,82.67,24.59,41.67,69.69,49.83,78,51.33,8.78,1.59,12.3,3.39,43.63,1.69a8.58,8.58,0,0,1,7.45,3.57Z"/><text class="cls-4" transform="translate(935.43 593.01)">MascotS</text><path class="cls-3" d="M680,386.5c-.51,21-.68,55.61-.06,115a5.63,5.63,0,0,1-5.62,5.7H633.66a5.62,5.62,0,0,1-5.62-5.69h0a5.63,5.63,0,0,0-8.17-5.08c-12.14,6.13-27.4,12.06-54.48,12.13-18.07,0-35.51-1-56-10.4-6.63-3-26.55-15.7-41.28-40.63-5.51-9.33-20.72-35.94-16.67-72a109.57,109.57,0,0,1,72.67-91.33c28.08-9.92,51.92-5.48,62.67-3.34a127,127,0,0,1,55.33,26c8.91,7.36,28.51,24.63,35.83,53A94.34,94.34,0,0,1,680,386.5Zm-51.83-1.22a2,2,0,0,0-.17-.84c-3.05-7-12.36-25.53-33.5-36.6a65.73,65.73,0,0,0-36-8c-5.27.39-24.5,2.13-39.66,18a58.38,58.38,0,0,0-14.67,27.66c-4.46,20.49,3.76,36.8,7,43a70,70,0,0,0,23.67,26,61.77,61.77,0,0,0,25.33,10c15.4,2.29,27.4-2.17,33-4.33,11.09-4.27,18.82-10.53,24.5-15.12a117.82,117.82,0,0,0,9.91-9,2.08,2.08,0,0,0,.59-1.46Z"/><path class="cls-3" d="M756.4,299.08a5.62,5.62,0,0,0,8.51,4.89,105.68,105.68,0,0,1,32.88-13,119.21,119.21,0,0,1,23.66-2.3,121.11,121.11,0,0,1,26.84,3,102.71,102.71,0,0,1,25.83,9.21,101.2,101.2,0,0,1,28.33,22.38,104.4,104.4,0,0,1,19.84,33.55,114.89,114.89,0,0,1,7.41,37.84v109a5.63,5.63,0,0,1-5.63,5.63H883.45a5.63,5.63,0,0,1-5.62-5.63V395a66.16,66.16,0,0,0-1.38-12.05c-1.21-5.81-3.27-15.17-10.66-24.35a48.74,48.74,0,0,0-17-13.49c2.32,1.06-.46-1.88-15.34-3.94-7.05-1-17.53-2.43-29.66,1-13.49,3.8-21.8,11.59-27.34,16.78a84.46,84.46,0,0,0-20.34,29.76,5.38,5.38,0,0,0-.41,2.1V503.57a5.63,5.63,0,0,1-5.63,5.63H710.45a5.63,5.63,0,0,1-5.62-5.63l0-209.3a5.63,5.63,0,0,1,5.62-5.63h40.42a5.62,5.62,0,0,1,5.62,5.69Z"/><path class="cls-3" d="M1082.63,299.08a5.62,5.62,0,0,0,8.51,4.89,105.72,105.72,0,0,1,32.87-13,119.46,119.46,0,0,1,23.67-2.3,120.91,120.91,0,0,1,26.83,3,102.61,102.61,0,0,1,25.84,9.21,101.2,101.2,0,0,1,28.33,22.38,104.13,104.13,0,0,1,19.83,33.55,114.68,114.68,0,0,1,7.42,37.84v109a5.63,5.63,0,0,1-5.63,5.63h-40.62a5.63,5.63,0,0,1-5.62-5.63V395a66.16,66.16,0,0,0-1.38-12.05c-1.21-5.81-3.27-15.17-10.67-24.35a48.56,48.56,0,0,0-17-13.49c-5.63-2.56-10.27-3.24-15.33-3.94-7-1-17.53-2.43-29.67,1-13.48,3.8-21.79,11.59-27.33,16.78a84.33,84.33,0,0,0-20.34,29.76,5.38,5.38,0,0,0-.41,2.1V503.57a5.63,5.63,0,0,1-5.63,5.63h-39.62a5.63,5.63,0,0,1-5.62-5.63l0-209.3a5.63,5.63,0,0,1,5.62-5.63h40.42a5.62,5.62,0,0,1,5.62,5.69Z"/><rect class="cls-3" x="953.97" y="284.44" width="52.33" height="224.76" rx="5.63"/><rect class="cls-3" x="1279.3" y="284.44" width="52.33" height="223.63" rx="5.63"/><rect class="cls-3" x="953.97" y="203.91" width="52.33" height="52.33" rx="8.7"/><rect class="cls-3" x="1279.3" y="203.91" width="52.33" height="52.33" rx="8.7"/><path class="cls-2" d="M469.48,291.16c-1.79-2.57-27.32-37.85-69.49-35.86-28.84,1.36-47.37,19.28-52.22,24.32-21.42,22.28-22.24,49.58-22.55,59.89-.29,9.71-1.12,37.4,18.26,60.64,28.65,34.36,76.22,28.78,80,28.28-2.44-11-3.59-45.2,5.93-73.58C439,326,458,300.13,469.48,291.16Z"/></g></g></svg>