<?xml version="1.0" encoding="UTF-8" standalone="no"?>
<svg
   xmlns:dc="http://purl.org/dc/elements/1.1/"
   xmlns:cc="http://creativecommons.org/ns#"
   xmlns:rdf="http://www.w3.org/1999/02/22-rdf-syntax-ns#"
   xmlns:svg="http://www.w3.org/2000/svg"
   xmlns="http://www.w3.org/2000/svg"
   xmlns:sodipodi="http://sodipodi.sourceforge.net/DTD/sodipodi-0.dtd"
   xmlns:inkscape="http://www.inkscape.org/namespaces/inkscape"
   viewBox="0 0 1309.46 616.77"
   version="1.1"
   id="svg54"
   sodipodi:docname="logo.svg"
   inkscape:version="0.92.4 (5da689c313, 2019-01-14)">
  <metadata
     id="metadata58">
    <rdf:RDF>
      <cc:Work
         rdf:about="">
        <dc:format>image/svg+xml</dc:format>
        <dc:type
           rdf:resource="http://purl.org/dc/dcmitype/StillImage" />
        <dc:title>2Recurso 16</dc:title>
      </cc:Work>
    </rdf:RDF>
  </metadata>
  <sodipodi:namedview
     pagecolor="#ffffff"
     bordercolor="#666666"
     borderopacity="1"
     objecttolerance="10"
     gridtolerance="10"
     guidetolerance="10"
     inkscape:pageopacity="0"
     inkscape:pageshadow="2"
     inkscape:window-width="1097"
     inkscape:window-height="480"
     id="namedview56"
     showgrid="false"
     inkscape:zoom="0.25201229"
     inkscape:cx="238.08363"
     inkscape:cy="308.38501"
     inkscape:window-x="273"
     inkscape:window-y="180"
     inkscape:window-maximized="0"
     inkscape:current-layer="svg54" />
  <defs
     id="defs4">
    <style
       id="style2">.cls-1{fill:#333;}.cls-2{fill:#d74b94;}.cls-3{fill:#fff;}.cls-4{fill:#34c3ea;}</style>
  </defs>
  <title
     id="title6">2Recurso 16</title>
  <g
     id="Capa_2"
     data-name="Capa 2">
    <g
       id="Capa_1-2"
       data-name="Capa 1">
      <path
         class="cls-1"
         d="M802.42,616.77H816c51.43-9.45,117.37-15.13,189.27-15.13s137.85,5.68,189.28,15.13h32.64a54.92,54.92,0,0,0,54.92-54.92v-5.43a54.92,54.92,0,0,0-54.92-54.92H802.42c-30.33,0-44.59-12.54-44.59,17.79l-12.44,56.49C745.39,606.11,772.09,616.77,802.42,616.77Z"
         id="path8" />
      <path
         class="cls-1"
         d="M1309.46,203A46.54,46.54,0,0,0,1263,156.48h-33.35A46.54,46.54,0,0,0,1183.13,203v33.35A46.16,46.16,0,0,0,1188,257a43.77,43.77,0,0,0-3.67,9.89,130.61,130.61,0,0,0-20.68-13.52,136.28,136.28,0,0,0-33.83-12.18,155.34,155.34,0,0,0-34.15-3.79,152.55,152.55,0,0,0-30.38,3,135.58,135.58,0,0,0-13.84,3.67,43.21,43.21,0,0,0-23.2-6.67H998.85c0-.35,0-.7,0-1.05V203a46.54,46.54,0,0,0-46.49-46.49H919A46.54,46.54,0,0,0,872.54,203v33.35A46.16,46.16,0,0,0,877.39,257a43.21,43.21,0,0,0-3.8,10.47,131.08,131.08,0,0,0-21.4-14.1,136.17,136.17,0,0,0-33.84-12.18,155.25,155.25,0,0,0-34.14-3.79,152.55,152.55,0,0,0-30.38,3A136.46,136.46,0,0,0,740,244a43.17,43.17,0,0,0-23.19-6.67H678.21a43.57,43.57,0,0,0-42.56,34.28,160.64,160.64,0,0,0-68-31.45c-2.59-.51-5.36-1-8.33-1.51a45.75,45.75,0,0,0-8.41-25c-5-7.1-10.89-13.11-17.08-19.47-2.37-2.44-4.83-5-7.23-7.54-13.28-14.3-29.86-26-41.42-33.29A196,196,0,0,0,422,127.82c-4.64-1-9.28-1.76-14.14-2.37a86,86,0,0,0,4-20.24c1.77-22.58-4.91-45.57-18.83-64.78C374.66,15.12,346.18,0,316.86,0a78.65,78.65,0,0,0-72.61,46.74,126.72,126.72,0,0,0-65.4-18.8c-34.64,0-65.44,15.09-84.51,41.42C77.19,93,71.54,123.83,78.84,153.83a117.94,117.94,0,0,0,5.74,17.48c-38.17,8.09-68.91,34-80.11,69.46-8.81,27.87-4.46,58.87,11.92,85A123.71,123.71,0,0,0,68,371.34,85,85,0,0,0,54.9,421.68c1.48,24.12,13.15,46.13,32.85,62C105.68,498.07,128.84,506,153,506h0c2.23,0,4.51-.06,6.8-.2,25.37-1.58,49-11.72,66.44-28.55a92.5,92.5,0,0,0,12.25-14.49c4.9,4.92,9.28,8.8,12.66,11.8,23.56,20.88,46.82,30.67,56.75,34.85l1.24.52c25.72,10.92,48.23,12.65,59,13.48l2.71.22c8,.73,17.9,1.13,27.75,1.13,8.15,0,16.1-.27,23.64-.79l.63,0c12.35-.85,13.95-1.05,24.49-3a42.91,42.91,0,0,0,21.82-11.22l1.21.58c25.67,11.78,48.05,13.4,68.42,13.4h1c18.84,0,33.45-2.53,45.34-6.06a43.71,43.71,0,0,0,19.75,4.76h38.78a43.58,43.58,0,0,0,15.07-2.66,43.28,43.28,0,0,0,19.46,4.6H882.19c.82,0,1.64,0,2.45-.07v41.6a20.49,20.49,0,0,0,20.5,20.49h356.49a20.49,20.49,0,0,0,20.49-20.49V520.08a43.6,43.6,0,0,0,27.34-40.41V276.92A43.22,43.22,0,0,0,1304.6,257a46,46,0,0,0,4.86-20.65Z"
         id="path10" />
      <path
         class="cls-2"
         d="M215.09,410.91c-1.76-28.79-30.6-50.44-64.38-48.36s-59.75,27.11-58,55.87,30.59,50.4,64.38,48.35S216.87,439.65,215.09,410.91Z"
         id="path12" />
      <path
         class="cls-2"
         d="M194,299.81c11.4-36.07-13.71-76.17-56.05-89.55s-85.95,5-97.35,41.09,13.71,76.16,56.08,89.54S182.6,335.87,194,299.81Z"
         id="path14" />
      <path
         class="cls-2"
         d="M255.26,185.22c22.19-30.63,11-76.61-25-102.67S147.16,60.22,125,90.83s-11,76.62,25,102.66S233.08,215.84,255.26,185.22Z"
         id="path16" />
      <path
         class="cls-2"
         d="M292,45c-20.83,15.13-23.34,47.21-5.59,71.68s49,32,69.85,16.92,23.34-47.2,5.6-71.68S312.83,29.94,292,45Z"
         id="path18" />
      <path
         class="cls-3"
         d="M443.06,474.86a4.86,4.86,0,0,1-3.05,7.59c-9.25,1.75-9.09,1.71-20.67,2.51a308.11,308.11,0,0,1-45.33-.28c-8.7-.78-27.85-1.3-50.27-10.82-8.24-3.49-27.73-11.21-47.58-28.79-9.25-8.2-23.5-21.06-35-42.65-12.39-23.25-14.82-43.93-15.91-54.09-3.61-33.48,4.36-59.14,8.27-71.29,10.28-31.94,26.42-52.33,29.91-56.64,6.8-8.4,21.27-25.91,46.46-39.46,7.74-4.16,38.56-21.57,78.45-19.71a153.71,153.71,0,0,1,25.46,3,157.25,157.25,0,0,1,50.75,20.51c9.34,5.89,23.4,15.77,33.82,27,8.46,9.11,16.25,16.24,21.17,23.16a7.46,7.46,0,0,1-3.88,11.46l-9.84,3-.37.12c-2.45.93-9.78,3.25-11.28,3.83-6.55,2.5-11.83,4.51-17.67,6.92a7.49,7.49,0,0,1-8.5-2c-.77-.89-1.67-1.86-2.69-2.87-5.55-5.5-12.27-11.2-15.88-14.3-6.65-5.7-23.52-18.3-40.89-22.51-8.14-2-29.77-6.91-55.37,1.27A103.91,103.91,0,0,0,315.62,242c-25.37,23.31-31.85,52.16-33.73,61.1-2.42,11.5-9.56,45.46,10.18,78.92,23.48,39.78,66.53,47.57,74.47,49,8.38,1.52,11.74,3.24,41.65,1.61a8.21,8.21,0,0,1,7.11,3.41Z"
         id="path20" />
      <path
         class="cls-3"
         d="M648.87,368.06c-.49,20-.65,53.08-.06,109.76a5.38,5.38,0,0,1-5.37,5.43H604.66a5.38,5.38,0,0,1-5.38-5.43h0a5.36,5.36,0,0,0-7.79-4.85c-11.59,5.85-26.16,11.52-52,11.58-17.24,0-33.89-1-53.42-9.92-6.34-2.91-25.35-15-39.41-38.79-5.27-8.91-19.79-34.31-15.92-68.74a104.59,104.59,0,0,1,69.38-87.19c26.81-9.47,49.56-5.23,59.82-3.18a121.11,121.11,0,0,1,52.83,24.82c8.5,7,27.22,23.51,34.21,50.59A91.06,91.06,0,0,1,648.87,368.06Zm-49.49-1.17a2,2,0,0,0-.16-.8c-2.91-6.67-11.8-24.37-32-34.94a62.75,62.75,0,0,0-34.37-7.64c-5,.37-23.39,2-37.86,17.18a55.73,55.73,0,0,0-14,26.42c-4.26,19.55,3.59,35.12,6.69,41.05A66.86,66.86,0,0,0,510.28,433a59.19,59.19,0,0,0,24.19,9.54c14.69,2.18,26.15-2.07,31.5-4.13,10.59-4.08,18-10.06,23.39-14.44a111.1,111.1,0,0,0,9.46-8.61,2,2,0,0,0,.56-1.39Z"
         id="path22" />
      <path
         class="cls-3"
         d="M721.83,284.59a5.37,5.37,0,0,0,8.12,4.68,100.56,100.56,0,0,1,31.39-12.44,113.79,113.79,0,0,1,22.59-2.2,115.27,115.27,0,0,1,25.62,2.83,97.76,97.76,0,0,1,24.66,8.79,96.64,96.64,0,0,1,27,21.36,99.48,99.48,0,0,1,18.93,32,109.57,109.57,0,0,1,7.08,36.12V479.82a5.36,5.36,0,0,1-5.37,5.37H843.12a5.37,5.37,0,0,1-5.37-5.37V376.12a62.77,62.77,0,0,0-1.31-11.5c-1.16-5.55-3.13-14.48-10.19-23.24A46.13,46.13,0,0,0,810,328.5c2.21,1-.44-1.8-14.64-3.77-6.73-.93-16.74-2.32-28.32.94-12.88,3.63-20.81,11.06-26.1,16a80.68,80.68,0,0,0-19.42,28.4,5.33,5.33,0,0,0-.39,2V479.82a5.36,5.36,0,0,1-5.37,5.37H678a5.37,5.37,0,0,1-5.37-5.37l0-199.82a5.38,5.38,0,0,1,5.38-5.37h38.58a5.37,5.37,0,0,1,5.37,5.43Z"
         id="path24" />
      <path
         class="cls-3"
         d="M1033.27,284.59a5.37,5.37,0,0,0,8.12,4.68,100.56,100.56,0,0,1,31.39-12.44,113.79,113.79,0,0,1,22.59-2.2,115.27,115.27,0,0,1,25.62,2.83,97.76,97.76,0,0,1,24.66,8.79,96.64,96.64,0,0,1,27,21.36,99.75,99.75,0,0,1,18.94,32,110.09,110.09,0,0,1,7.08,36.12V479.82a5.37,5.37,0,0,1-5.38,5.37h-38.78a5.37,5.37,0,0,1-5.37-5.37V376.12a62.77,62.77,0,0,0-1.31-11.5c-1.16-5.55-3.13-14.48-10.18-23.24a46.22,46.22,0,0,0-16.23-12.88c-5.38-2.45-9.82-3.1-14.64-3.77-6.73-.93-16.74-2.32-28.32.94-12.88,3.63-20.81,11.06-26.1,16a80.81,80.81,0,0,0-19.42,28.4,5.33,5.33,0,0,0-.39,2V479.82a5.36,5.36,0,0,1-5.37,5.37H989.41a5.37,5.37,0,0,1-5.38-5.37L984,280a5.37,5.37,0,0,1,5.37-5.37H1028a5.37,5.37,0,0,1,5.37,5.43Z"
         id="path26" />
      <rect
         class="cls-3"
         x="910.44"
         y="270.62"
         width="49.96"
         height="214.57"
         rx="4.54"
         id="rect28" />
      <rect
         class="cls-3"
         x="1221.03"
         y="270.62"
         width="49.96"
         height="213.49"
         rx="4.54"
         id="rect30" />
      <rect
         class="cls-3"
         x="910.44"
         y="193.74"
         width="49.96"
         height="49.96"
         rx="4.54"
         id="rect32" />
      <rect
         class="cls-3"
         x="1221.03"
         y="193.74"
         width="49.96"
         height="49.96"
         rx="4.54"
         id="rect34" />
      <path
         class="cls-2"
         d="M447.91,277c-1.71-2.44-26.07-36.13-66.34-34.23-27.52,1.3-45.22,18.41-49.85,23.22-20.45,21.27-21.23,47.33-21.52,57.17-.28,9.27-1.08,35.71,17.43,57.9,27.34,32.8,72.76,27.47,76.33,27-2.33-10.47-3.42-43.15,5.66-70.24C418.85,310.33,437,285.6,447.91,277Z"
         id="path36" />
      <path
         class="cls-4"
         d="M887.8,509a46.48,46.48,0,0,0-6.74,10.38c-.4,1.13-1.17,3.67-2.31,7.64s-4,13.89-8.56,29.76q-5.38,18.38-8.43,29.89l-21.79,2c.43-1.74,1-3.75,1.57-6q4-15,9-30.17L820.29,586l-16-30.55q-1.35,4.35-2.66,9Q796.7,583,795,592.5l-21.63,2q4.35-20.12,9.84-40.44,3.65-13.54,7.72-27.18L787.52,521l22.06-11.2,18.1,42.78,38.7-47.72Z"
         id="path38" />
      <path
         class="cls-4"
         d="M937.37,573.31l-17.44,1.47.21-8.91a65.51,65.51,0,0,0-14.89-.17c-1.09.08-2.35.2-3.8.38l-4.62,10.77-17.23,1.46q12.12-26,35.76-68.26l22.83-.77Q935.15,537.12,937.37,573.31Zm-16.68-19.4c0-4.68,0-9.4-.11-14.19a105.32,105.32,0,0,1,1.14-14.35q-5.33,9.63-15,29c1.23-.18,2.34-.31,3.32-.38A63.86,63.86,0,0,1,920.69,553.91Z"
         id="path40" />
      <path
         class="cls-4"
         d="M1004.07,509l-4.89,14.41-13.37,1.35a5.78,5.78,0,0,0-2.88,1.53,5.94,5.94,0,0,0-1.85,2.5q-.27,1,2.66,8c2.18,5.44,3.35,8.53,3.54,9.3a18.82,18.82,0,0,1,.48,10.21,18.31,18.31,0,0,1-2.22,5.66q-4.57,7.11-17.83,11.68a96.66,96.66,0,0,1-21.42,4.46l2-15.44a71,71,0,0,0,14.29-2.93c2.94-1,4.66-2.5,5.17-4.46.36-1.41-.13-4.08-1.47-8q-2.07-4.46-4.08-9-2.32-5.86-1.3-9.67,1.2-4.89,6.2-9.73a33.61,33.61,0,0,1,11-7.23,45.55,45.55,0,0,1,12.61-2.61A91.8,91.8,0,0,1,1004.07,509Z"
         id="path42" />
      <path
         class="cls-4"
         d="M1059.62,554.18A42.34,42.34,0,0,1,1044.84,569a46.21,46.21,0,0,1-20.38,6.69q-14.4,1.25-20.06-9.19-4.83-8.91-1.57-21.47,3.42-12.76,14.18-23.15,11.91-11.79,26.85-13.1,19.31-1.68,24.84,11.52L1054,529.88q-2.22-7.87-13.59-6.84-8.31.75-14.56,8a34.33,34.33,0,0,0-7,13.26q-1.85,7-.44,12.12,2,6.69,9.46,6a22.11,22.11,0,0,0,9.95-3.37,21.54,21.54,0,0,0,7.28-7.17Z"
         id="path44" />
      <path
         class="cls-4"
         d="M1133.5,542.06q-3.33,12.12-14.35,21.79-12,10.5-26.2,11.8-14.46,1.2-20.22-9.13-5.12-9-1.85-21.53a50.5,50.5,0,0,1,14.19-23.15q11.9-11.79,26.85-13.1,19.29-1.68,24.84,11.52l-5.66,3.81Q1136.38,531.2,1133.5,542.06Zm-11.85-13.21q-2.88-6.74-13.54-5.81-8.1.75-14.24,8a32.55,32.55,0,0,0-7,13.21q-2,7.4-.27,12.39,2.17,6.42,10.22,5.71,7.34-.66,13.37-6.8a28.43,28.43,0,0,0,7.07-12q1.74-6.58-1.58-10.88Z"
         id="path46" />
      <path
         class="cls-4"
         d="M1203.67,509.23l-4.4,13.32-17.88.76q-4.08,13.47-7.51,26.09t-6.41,25.92l-17.34,1.53q3-14.79,6.85-28.87,3-11.29,7-23.64l-17.45.65,4.46-13.48Z"
         id="path48" />
      <path
         class="cls-4"
         d="M1263.19,508.31l-6.14,17.88L1240.53,528a8.21,8.21,0,0,0-6.09,4.94q-.39,1.57,2.39,8.54a129.81,129.81,0,0,1,4.73,13.69q2.39,8.81.65,14.95a18.94,18.94,0,0,1-2.77,6.3q-5.93,8.92-22.39,14.46a113.59,113.59,0,0,1-26.53,5.66l2.23-19.19a98.81,98.81,0,0,0,18-3.81q5.6-2,6.52-5.65c.55-2.1,0-5.72-1.68-10.87q-2.5-5.76-4.84-11.69-2.94-7.65-1.58-12.61,1.59-6.13,7.75-12.12a42.31,42.31,0,0,1,13.78-9,57.26,57.26,0,0,1,15.6-3.15A104.68,104.68,0,0,1,1263.19,508.31Z"
         id="path50" />
    </g>
  </g>
</svg>
