<svg xmlns="http://www.w3.org/2000/svg" xmlns:xlink="http://www.w3.org/1999/xlink" viewBox="0 0 827.77 853.07"><defs><style>.cls-1,.cls-204{fill:none;}.cls-2{clip-path:url(#clip-path);}.cls-3{fill:url(#linear-gradient);}.cls-4{fill:url(#linear-gradient-2);}.cls-5{fill:url(#linear-gradient-3);}.cls-6{fill:url(#linear-gradient-4);}.cls-7{fill:url(#linear-gradient-5);}.cls-8{fill:url(#linear-gradient-6);}.cls-9{fill:url(#linear-gradient-7);}.cls-10{fill:url(#linear-gradient-8);}.cls-11{fill:url(#linear-gradient-9);}.cls-12{fill:url(#linear-gradient-10);}.cls-13{fill:url(#linear-gradient-11);}.cls-14{fill:url(#linear-gradient-12);}.cls-15{fill:url(#linear-gradient-13);}.cls-16{fill:url(#linear-gradient-14);}.cls-17{fill:url(#linear-gradient-15);}.cls-18{fill:url(#linear-gradient-16);}.cls-19{fill:url(#linear-gradient-17);}.cls-20{fill:url(#linear-gradient-18);}.cls-21{fill:url(#linear-gradient-19);}.cls-22{fill:url(#linear-gradient-20);}.cls-23{fill:url(#linear-gradient-21);}.cls-24{fill:url(#linear-gradient-22);}.cls-25{fill:url(#linear-gradient-23);}.cls-26{fill:url(#linear-gradient-24);}.cls-27{fill:url(#linear-gradient-25);}.cls-28{fill:url(#linear-gradient-26);}.cls-29{fill:url(#linear-gradient-27);}.cls-30{fill:url(#linear-gradient-28);}.cls-31{fill:url(#linear-gradient-29);}.cls-32{fill:url(#linear-gradient-30);}.cls-33{fill:url(#linear-gradient-31);}.cls-34{fill:url(#linear-gradient-32);}.cls-35{fill:url(#linear-gradient-33);}.cls-36{fill:url(#linear-gradient-34);}.cls-37{fill:url(#linear-gradient-35);}.cls-38{fill:url(#linear-gradient-36);}.cls-39{fill:url(#linear-gradient-37);}.cls-40{fill:url(#linear-gradient-38);}.cls-41{fill:url(#linear-gradient-39);}.cls-42{fill:url(#linear-gradient-40);}.cls-43{fill:url(#linear-gradient-41);}.cls-44{fill:url(#linear-gradient-42);}.cls-45{fill:url(#linear-gradient-43);}.cls-46{fill:url(#linear-gradient-44);}.cls-47{fill:url(#linear-gradient-45);}.cls-48{fill:url(#linear-gradient-46);}.cls-49{fill:url(#linear-gradient-47);}.cls-50{fill:url(#linear-gradient-48);}.cls-51{fill:url(#linear-gradient-49);}.cls-52{fill:url(#linear-gradient-50);}.cls-53{fill:url(#linear-gradient-51);}.cls-54{fill:url(#linear-gradient-52);}.cls-55{fill:url(#linear-gradient-53);}.cls-56{fill:url(#linear-gradient-54);}.cls-57{fill:url(#linear-gradient-55);}.cls-58{fill:url(#linear-gradient-56);}.cls-59{fill:url(#linear-gradient-57);}.cls-60{fill:url(#linear-gradient-58);}.cls-61{fill:url(#linear-gradient-59);}.cls-62{fill:url(#linear-gradient-60);}.cls-63{fill:url(#linear-gradient-61);}.cls-64{fill:url(#linear-gradient-62);}.cls-65{fill:url(#linear-gradient-63);}.cls-66{fill:url(#linear-gradient-64);}.cls-67{fill:url(#linear-gradient-65);}.cls-68{fill:url(#linear-gradient-66);}.cls-69{fill:url(#linear-gradient-67);}.cls-70{fill:url(#linear-gradient-68);}.cls-71{fill:url(#linear-gradient-69);}.cls-72{fill:url(#linear-gradient-70);}.cls-73{fill:url(#linear-gradient-71);}.cls-74{fill:url(#linear-gradient-72);}.cls-75{fill:url(#linear-gradient-73);}.cls-76{fill:url(#linear-gradient-74);}.cls-77{fill:url(#linear-gradient-75);}.cls-78{fill:url(#linear-gradient-76);}.cls-79{fill:url(#linear-gradient-77);}.cls-80{fill:url(#linear-gradient-78);}.cls-81{fill:url(#linear-gradient-79);}.cls-82{fill:url(#linear-gradient-80);}.cls-83{fill:url(#linear-gradient-81);}.cls-84{fill:url(#linear-gradient-82);}.cls-85{fill:url(#linear-gradient-83);}.cls-86{fill:url(#linear-gradient-84);}.cls-87{fill:url(#linear-gradient-85);}.cls-88{fill:url(#linear-gradient-86);}.cls-89{fill:url(#linear-gradient-87);}.cls-90{fill:url(#linear-gradient-88);}.cls-91{fill:url(#linear-gradient-89);}.cls-92{fill:url(#linear-gradient-90);}.cls-93{fill:url(#linear-gradient-91);}.cls-94{fill:url(#linear-gradient-92);}.cls-95{fill:url(#linear-gradient-93);}.cls-96{fill:url(#linear-gradient-94);}.cls-97{fill:url(#linear-gradient-95);}.cls-98{fill:url(#linear-gradient-96);}.cls-99{fill:url(#linear-gradient-97);}.cls-100{fill:url(#linear-gradient-98);}.cls-101{fill:url(#linear-gradient-99);}.cls-102{fill:url(#linear-gradient-100);}.cls-103{fill:url(#linear-gradient-101);}.cls-104{fill:url(#linear-gradient-102);}.cls-105{fill:url(#linear-gradient-103);}.cls-106{fill:url(#linear-gradient-104);}.cls-107{fill:url(#linear-gradient-105);}.cls-108{fill:url(#linear-gradient-106);}.cls-109{fill:url(#linear-gradient-107);}.cls-110{fill:url(#linear-gradient-108);}.cls-111{fill:url(#linear-gradient-109);}.cls-112{fill:url(#linear-gradient-110);}.cls-113{fill:url(#linear-gradient-111);}.cls-114{fill:url(#linear-gradient-112);}.cls-115{fill:url(#linear-gradient-113);}.cls-116{fill:url(#linear-gradient-114);}.cls-117{fill:url(#linear-gradient-115);}.cls-118{fill:url(#linear-gradient-116);}.cls-119{fill:url(#linear-gradient-117);}.cls-120{fill:url(#linear-gradient-118);}.cls-121{fill:url(#linear-gradient-119);}.cls-122{fill:url(#linear-gradient-120);}.cls-123{fill:url(#linear-gradient-121);}.cls-124{fill:url(#linear-gradient-122);}.cls-125{fill:url(#linear-gradient-123);}.cls-126{fill:url(#linear-gradient-124);}.cls-127{fill:url(#linear-gradient-125);}.cls-128{fill:url(#linear-gradient-126);}.cls-129{fill:url(#linear-gradient-127);}.cls-130{fill:url(#linear-gradient-128);}.cls-131{fill:url(#linear-gradient-129);}.cls-132{fill:url(#linear-gradient-130);}.cls-133{fill:url(#linear-gradient-131);}.cls-134{fill:url(#linear-gradient-132);}.cls-135{fill:url(#linear-gradient-133);}.cls-136{fill:url(#linear-gradient-134);}.cls-137{fill:url(#linear-gradient-135);}.cls-138{fill:url(#linear-gradient-136);}.cls-139{fill:url(#linear-gradient-137);}.cls-140{fill:url(#linear-gradient-138);}.cls-141{fill:url(#linear-gradient-139);}.cls-142{fill:url(#linear-gradient-140);}.cls-143{fill:url(#linear-gradient-141);}.cls-144{fill:url(#linear-gradient-142);}.cls-145{fill:url(#linear-gradient-143);}.cls-146{fill:url(#linear-gradient-144);}.cls-147{fill:url(#linear-gradient-145);}.cls-148{fill:url(#linear-gradient-146);}.cls-149{fill:url(#linear-gradient-147);}.cls-150{fill:url(#linear-gradient-148);}.cls-151{fill:url(#linear-gradient-149);}.cls-152{fill:url(#linear-gradient-150);}.cls-153{fill:url(#linear-gradient-151);}.cls-154{fill:url(#linear-gradient-152);}.cls-155{fill:url(#linear-gradient-153);}.cls-156{fill:url(#linear-gradient-154);}.cls-157{fill:url(#linear-gradient-155);}.cls-158{fill:url(#linear-gradient-156);}.cls-159{fill:url(#linear-gradient-157);}.cls-160{fill:url(#linear-gradient-158);}.cls-161{fill:url(#linear-gradient-159);}.cls-162{fill:url(#linear-gradient-160);}.cls-163{fill:url(#linear-gradient-161);}.cls-164{fill:url(#linear-gradient-162);}.cls-165{fill:url(#linear-gradient-163);}.cls-166{fill:url(#linear-gradient-164);}.cls-167{fill:url(#linear-gradient-165);}.cls-168{fill:url(#linear-gradient-166);}.cls-169{fill:url(#linear-gradient-167);}.cls-170{fill:url(#linear-gradient-168);}.cls-171{fill:url(#linear-gradient-169);}.cls-172{fill:url(#linear-gradient-170);}.cls-173{fill:url(#linear-gradient-171);}.cls-174{fill:url(#linear-gradient-172);}.cls-175{fill:url(#linear-gradient-173);}.cls-176{fill:url(#linear-gradient-174);}.cls-177{fill:url(#linear-gradient-175);}.cls-178{fill:url(#linear-gradient-176);}.cls-179{fill:url(#linear-gradient-177);}.cls-180{fill:url(#linear-gradient-178);}.cls-181{fill:url(#linear-gradient-179);}.cls-182{fill:url(#linear-gradient-180);}.cls-183{fill:url(#linear-gradient-181);}.cls-184{fill:url(#linear-gradient-182);}.cls-185{fill:url(#linear-gradient-183);}.cls-186{fill:url(#linear-gradient-184);}.cls-187{fill:url(#linear-gradient-185);}.cls-188{fill:url(#linear-gradient-186);}.cls-189{fill:url(#linear-gradient-187);}.cls-190{fill:url(#linear-gradient-188);}.cls-191{fill:url(#linear-gradient-189);}.cls-192{fill:url(#linear-gradient-190);}.cls-193{fill:url(#linear-gradient-191);}.cls-194{fill:url(#linear-gradient-192);}.cls-195{fill:url(#linear-gradient-193);}.cls-196{fill:url(#linear-gradient-194);}.cls-197{fill:url(#linear-gradient-195);}.cls-198{fill:url(#linear-gradient-196);}.cls-199{fill:url(#linear-gradient-197);}.cls-200{fill:url(#linear-gradient-198);}.cls-201{fill:url(#linear-gradient-199);}.cls-202{fill:url(#linear-gradient-200);}.cls-203{fill:url(#linear-gradient-201);}.cls-204{stroke:#010101;stroke-miterlimit:10;}.cls-205{fill:#010101;}.cls-206{fill:url(#linear-gradient-202);}.cls-207{fill:url(#linear-gradient-203);}.cls-208{fill:url(#linear-gradient-204);}.cls-209{fill:url(#linear-gradient-205);}.cls-210{fill:url(#linear-gradient-206);}.cls-211{fill:url(#linear-gradient-207);}.cls-212{fill:url(#linear-gradient-208);}.cls-213{fill:url(#linear-gradient-209);}.cls-214{fill:url(#linear-gradient-210);}.cls-215{fill:#353535;}.cls-216{fill:#4e9fd7;}.cls-217{fill:#fff;}.cls-218{fill:#343434;}.cls-219{fill:#d74c95;}.cls-220{fill:#fffbf1;}</style><clipPath id="clip-path" transform="translate(-54.52)"><rect class="cls-1" y="20.05" width="943.88" height="629.26"/></clipPath><linearGradient id="linear-gradient" x1="581.2" y1="386.55" x2="591.84" y2="386.55" gradientUnits="userSpaceOnUse"><stop offset="0" stop-color="#f9b64b"/><stop offset="1" stop-color="#f7a62c"/></linearGradient><linearGradient id="linear-gradient-2" x1="531.36" y1="453.55" x2="542.65" y2="453.55" gradientUnits="userSpaceOnUse"><stop offset="0" stop-color="#af2a86"/><stop offset="1" stop-color="#506aaf"/></linearGradient><linearGradient id="linear-gradient-3" x1="442.58" y1="445.13" x2="460.11" y2="445.13" gradientUnits="userSpaceOnUse"><stop offset="0" stop-color="#e94575"/><stop offset="1" stop-color="#d4388c"/></linearGradient><linearGradient id="linear-gradient-4" x1="2305.96" y1="3105.55" x2="2324.64" y2="3105.55" gradientTransform="translate(2140.14 -3062.74) rotate(63.11)" gradientUnits="userSpaceOnUse"><stop offset="0" stop-color="#74c9e1"/><stop offset="1" stop-color="#0fa8dc"/></linearGradient><linearGradient id="linear-gradient-5" x1="363.65" y1="411.02" x2="379.94" y2="411.02" gradientUnits="userSpaceOnUse"><stop offset="0" stop-color="#e72875"/><stop offset="1" stop-color="#f7a62c"/></linearGradient><linearGradient id="linear-gradient-6" x1="2114.51" y1="-2743.28" x2="2136.17" y2="-2743.28" gradientTransform="translate(2021.84 3332.8) rotate(-68.25)" xlink:href="#linear-gradient-3"/><linearGradient id="linear-gradient-7" x1="210.23" y1="248.02" x2="228.73" y2="248.02" gradientUnits="userSpaceOnUse"><stop offset="0" stop-color="#bf2169"/><stop offset="1" stop-color="#af2a86"/></linearGradient><linearGradient id="linear-gradient-8" x1="180.23" y1="159.4" x2="196.27" y2="159.4" gradientUnits="userSpaceOnUse"><stop offset="0" stop-color="#fbe41f"/><stop offset="1" stop-color="#c6d432"/></linearGradient><linearGradient id="linear-gradient-9" x1="348.39" y1="445.73" x2="393.04" y2="445.73" xlink:href="#linear-gradient-3"/><linearGradient id="linear-gradient-10" x1="327.65" y1="290.22" x2="352.73" y2="290.22" gradientUnits="userSpaceOnUse"><stop offset="0" stop-color="#b5d386"/><stop offset="1" stop-color="#88be47"/></linearGradient><linearGradient id="linear-gradient-11" x1="430.13" y1="284.9" x2="442.07" y2="284.9" xlink:href="#linear-gradient-3"/><linearGradient id="linear-gradient-12" x1="521.11" y1="374.33" x2="528.92" y2="374.33" xlink:href="#linear-gradient-2"/><linearGradient id="linear-gradient-13" x1="530.26" y1="310.38" x2="551.93" y2="310.38" gradientTransform="matrix(1, 0, 0, 1, 0, 0)" xlink:href="#linear-gradient-4"/><linearGradient id="linear-gradient-14" x1="577.67" y1="240.06" x2="595.81" y2="240.06" xlink:href="#linear-gradient-10"/><linearGradient id="linear-gradient-15" x1="680.01" y1="306.03" x2="690.37" y2="306.03" xlink:href="#linear-gradient-7"/><linearGradient id="linear-gradient-16" x1="389.19" y1="363.54" x2="409.34" y2="363.54" xlink:href="#linear-gradient-3"/><linearGradient id="linear-gradient-17" x1="485.9" y1="280.66" x2="501.99" y2="280.66" gradientTransform="matrix(1, 0, 0, 1, 0, 0)" xlink:href="#linear-gradient-4"/><linearGradient id="linear-gradient-18" x1="572.58" y1="296.6" x2="585.76" y2="296.6" xlink:href="#linear-gradient-7"/><linearGradient id="linear-gradient-19" x1="705.76" y1="248.6" x2="721.82" y2="248.6" xlink:href="#linear-gradient-2"/><linearGradient id="linear-gradient-20" x1="798.11" y1="157.15" x2="816.43" y2="157.15" xlink:href="#linear-gradient-8"/><linearGradient id="linear-gradient-21" x1="355.4" y1="341.12" x2="373.4" y2="341.12" xlink:href="#linear-gradient-2"/><linearGradient id="linear-gradient-22" x1="429.38" y1="335.05" x2="449.98" y2="335.05" xlink:href="#linear-gradient"/><linearGradient id="linear-gradient-23" x1="445.44" y1="307.14" x2="462.77" y2="307.14" xlink:href="#linear-gradient-10"/><linearGradient id="linear-gradient-24" x1="591.23" y1="266.4" x2="613.52" y2="266.4" xlink:href="#linear-gradient"/><linearGradient id="linear-gradient-25" x1="628.71" y1="116.16" x2="642.05" y2="116.16" gradientTransform="matrix(1, 0, 0, 1, 0, 0)" xlink:href="#linear-gradient-4"/><linearGradient id="linear-gradient-26" x1="571.55" y1="60.2" x2="586.79" y2="60.2" xlink:href="#linear-gradient-7"/><linearGradient id="linear-gradient-27" x1="238.03" y1="503.64" x2="259.84" y2="503.64" xlink:href="#linear-gradient-10"/><linearGradient id="linear-gradient-28" x1="379.19" y1="509.26" x2="399.01" y2="509.26" xlink:href="#linear-gradient-8"/><linearGradient id="linear-gradient-29" x1="426.49" y1="452.8" x2="439.59" y2="452.8" xlink:href="#linear-gradient"/><linearGradient id="linear-gradient-30" x1="460.06" y1="363.54" x2="472.61" y2="363.54" xlink:href="#linear-gradient-7"/><linearGradient id="linear-gradient-31" x1="318.41" y1="367.58" x2="338.58" y2="367.58" gradientTransform="matrix(1, 0, 0, 1, 0, 0)" xlink:href="#linear-gradient-4"/><linearGradient id="linear-gradient-32" x1="314.16" y1="445.73" x2="328.49" y2="445.73" xlink:href="#linear-gradient-3"/><linearGradient id="linear-gradient-33" x1="269.07" y1="430.3" x2="288.77" y2="430.3" xlink:href="#linear-gradient-2"/><linearGradient id="linear-gradient-34" x1="192.17" y1="492.52" x2="203.36" y2="492.52" xlink:href="#linear-gradient-7"/><linearGradient id="linear-gradient-35" x1="89.93" y1="439.52" x2="98.52" y2="439.52" xlink:href="#linear-gradient"/><linearGradient id="linear-gradient-36" x1="301.03" y1="218.27" x2="314.27" y2="218.27" xlink:href="#linear-gradient-7"/><linearGradient id="linear-gradient-37" x1="198.12" y1="135.43" x2="214.51" y2="135.43" gradientTransform="matrix(1, 0, 0, 1, 0, 0)" xlink:href="#linear-gradient-4"/><linearGradient id="linear-gradient-38" x1="466.69" y1="338.8" x2="483.21" y2="338.8" xlink:href="#linear-gradient-5"/><linearGradient id="linear-gradient-39" x1="453.66" y1="249.71" x2="466.9" y2="249.71" xlink:href="#linear-gradient-8"/><linearGradient id="linear-gradient-40" x1="480.93" y1="208.99" x2="492.59" y2="208.99" xlink:href="#linear-gradient-7"/><linearGradient id="linear-gradient-41" x1="508.52" y1="157.12" x2="528.38" y2="157.12" gradientTransform="matrix(1, 0, 0, 1, 0, 0)" xlink:href="#linear-gradient-4"/><linearGradient id="linear-gradient-42" x1="6560.99" y1="646.19" x2="6568.91" y2="646.19" gradientTransform="translate(6688.63 -640.53) rotate(167.16)" xlink:href="#linear-gradient-5"/><linearGradient id="linear-gradient-43" x1="6545.07" y1="593.63" x2="6558.32" y2="593.63" gradientTransform="translate(6688.63 -640.53) rotate(167.16)" xlink:href="#linear-gradient-8"/><linearGradient id="linear-gradient-44" x1="6572.35" y1="552.92" x2="6584.01" y2="552.92" gradientTransform="translate(6688.63 -640.53) rotate(167.16)" xlink:href="#linear-gradient-7"/><linearGradient id="linear-gradient-45" x1="6599.94" y1="501.05" x2="6619.8" y2="501.05" gradientTransform="translate(6688.63 -640.53) rotate(167.16)" xlink:href="#linear-gradient-4"/><linearGradient id="linear-gradient-46" x1="371.31" y1="312.65" x2="386.6" y2="312.65" xlink:href="#linear-gradient-8"/><linearGradient id="linear-gradient-47" x1="475.72" y1="286.56" x2="490.45" y2="286.56" xlink:href="#linear-gradient-7"/><linearGradient id="linear-gradient-48" x1="521.21" y1="391.61" x2="543.62" y2="391.61" xlink:href="#linear-gradient-10"/><linearGradient id="linear-gradient-49" x1="654.24" y1="433.1" x2="669.25" y2="433.1" xlink:href="#linear-gradient-2"/><linearGradient id="linear-gradient-50" x1="638.84" y1="538.72" x2="675.11" y2="538.72" gradientTransform="matrix(1, 0, 0, 1, 0, 0)" xlink:href="#linear-gradient-4"/><linearGradient id="linear-gradient-51" x1="702.67" y1="591.37" x2="718.37" y2="591.37" xlink:href="#linear-gradient-5"/><linearGradient id="linear-gradient-52" x1="686.8" y1="129.79" x2="701.98" y2="129.79" xlink:href="#linear-gradient-8"/><linearGradient id="linear-gradient-53" x1="565.51" y1="113.14" x2="579.65" y2="113.14" gradientUnits="userSpaceOnUse"><stop offset="0" stop-color="#e72875"/><stop offset="1" stop-color="#c7221c"/></linearGradient><linearGradient id="linear-gradient-54" x1="504.84" y1="90.4" x2="515.95" y2="90.4" xlink:href="#linear-gradient-5"/><linearGradient id="linear-gradient-55" x1="387.05" y1="207.55" x2="398.67" y2="207.55" gradientTransform="matrix(1, 0, 0, 1, 0, 0)" xlink:href="#linear-gradient-4"/><linearGradient id="linear-gradient-56" x1="158.37" y1="586.23" x2="173.55" y2="586.23" xlink:href="#linear-gradient-8"/><linearGradient id="linear-gradient-57" x1="196.29" y1="51.75" x2="210.43" y2="51.75" xlink:href="#linear-gradient-53"/><linearGradient id="linear-gradient-58" x1="851.45" y1="478.03" x2="862.56" y2="478.03" xlink:href="#linear-gradient-5"/><linearGradient id="linear-gradient-59" x1="778.3" y1="79.02" x2="789.92" y2="79.02" xlink:href="#linear-gradient-53"/><linearGradient id="linear-gradient-60" x1="797.43" y1="303.2" x2="811.64" y2="303.2" gradientUnits="userSpaceOnUse"><stop offset="0" stop-color="#ef7c60"/><stop offset="1" stop-color="#eb632d"/></linearGradient><linearGradient id="linear-gradient-61" x1="741.71" y1="354.56" x2="757.31" y2="354.56" xlink:href="#linear-gradient-8"/><linearGradient id="linear-gradient-62" x1="698.85" y1="210.45" x2="713.84" y2="210.45" gradientTransform="matrix(1, 0, 0, 1, 0, 0)" xlink:href="#linear-gradient-4"/><linearGradient id="linear-gradient-63" x1="120" y1="554.78" x2="127.3" y2="554.78" gradientTransform="matrix(1, 0, 0, 1, 0, 0)" xlink:href="#linear-gradient-4"/><linearGradient id="linear-gradient-64" x1="553.05" y1="241.99" x2="571.05" y2="241.99" xlink:href="#linear-gradient-5"/><linearGradient id="linear-gradient-65" x1="662.71" y1="1763.92" x2="678.99" y2="1763.92" gradientTransform="matrix(0.78, 0.62, -0.62, 0.78, 1264.85, -1774.06)" xlink:href="#linear-gradient-5"/><linearGradient id="linear-gradient-66" x1="563.53" y1="169.36" x2="576.95" y2="169.36" xlink:href="#linear-gradient"/><linearGradient id="linear-gradient-67" x1="485.37" y1="239.86" x2="498.98" y2="239.86" xlink:href="#linear-gradient-53"/><linearGradient id="linear-gradient-68" x1="434.05" y1="545.8" x2="448.27" y2="545.8" xlink:href="#linear-gradient-10"/><linearGradient id="linear-gradient-69" x1="599.2" y1="465.97" x2="617.2" y2="465.97" xlink:href="#linear-gradient-5"/><linearGradient id="linear-gradient-70" x1="2528.16" y1="-3020.51" x2="2538.61" y2="-3020.51" gradientTransform="matrix(0.29, -0.96, 0.96, 0.29, 2591.25, 3418.36)" xlink:href="#linear-gradient"/><linearGradient id="linear-gradient-71" x1="570.37" y1="313.37" x2="579.91" y2="313.37" gradientTransform="translate(-55.08 -238.36) rotate(12.49)" xlink:href="#linear-gradient-5"/><linearGradient id="linear-gradient-72" x1="345.39" y1="209.61" x2="358.09" y2="209.61" xlink:href="#linear-gradient-7"/><linearGradient id="linear-gradient-73" x1="416.09" y1="216.73" x2="427.74" y2="216.73" gradientTransform="translate(438.04 -257.32) rotate(64.76)" xlink:href="#linear-gradient-5"/><linearGradient id="linear-gradient-74" x1="416.42" y1="216.37" x2="427.74" y2="216.37" xlink:href="#linear-gradient-5"/><linearGradient id="linear-gradient-75" x1="527.69" y1="142.77" x2="542.43" y2="142.77" gradientTransform="translate(470.81 -407.27) rotate(68.4)" xlink:href="#linear-gradient"/><linearGradient id="linear-gradient-76" x1="528.06" y1="142.3" x2="542.43" y2="142.3" xlink:href="#linear-gradient"/><linearGradient id="linear-gradient-77" x1="160" y1="394.02" x2="171.92" y2="394.02" xlink:href="#linear-gradient-3"/><linearGradient id="linear-gradient-78" x1="219.36" y1="298.48" x2="235.35" y2="298.48" gradientTransform="matrix(1, 0, 0, 1, 0, 0)" xlink:href="#linear-gradient-4"/><linearGradient id="linear-gradient-79" x1="208.84" y1="207.19" x2="229.87" y2="207.19" xlink:href="#linear-gradient"/><linearGradient id="linear-gradient-80" x1="526.4" y1="482.94" x2="539.79" y2="482.94" xlink:href="#linear-gradient-7"/><linearGradient id="linear-gradient-81" x1="703.34" y1="488.83" x2="720.34" y2="488.83" xlink:href="#linear-gradient-5"/><linearGradient id="linear-gradient-82" x1="772.07" y1="414.54" x2="782.9" y2="414.54" xlink:href="#linear-gradient-10"/><linearGradient id="linear-gradient-83" x1="525.84" y1="960.3" x2="542.83" y2="960.3" gradientTransform="matrix(0.97, 0.25, -0.25, 0.97, 122.88, -937.72)" xlink:href="#linear-gradient-5"/><linearGradient id="linear-gradient-84" x1="582.14" y1="901.37" x2="592.97" y2="901.37" gradientTransform="matrix(0.97, 0.25, -0.25, 0.97, 122.88, -937.72)" xlink:href="#linear-gradient-10"/><linearGradient id="linear-gradient-85" x1="467.64" y1="164.55" x2="480.69" y2="164.55" xlink:href="#linear-gradient-10"/><linearGradient id="linear-gradient-86" x1="308.86" y1="129.44" x2="323.72" y2="129.44" xlink:href="#linear-gradient-8"/><linearGradient id="linear-gradient-87" x1="483.28" y1="564.81" x2="495.8" y2="564.81" xlink:href="#linear-gradient-2"/><linearGradient id="linear-gradient-88" x1="384.31" y1="629.32" x2="399.37" y2="629.32" xlink:href="#linear-gradient-3"/><linearGradient id="linear-gradient-89" x1="354.46" y1="608.13" x2="370.92" y2="608.13" gradientTransform="matrix(1, 0, 0, 1, 0, 0)" xlink:href="#linear-gradient-4"/><linearGradient id="linear-gradient-90" x1="6663.98" y1="1523.3" x2="6666.51" y2="1523.3" gradientTransform="translate(6931.82 -1222.55) rotate(153.38)" xlink:href="#linear-gradient"/><linearGradient id="linear-gradient-91" x1="6652.11" y1="1539.24" x2="6654.8" y2="1539.24" gradientTransform="translate(6931.82 -1222.55) rotate(153.38)" xlink:href="#linear-gradient-2"/><linearGradient id="linear-gradient-92" x1="6630.98" y1="1537.24" x2="6635.16" y2="1537.24" gradientTransform="translate(6931.82 -1222.55) rotate(153.38)" xlink:href="#linear-gradient-3"/><linearGradient id="linear-gradient-93" x1="6117.98" y1="-1922.5" x2="6123.02" y2="-1922.5" gradientTransform="translate(6390.3 2474.1) rotate(-143.5)" xlink:href="#linear-gradient-4"/><linearGradient id="linear-gradient-94" x1="6612.2" y1="1529.12" x2="6616.07" y2="1529.12" gradientTransform="translate(6931.82 -1222.55) rotate(153.38)" xlink:href="#linear-gradient-5"/><linearGradient id="linear-gradient-95" x1="6589.41" y1="1522.04" x2="6592.55" y2="1522.04" gradientTransform="translate(6931.82 -1222.55) rotate(153.38)" xlink:href="#linear-gradient-3"/><linearGradient id="linear-gradient-96" x1="6575.68" y1="1490.32" x2="6580.08" y2="1490.32" gradientTransform="translate(6931.82 -1222.55) rotate(153.38)" xlink:href="#linear-gradient-7"/><linearGradient id="linear-gradient-97" x1="6568.54" y1="1469.23" x2="6572.36" y2="1469.23" gradientTransform="translate(6931.82 -1222.55) rotate(153.38)" xlink:href="#linear-gradient-8"/><linearGradient id="linear-gradient-98" x1="5517.32" y1="2425.9" x2="5522.05" y2="2425.9" gradientTransform="translate(6668.87 1111.95) rotate(163.51)" xlink:href="#linear-gradient-3"/><linearGradient id="linear-gradient-99" x1="5517.41" y1="2425.75" x2="5522.05" y2="2425.75" gradientTransform="matrix(-0.63, 0.78, -0.78, -0.63, 6032.95, -2436.11)" xlink:href="#linear-gradient-3"/><linearGradient id="linear-gradient-100" x1="5516.11" y1="2388.7" x2="5521.32" y2="2388.7" gradientTransform="matrix(-0.63, 0.78, -0.78, -0.63, 6032.95, -2436.11)" xlink:href="#linear-gradient-10"/><linearGradient id="linear-gradient-101" x1="5540.5" y1="2388.31" x2="5543.35" y2="2388.31" gradientTransform="matrix(-0.63, 0.78, -0.78, -0.63, 6032.95, -2436.11)" xlink:href="#linear-gradient-3"/><linearGradient id="linear-gradient-102" x1="5562.16" y1="2409.59" x2="5564.02" y2="2409.59" gradientTransform="matrix(-0.63, 0.78, -0.78, -0.63, 6032.95, -2436.11)" xlink:href="#linear-gradient-2"/><linearGradient id="linear-gradient-103" x1="5564.34" y1="2394.37" x2="5569.49" y2="2394.37" gradientTransform="matrix(-0.63, 0.78, -0.78, -0.63, 6032.95, -2436.11)" xlink:href="#linear-gradient-4"/><linearGradient id="linear-gradient-104" x1="5575.62" y1="2377.64" x2="5579.94" y2="2377.64" gradientTransform="matrix(-0.63, 0.78, -0.78, -0.63, 6032.95, -2436.11)" xlink:href="#linear-gradient-10"/><linearGradient id="linear-gradient-105" x1="5599.98" y1="2393.34" x2="5602.44" y2="2393.34" gradientTransform="matrix(-0.63, 0.78, -0.78, -0.63, 6032.95, -2436.11)" xlink:href="#linear-gradient-7"/><linearGradient id="linear-gradient-106" x1="6526.62" y1="1394" x2="6531.41" y2="1394" gradientTransform="translate(6931.82 -1222.55) rotate(153.38)" xlink:href="#linear-gradient-3"/><linearGradient id="linear-gradient-107" x1="6549.64" y1="1374.28" x2="6553.46" y2="1374.28" gradientTransform="translate(6931.82 -1222.55) rotate(153.38)" xlink:href="#linear-gradient-4"/><linearGradient id="linear-gradient-108" x1="6570.27" y1="1378.07" x2="6573.4" y2="1378.07" gradientTransform="translate(6931.82 -1222.55) rotate(153.38)" xlink:href="#linear-gradient-7"/><linearGradient id="linear-gradient-109" x1="6601.97" y1="1366.64" x2="6605.79" y2="1366.64" gradientTransform="translate(6931.82 -1222.55) rotate(153.38)" xlink:href="#linear-gradient-2"/><linearGradient id="linear-gradient-110" x1="6623.95" y1="1344.88" x2="6628.31" y2="1344.88" gradientTransform="translate(6931.82 -1222.55) rotate(153.38)" xlink:href="#linear-gradient-8"/><linearGradient id="linear-gradient-111" x1="6315.85" y1="1618.53" x2="6320.14" y2="1618.53" gradientTransform="translate(6931.82 -1222.55) rotate(153.38)" xlink:href="#linear-gradient-2"/><linearGradient id="linear-gradient-112" x1="6333.46" y1="1617.09" x2="6338.36" y2="1617.09" gradientTransform="translate(6931.82 -1222.55) rotate(153.38)" xlink:href="#linear-gradient"/><linearGradient id="linear-gradient-113" x1="6337.28" y1="1610.45" x2="6341.41" y2="1610.45" gradientTransform="translate(6931.82 -1222.55) rotate(153.38)" xlink:href="#linear-gradient-10"/><linearGradient id="linear-gradient-114" x1="6371.98" y1="1600.75" x2="6377.29" y2="1600.75" gradientTransform="translate(6931.82 -1222.55) rotate(153.38)" xlink:href="#linear-gradient"/><linearGradient id="linear-gradient-115" x1="6380.9" y1="1564.99" x2="6384.08" y2="1564.99" gradientTransform="translate(6931.82 -1222.55) rotate(153.38)" xlink:href="#linear-gradient-4"/><linearGradient id="linear-gradient-116" x1="6367.3" y1="1551.67" x2="6370.93" y2="1551.67" gradientTransform="translate(6931.82 -1222.55) rotate(153.38)" xlink:href="#linear-gradient-7"/><linearGradient id="linear-gradient-117" x1="6441.35" y1="1678.88" x2="6446.54" y2="1678.88" gradientTransform="translate(6931.82 -1222.55) rotate(153.38)" xlink:href="#linear-gradient-10"/><linearGradient id="linear-gradient-118" x1="6474.95" y1="1680.22" x2="6479.67" y2="1680.22" gradientTransform="translate(6931.82 -1222.55) rotate(153.38)" xlink:href="#linear-gradient-8"/><linearGradient id="linear-gradient-119" x1="6486.21" y1="1666.78" x2="6489.33" y2="1666.78" gradientTransform="translate(6931.82 -1222.55) rotate(153.38)" xlink:href="#linear-gradient"/><linearGradient id="linear-gradient-120" x1="6494.2" y1="1645.53" x2="6497.19" y2="1645.53" gradientTransform="translate(6931.82 -1222.55) rotate(153.38)" xlink:href="#linear-gradient-7"/><linearGradient id="linear-gradient-121" x1="6445.16" y1="1360.43" x2="6449.95" y2="1360.43" gradientTransform="translate(6931.82 -1222.55) rotate(153.38)" xlink:href="#linear-gradient-4"/><linearGradient id="linear-gradient-122" x1="6444.14" y1="1379.03" x2="6447.56" y2="1379.03" gradientTransform="translate(6931.82 -1222.55) rotate(153.38)" xlink:href="#linear-gradient-3"/><linearGradient id="linear-gradient-123" x1="6433.41" y1="1375.36" x2="6438.1" y2="1375.36" gradientTransform="translate(6931.82 -1222.55) rotate(153.38)" xlink:href="#linear-gradient-2"/><linearGradient id="linear-gradient-124" x1="6415.11" y1="1390.17" x2="6417.77" y2="1390.17" gradientTransform="translate(6931.82 -1222.55) rotate(153.38)" xlink:href="#linear-gradient-7"/><linearGradient id="linear-gradient-125" x1="6390.77" y1="1377.55" x2="6392.82" y2="1377.55" gradientTransform="translate(6931.82 -1222.55) rotate(153.38)" xlink:href="#linear-gradient"/><linearGradient id="linear-gradient-126" x1="6453.15" y1="1444.92" x2="6456.3" y2="1444.92" gradientTransform="translate(6931.82 -1222.55) rotate(153.38)" xlink:href="#linear-gradient-7"/><linearGradient id="linear-gradient-127" x1="6428.66" y1="1425.2" x2="6432.56" y2="1425.2" gradientTransform="translate(6931.82 -1222.55) rotate(153.38)" xlink:href="#linear-gradient-4"/><linearGradient id="linear-gradient-128" x1="6453.23" y1="1491.77" x2="6457.16" y2="1491.77" gradientTransform="translate(6931.82 -1222.55) rotate(153.38)" xlink:href="#linear-gradient-5"/><linearGradient id="linear-gradient-129" x1="6450.13" y1="1469.64" x2="6454.76" y2="1469.64" gradientTransform="translate(6931.82 -1222.55) rotate(153.38)" xlink:href="#linear-gradient-8"/><linearGradient id="linear-gradient-130" x1="6456.62" y1="1460.87" x2="6459.4" y2="1460.87" gradientTransform="translate(6931.82 -1222.55) rotate(153.38)" xlink:href="#linear-gradient-7"/><linearGradient id="linear-gradient-131" x1="6466.15" y1="1448.53" x2="6470.57" y2="1448.53" gradientTransform="translate(6931.82 -1222.55) rotate(153.38)" xlink:href="#linear-gradient-4"/><linearGradient id="linear-gradient-132" x1="6469.64" y1="1583.56" x2="6473.28" y2="1583.56" gradientTransform="translate(6931.82 -1222.55) rotate(153.38)" xlink:href="#linear-gradient-8"/><linearGradient id="linear-gradient-133" x1="6494.5" y1="1577.35" x2="6498" y2="1577.35" gradientTransform="translate(6931.82 -1222.55) rotate(153.38)" xlink:href="#linear-gradient-7"/><linearGradient id="linear-gradient-134" x1="6505.32" y1="1602.35" x2="6510.66" y2="1602.35" gradientTransform="translate(6931.82 -1222.55) rotate(153.38)" xlink:href="#linear-gradient-10"/><linearGradient id="linear-gradient-135" x1="6536.99" y1="1612.23" x2="6540.56" y2="1612.23" gradientTransform="translate(6931.82 -1222.55) rotate(153.38)" xlink:href="#linear-gradient-2"/><linearGradient id="linear-gradient-136" x1="6533.32" y1="1637.09" x2="6538.39" y2="1637.09" gradientTransform="translate(6931.82 -1222.55) rotate(153.38)" xlink:href="#linear-gradient-4"/><linearGradient id="linear-gradient-137" x1="6548.52" y1="1649.9" x2="6552.25" y2="1649.9" gradientTransform="translate(6931.82 -1222.55) rotate(153.38)" xlink:href="#linear-gradient-5"/><linearGradient id="linear-gradient-138" x1="6544.97" y1="1423.85" x2="6548.59" y2="1423.85" gradientTransform="translate(6931.82 -1222.55) rotate(153.38)" xlink:href="#linear-gradient-8"/><linearGradient id="linear-gradient-139" x1="6516.1" y1="1419.89" x2="6519.47" y2="1419.89" gradientTransform="translate(6931.82 -1222.55) rotate(153.38)" xlink:href="#linear-gradient-53"/><linearGradient id="linear-gradient-140" x1="6501.66" y1="1414.48" x2="6504.31" y2="1414.48" gradientTransform="translate(6931.82 -1222.55) rotate(153.38)" xlink:href="#linear-gradient-5"/><linearGradient id="linear-gradient-141" x1="6473.63" y1="1442.36" x2="6476.39" y2="1442.36" gradientTransform="translate(6931.82 -1222.55) rotate(153.38)" xlink:href="#linear-gradient-4"/><linearGradient id="linear-gradient-142" x1="6694.4" y1="1687.75" x2="6697.78" y2="1687.75" gradientTransform="translate(6931.82 -1222.55) rotate(153.38)" xlink:href="#linear-gradient-60"/><linearGradient id="linear-gradient-143" x1="6681.94" y1="1701.09" x2="6685.66" y2="1701.09" gradientTransform="translate(6931.82 -1222.55) rotate(153.38)" xlink:href="#linear-gradient-8"/><linearGradient id="linear-gradient-144" x1="6670.93" y1="1665.67" x2="6674.5" y2="1665.67" gradientTransform="translate(6931.82 -1222.55) rotate(153.38)" xlink:href="#linear-gradient-4"/><linearGradient id="linear-gradient-145" x1="6636.16" y1="1676.06" x2="6640.32" y2="1676.06" gradientTransform="translate(6931.82 -1222.55) rotate(153.38)" xlink:href="#linear-gradient-5"/><linearGradient id="linear-gradient-146" x1="6638.72" y1="1655.89" x2="6641.92" y2="1655.89" gradientTransform="translate(6931.82 -1222.55) rotate(153.38)" xlink:href="#linear-gradient"/><linearGradient id="linear-gradient-147" x1="6620.12" y1="1672.67" x2="6623.36" y2="1672.67" gradientTransform="translate(6931.82 -1222.55) rotate(153.38)" xlink:href="#linear-gradient-53"/><linearGradient id="linear-gradient-148" x1="6366.19" y1="1447.57" x2="6369.57" y2="1447.57" gradientTransform="translate(6931.82 -1222.55) rotate(153.38)" xlink:href="#linear-gradient"/><linearGradient id="linear-gradient-149" x1="6341.16" y1="1443.97" x2="6344.81" y2="1443.97" gradientTransform="translate(6931.82 -1222.55) rotate(153.38)" xlink:href="#linear-gradient-5"/><linearGradient id="linear-gradient-150" x1="6339.1" y1="1488.37" x2="6342.12" y2="1488.37" gradientTransform="translate(6931.82 -1222.55) rotate(153.38)" xlink:href="#linear-gradient-7"/><linearGradient id="linear-gradient-151" x1="6480.54" y1="1444.55" x2="6483.31" y2="1444.55" gradientTransform="translate(6968.66 -1067.47) rotate(154.76)" xlink:href="#linear-gradient-5"/><linearGradient id="linear-gradient-152" x1="6480.62" y1="1444.46" x2="6483.31" y2="1444.46" gradientTransform="translate(6931.82 -1222.55) rotate(153.38)" xlink:href="#linear-gradient-5"/><linearGradient id="linear-gradient-153" x1="6507.1" y1="1426.94" x2="6510.61" y2="1426.94" gradientTransform="translate(7050.5 -651.57) rotate(158.4)" xlink:href="#linear-gradient"/><linearGradient id="linear-gradient-154" x1="6507.19" y1="1426.83" x2="6510.61" y2="1426.83" gradientTransform="translate(6931.82 -1222.55) rotate(153.38)" xlink:href="#linear-gradient"/><linearGradient id="linear-gradient-155" x1="6481.95" y1="1408.88" x2="6485.38" y2="1408.88" gradientTransform="translate(4165.7 5955.58) rotate(-135.75)" xlink:href="#linear-gradient-4"/><linearGradient id="linear-gradient-156" x1="6481.95" y1="1408.8" x2="6485.22" y2="1408.8" gradientTransform="translate(6931.82 -1222.55) rotate(153.38)" xlink:href="#linear-gradient-4"/><linearGradient id="linear-gradient-157" x1="6366.05" y1="1511.7" x2="6368.89" y2="1511.7" gradientTransform="translate(6931.82 -1222.55) rotate(153.38)" xlink:href="#linear-gradient-3"/><linearGradient id="linear-gradient-158" x1="6371.07" y1="1483.88" x2="6374.88" y2="1483.88" gradientTransform="translate(6931.82 -1222.55) rotate(153.38)" xlink:href="#linear-gradient-4"/><linearGradient id="linear-gradient-159" x1="6377.68" y1="1467.24" x2="6382.68" y2="1467.24" gradientTransform="translate(6931.82 -1222.55) rotate(153.38)" xlink:href="#linear-gradient"/><linearGradient id="linear-gradient-160" x1="6562.42" y1="1559.4" x2="6565.61" y2="1559.4" gradientTransform="translate(6931.82 -1222.55) rotate(153.38)" xlink:href="#linear-gradient-7"/><linearGradient id="linear-gradient-161" x1="6604.54" y1="1560.8" x2="6608.58" y2="1560.8" gradientTransform="translate(6931.82 -1222.55) rotate(153.38)" xlink:href="#linear-gradient-5"/><linearGradient id="linear-gradient-162" x1="6620.9" y1="1543.12" x2="6623.47" y2="1543.12" gradientTransform="translate(6931.82 -1222.55) rotate(153.38)" xlink:href="#linear-gradient-10"/><linearGradient id="linear-gradient-163" x1="6492.81" y1="1432.13" x2="6495.92" y2="1432.13" gradientTransform="translate(6931.82 -1222.55) rotate(153.38)" xlink:href="#linear-gradient-10"/><linearGradient id="linear-gradient-164" x1="6465.54" y1="1426.36" x2="6468.55" y2="1426.36" gradientTransform="translate(6931.82 -1222.55) rotate(153.38)" xlink:href="#linear-gradient-53"/><linearGradient id="linear-gradient-165" x1="6456.78" y1="1399.75" x2="6460.32" y2="1399.75" gradientTransform="translate(6931.82 -1222.55) rotate(153.38)" xlink:href="#linear-gradient-8"/><linearGradient id="linear-gradient-166" x1="6496.66" y1="1586.93" x2="6500.73" y2="1586.93" gradientTransform="translate(6931.82 -1222.55) rotate(153.38)" xlink:href="#linear-gradient-3"/><linearGradient id="linear-gradient-167" x1="6480.71" y1="1594.96" x2="6483.69" y2="1594.96" gradientTransform="translate(6931.82 -1222.55) rotate(153.38)" xlink:href="#linear-gradient-2"/><linearGradient id="linear-gradient-168" x1="6457.15" y1="1610.31" x2="6460.74" y2="1610.31" gradientTransform="translate(6931.82 -1222.55) rotate(153.38)" xlink:href="#linear-gradient-3"/><linearGradient id="linear-gradient-169" x1="6450.05" y1="1605.27" x2="6453.97" y2="1605.27" gradientTransform="translate(6931.82 -1222.55) rotate(153.38)" xlink:href="#linear-gradient-4"/><linearGradient id="linear-gradient-170" x1="716.38" y1="2046.8" x2="765.72" y2="2046.8" gradientTransform="translate(557.16 -1583.1) rotate(28.19)" xlink:href="#linear-gradient-53"/><linearGradient id="linear-gradient-171" x1="756.95" y1="1955.75" x2="761.83" y2="1988.62" gradientTransform="translate(557.16 -1583.1) rotate(28.19)" xlink:href="#linear-gradient-3"/><linearGradient id="linear-gradient-172" x1="722.37" y1="2074.07" x2="731.92" y2="2132.02" gradientTransform="translate(557.16 -1583.1) rotate(28.19)" xlink:href="#linear-gradient-3"/><linearGradient id="linear-gradient-173" x1="731.24" y1="2004.13" x2="758.55" y2="2043.43" gradientTransform="translate(557.16 -1583.1) rotate(28.19)" xlink:href="#linear-gradient-3"/><linearGradient id="linear-gradient-174" x1="2308.02" y1="-2238" x2="2273.62" y2="-2198.38" gradientTransform="translate(1334.24 3312.87) rotate(-58.27)" xlink:href="#linear-gradient-3"/><linearGradient id="linear-gradient-175" x1="2243.89" y1="-2216.74" x2="2364.57" y2="-2165.91" gradientTransform="translate(1334.24 3312.87) rotate(-58.27)" xlink:href="#linear-gradient-2"/><linearGradient id="linear-gradient-176" x1="2272.93" y1="-2211.54" x2="2272.93" y2="-2211.54" gradientTransform="translate(1279.72 3312.87) rotate(-58.27)" xlink:href="#linear-gradient-2"/><linearGradient id="linear-gradient-177" x1="1892.34" y1="-1940.37" x2="1857.94" y2="-1900.75" gradientTransform="translate(1334.24 3312.87) rotate(-58.27)" xlink:href="#linear-gradient-3"/><linearGradient id="linear-gradient-178" x1="1828.21" y1="-1919.1" x2="1948.89" y2="-1868.28" gradientTransform="translate(1334.24 3312.87) rotate(-58.27)" xlink:href="#linear-gradient-2"/><linearGradient id="linear-gradient-179" x1="1857.25" y1="-1913.91" x2="1857.25" y2="-1913.91" gradientTransform="translate(1279.72 3312.87) rotate(-58.27)" xlink:href="#linear-gradient-2"/><linearGradient id="linear-gradient-180" x1="712.35" y1="695.94" x2="748.75" y2="695.94" gradientTransform="matrix(0.95, 0.32, -0.48, 1.39, 175.07, -1168.01)" xlink:href="#linear-gradient-53"/><linearGradient id="linear-gradient-181" x1="712.77" y1="695.23" x2="748.3" y2="673.91" gradientTransform="matrix(0.95, 0.32, -0.48, 1.39, 175.07, -1168.01)" xlink:href="#linear-gradient"/><linearGradient id="linear-gradient-182" x1="727.31" y1="718.43" x2="740.46" y2="706.22" gradientTransform="matrix(0.95, 0.32, -0.48, 1.39, 175.07, -1168.01)" xlink:href="#linear-gradient"/><linearGradient id="linear-gradient-183" x1="1007.9" y1="1041.8" x2="1044.3" y2="1041.8" gradientTransform="matrix(0.95, 0.32, -0.48, 1.39, 175.07, -1168.01)" xlink:href="#linear-gradient-53"/><linearGradient id="linear-gradient-184" x1="1008.32" y1="1041.09" x2="1043.85" y2="1019.78" gradientTransform="matrix(0.95, 0.32, -0.48, 1.39, 175.07, -1168.01)" xlink:href="#linear-gradient"/><linearGradient id="linear-gradient-185" x1="1022.86" y1="1064.29" x2="1036.01" y2="1052.08" gradientTransform="matrix(0.95, 0.32, -0.48, 1.39, 175.07, -1168.01)" xlink:href="#linear-gradient"/><linearGradient id="linear-gradient-186" x1="4490.66" y1="-2007.95" x2="4547.48" y2="-2007.95" gradientTransform="translate(3878.28 3441.84) rotate(-115.95)" xlink:href="#linear-gradient-2"/><linearGradient id="linear-gradient-187" x1="4502.16" y1="-2029.63" x2="4541.7" y2="-2029.63" gradientTransform="translate(3878.28 3441.84) rotate(-115.95)" xlink:href="#linear-gradient-53"/><linearGradient id="linear-gradient-188" x1="4521.59" y1="-1962.81" x2="4505.23" y2="-1997.37" gradientTransform="translate(3878.28 3441.84) rotate(-115.95)" xlink:href="#linear-gradient-2"/><linearGradient id="linear-gradient-189" x1="4502.23" y1="-1984.39" x2="4535.62" y2="-1993.1" gradientTransform="translate(3878.28 3441.84) rotate(-115.95)" xlink:href="#linear-gradient-53"/><linearGradient id="linear-gradient-190" x1="4065.15" y1="-2124.18" x2="4121.96" y2="-2124.18" gradientTransform="translate(3878.28 3441.84) rotate(-115.95)" xlink:href="#linear-gradient-2"/><linearGradient id="linear-gradient-191" x1="4076.64" y1="-2145.86" x2="4116.18" y2="-2145.86" gradientTransform="translate(3878.28 3441.84) rotate(-115.95)" xlink:href="#linear-gradient-53"/><linearGradient id="linear-gradient-192" x1="4096.07" y1="-2079.04" x2="4079.71" y2="-2113.59" gradientTransform="translate(3878.28 3441.84) rotate(-115.95)" xlink:href="#linear-gradient-2"/><linearGradient id="linear-gradient-193" x1="4076.71" y1="-2100.62" x2="4110.1" y2="-2109.33" gradientTransform="translate(3878.28 3441.84) rotate(-115.95)" xlink:href="#linear-gradient-53"/><linearGradient id="linear-gradient-194" x1="837.39" y1="321.54" x2="883.79" y2="321.54" gradientTransform="matrix(1, 0, 0, 1, 0, 0)" xlink:href="#linear-gradient-4"/><linearGradient id="linear-gradient-195" x1="181.03" y1="737.4" x2="227.43" y2="737.4" gradientTransform="matrix(1, 0, 0, 1, 0, 0)" xlink:href="#linear-gradient-4"/><linearGradient id="linear-gradient-196" x1="677.94" y1="633.22" x2="724.34" y2="633.22" gradientTransform="matrix(1, 0, 0, 1, 0, 0)" xlink:href="#linear-gradient-4"/><linearGradient id="linear-gradient-197" x1="5909.43" y1="152.81" x2="5953.65" y2="152.81" gradientTransform="matrix(-0.91, 0.4, 0.4, 0.91, 5924.45, -2178.74)" xlink:href="#linear-gradient-4"/><linearGradient id="linear-gradient-198" x1="5918.37" y1="135.94" x2="5949.15" y2="135.94" gradientTransform="matrix(-0.91, 0.4, 0.4, 0.91, 5924.45, -2178.74)" xlink:href="#linear-gradient-10"/><linearGradient id="linear-gradient-199" x1="5933.5" y1="187.95" x2="5920.77" y2="161.05" gradientTransform="matrix(-0.91, 0.4, 0.4, 0.91, 5924.45, -2178.74)" xlink:href="#linear-gradient-4"/><linearGradient id="linear-gradient-200" x1="5918.43" y1="171.15" x2="5944.42" y2="164.37" gradientTransform="matrix(-0.91, 0.4, 0.4, 0.91, 5924.45, -2178.74)" xlink:href="#linear-gradient-10"/><linearGradient id="linear-gradient-201" x1="6472.36" y1="1672.17" x2="6506.8" y2="1672.17" gradientTransform="matrix(-0.86, 0.51, -0.51, -0.86, 7160.31, -1395.95)" xlink:href="#linear-gradient-8"/><linearGradient id="linear-gradient-202" x1="6480.91" y1="1653.54" x2="6494.42" y2="1636.02" gradientTransform="matrix(-0.86, 0.51, -0.51, -0.86, 7160.31, -1395.95)" xlink:href="#linear-gradient-10"/><linearGradient id="linear-gradient-203" x1="6475.86" y1="1664.38" x2="6496.93" y2="1659.76" gradientTransform="matrix(-0.86, 0.51, -0.51, -0.86, 7160.31, -1395.95)" xlink:href="#linear-gradient-10"/><linearGradient id="linear-gradient-204" x1="6482.67" y1="1694.01" x2="6482.71" y2="1694.01" gradientTransform="matrix(-0.86, 0.51, -0.51, -0.86, 7160.31, -1395.95)" gradientUnits="userSpaceOnUse"><stop offset="0" stop-color="#641311"/><stop offset="0.01" stop-color="#6d1312"/><stop offset="0.02" stop-color="#901217"/><stop offset="0.03" stop-color="#ae111b"/><stop offset="0.04" stop-color="#c4101e"/><stop offset="0.06" stop-color="#d40f20"/><stop offset="0.07" stop-color="#de0f22"/><stop offset="0.09" stop-color="#e10f22"/><stop offset="0.15" stop-color="#a10f1c"/><stop offset="0.23" stop-color="#500f14"/><stop offset="0.3" stop-color="#820f19"/><stop offset="0.37" stop-color="#ab0f1d"/><stop offset="0.44" stop-color="#c90f20"/><stop offset="0.5" stop-color="#db0f21"/><stop offset="0.54" stop-color="#e10f22"/><stop offset="0.77" stop-color="#621314"/><stop offset="0.77" stop-color="#661314"/><stop offset="0.81" stop-color="#9a111a"/><stop offset="0.85" stop-color="#c1101e"/><stop offset="0.88" stop-color="#d80f21"/><stop offset="0.89" stop-color="#e10f22"/><stop offset="0.91" stop-color="#de0f22"/><stop offset="0.93" stop-color="#d30f20"/><stop offset="0.95" stop-color="#c1101e"/><stop offset="0.97" stop-color="#a8111a"/><stop offset="0.99" stop-color="#881216"/><stop offset="1" stop-color="#641311"/></linearGradient><linearGradient id="linear-gradient-205" x1="6473.67" y1="1690.97" x2="6506.16" y2="1683.33" gradientTransform="matrix(-0.86, 0.51, -0.51, -0.86, 7160.31, -1395.95)" xlink:href="#linear-gradient-10"/><linearGradient id="linear-gradient-206" x1="4834.26" y1="-2704.95" x2="4854.12" y2="-2704.95" gradientTransform="translate(4429.74 4066.03) rotate(-107.67)" xlink:href="#linear-gradient-5"/><linearGradient id="linear-gradient-207" x1="4839.19" y1="-2715.7" x2="4846.98" y2="-2725.8" gradientTransform="translate(4429.74 4066.03) rotate(-107.67)" xlink:href="#linear-gradient-53"/><linearGradient id="linear-gradient-208" x1="4836.28" y1="-2709.45" x2="4848.43" y2="-2712.11" gradientTransform="translate(4429.74 4066.03) rotate(-107.67)" xlink:href="#linear-gradient-53"/><linearGradient id="linear-gradient-209" x1="4840.21" y1="-2692.36" x2="4840.23" y2="-2692.36" gradientTransform="translate(4429.74 4066.03) rotate(-107.67)" xlink:href="#linear-gradient-204"/><linearGradient id="linear-gradient-210" x1="4835.01" y1="-2694.11" x2="4853.76" y2="-2698.52" gradientTransform="translate(4429.74 4066.03) rotate(-107.67)" xlink:href="#linear-gradient-53"/></defs><title>2Recurso 3</title><g id="Capa_2" data-name="Capa 2"><g id="Capa_1-2" data-name="Capa 1"><g class="cls-2"><path class="cls-3" d="M585.62,393.11a18,18,0,0,1-4.42-10.49l6.23-2.62a18,18,0,0,0,4.41,10.49Z" transform="translate(-54.52)"/><path class="cls-4" d="M539.61,458.56a15.28,15.28,0,0,1-8.25-5.13l3-4.89a15.4,15.4,0,0,0,8.25,5.13Z" transform="translate(-54.52)"/><path class="cls-5" d="M460.11,447.88a25.08,25.08,0,0,1-15.44,3.53l-2.09-9.17A25,25,0,0,0,458,438.72Z" transform="translate(-54.52)"/><path class="cls-6" d="M423.86,413.74A28.86,28.86,0,0,1,408,404.69l2.68-5.22a28.86,28.86,0,0,0,15.86,9Z" transform="translate(-54.52)"/><path class="cls-7" d="M379.94,410.59a22.24,22.24,0,0,1-11.67,7.79l-4.62-6.93a22.14,22.14,0,0,0,11.66-7.78Z" transform="translate(-54.52)"/><path class="cls-8" d="M274.08,340c-4.51,4.94-21.72,10.1-21.72,10.1L249,344.23s17.21-5.17,21.72-10.1Z" transform="translate(-54.52)"/><path class="cls-9" d="M227.1,254.23a27,27,0,0,1-16.87-2.74l1.63-10a27,27,0,0,0,16.87,2.74Z" transform="translate(-54.52)"/><path class="cls-10" d="M195.13,164.57a23.7,23.7,0,0,1-14.9-1.93l1.15-8.84a23.72,23.72,0,0,0,14.89,1.94Z" transform="translate(-54.52)"/><path class="cls-11" d="M390.3,450.62c-9.48.1-41.91-5.58-41.91-5.58l2.73-4.19s32.44,5.68,41.92,5.57Z" transform="translate(-54.52)"/><path class="cls-12" d="M350.2,298.43c-10.77-2.1-22.55-11.54-22.55-11.54l2.53-4.88s11.78,9.44,22.55,11.54Z" transform="translate(-54.52)"/><path class="cls-13" d="M440.19,289.47a16.64,16.64,0,0,1-10.06-3.17l1.88-6a16.64,16.64,0,0,0,10.06,3.17Z" transform="translate(-54.52)"/><path class="cls-14" d="M523.14,379.76a15.68,15.68,0,0,1-1.89-9.74L527,368.9a15.69,15.69,0,0,0,1.89,9.74Z" transform="translate(-54.52)"/><path class="cls-15" d="M545.61,320.26a29.55,29.55,0,0,1-15.35-10.65l6.32-9.1a29.44,29.44,0,0,0,15.35,10.64Z" transform="translate(-54.52)"/><path class="cls-16" d="M586.66,250.44a28.24,28.24,0,0,1-9-15.41l9.14-5.34a28.22,28.22,0,0,0,9,15.41Z" transform="translate(-54.52)"/><path class="cls-17" d="M689.7,309.3a15.38,15.38,0,0,1-9.69-1.11l.66-5.76a15.44,15.44,0,0,0,9.7,1.12Z" transform="translate(-54.52)"/><path class="cls-18" d="M409.34,361a28.26,28.26,0,0,1-12.65,12.65l-7.5-7.51a28.25,28.25,0,0,0,12.65-12.64Z" transform="translate(-54.52)"/><path class="cls-19" d="M502,282a22.24,22.24,0,0,1-13.11,5l-3-7.78a22.14,22.14,0,0,0,13.11-5Z" transform="translate(-54.52)"/><path class="cls-20" d="M576.76,305.41a24.8,24.8,0,0,1-4.12-15.17l9-2.44A24.83,24.83,0,0,0,585.76,303Z" transform="translate(-54.52)"/><path class="cls-21" d="M721.82,247.64a22,22,0,0,1-11,8.47l-5-6.55a22,22,0,0,0,11-8.46Z" transform="translate(-54.52)"/><path class="cls-22" d="M816.43,159.91a26,26,0,0,1-16,3.87l-2.3-9.5a26,26,0,0,0,16-3.87Z" transform="translate(-54.52)"/><path class="cls-23" d="M366.68,350.12a25.21,25.21,0,0,1-11.28-11.31l6.71-6.69a25.25,25.25,0,0,0,11.29,11.31Z" transform="translate(-54.52)"/><path class="cls-24" d="M446.21,343.23a28.41,28.41,0,0,1-16.83-6.36l3.78-10A28.4,28.4,0,0,0,450,333.24Z" transform="translate(-54.52)"/><path class="cls-25" d="M452.89,317.68A28.79,28.79,0,0,1,445.44,301l9.88-4.42a28.79,28.79,0,0,0,7.45,16.66Z" transform="translate(-54.52)"/><path class="cls-26" d="M613.52,263.87a31.06,31.06,0,0,1-14.26,13.53l-8-8.46a31.06,31.06,0,0,0,14.26-13.53Z" transform="translate(-54.52)"/><path class="cls-27" d="M642.05,115.49a18.22,18.22,0,0,1-9.28,6.84l-4.06-5.51A18.19,18.19,0,0,0,638,110Z" transform="translate(-54.52)"/><path class="cls-28" d="M586.79,56.53a23,23,0,0,1-8,12.12l-7.19-4.78a23,23,0,0,0,8.05-12.12Z" transform="translate(-54.52)"/><path class="cls-29" d="M254.38,513.09a29.61,29.61,0,0,1-16.35-9.2l5.46-9.7a29.68,29.68,0,0,0,16.35,9.2Z" transform="translate(-54.52)"/><path class="cls-30" d="M390.6,519.74a28.75,28.75,0,0,1-11.41-14.18l8.42-6.77A28.7,28.7,0,0,0,399,513Z" transform="translate(-54.52)"/><path class="cls-31" d="M439.59,455.41a19.32,19.32,0,0,1-12.12,1.64l-1-7.2a19.27,19.27,0,0,0,12.13-1.64Z" transform="translate(-54.52)"/><path class="cls-32" d="M472.61,363.72a17.09,17.09,0,0,1-9.44,5.25l-3.11-5.6a17.07,17.07,0,0,0,9.44-5.26Z" transform="translate(-54.52)"/><path class="cls-33" d="M338.58,364.72a28.45,28.45,0,0,1-12.41,13.08l-7.76-7.36a28.51,28.51,0,0,0,12.41-13.08Z" transform="translate(-54.52)"/><path class="cls-34" d="M328.49,441.89a22,22,0,0,1-7.23,12l-7.1-4.29a22.12,22.12,0,0,0,7.23-12Z" transform="translate(-54.52)"/><path class="cls-35" d="M284.29,438.59A26.87,26.87,0,0,1,269.07,431l4.48-9a26.87,26.87,0,0,0,15.22,7.55Z" transform="translate(-54.52)"/><path class="cls-36" d="M203.36,492.4a15.2,15.2,0,0,1-8.17,5.09l-3-4.85a15.21,15.21,0,0,0,8.18-5.09Z" transform="translate(-54.52)"/><path class="cls-37" d="M92.79,445.19A16,16,0,0,1,90,435.53l5.73-1.69a15.93,15.93,0,0,0,2.84,9.66Z" transform="translate(-54.52)"/><path class="cls-38" d="M305.51,227a24.3,24.3,0,0,1-4.45-14.75l8.75-2.65a24.37,24.37,0,0,0,4.46,14.76Z" transform="translate(-54.52)"/><path class="cls-39" d="M214.51,133.29a23,23,0,0,1-10.25,10.36l-6.14-6.08a23,23,0,0,0,10.24-10.36Z" transform="translate(-54.52)"/><path class="cls-40" d="M482.44,343.77a25,25,0,0,1-15.75-1.3l.77-9.34a25,25,0,0,0,15.75,1.3Z" transform="translate(-54.52)"/><path class="cls-41" d="M466.48,252.41c-10.59,2.55-12.82-2.21-12.82-2.21l.42-3.95s2.23,4.76,12.82,2.21Z" transform="translate(-54.52)"/><path class="cls-42" d="M484.68,216.76a21.82,21.82,0,0,1-3.7-13.34l7.91-2.2a21.93,21.93,0,0,0,3.7,13.35Z" transform="translate(-54.52)"/><path class="cls-43" d="M524.62,166.77c-8.43-5.05-16.1-18.13-16.1-18.13l3.76-1.16s7.67,13.08,16.1,18.13Z" transform="translate(-54.52)"/><path class="cls-44" d="M140.12,187.29a12,12,0,0,1,7.5-1.07l.64,4.45a12,12,0,0,0-7.5,1.07Z" transform="translate(-54.52)"/><path class="cls-45" d="M162.11,235.86c9.76-4.85,13-.69,13-.69l.46,3.94s-3.23-4.15-13,.69Z" transform="translate(-54.52)"/><path class="cls-46" d="M152.29,274.66a21.86,21.86,0,0,1,6.58,12.19l-7.23,3.9a21.86,21.86,0,0,0-6.58-12.19Z" transform="translate(-54.52)"/><path class="cls-47" d="M124.46,332.28c9.34,3.05,19.73,14.1,19.73,14.1l-3.4,2s-10.39-11.05-19.74-14.1Z" transform="translate(-54.52)"/><path class="cls-48" d="M376.44,322.72a28.18,28.18,0,0,1-5.09-17.12l10.16-3a28.18,28.18,0,0,0,5.09,17.12Z" transform="translate(-54.52)"/><path class="cls-49" d="M485.45,293.66a20.33,20.33,0,0,1-9.73-8.42l5-5.77a20.28,20.28,0,0,0,9.73,8.41Z" transform="translate(-54.52)"/><path class="cls-50" d="M543.62,390.29a30.63,30.63,0,0,1-15.41,11.78l-7-9.15a30.63,30.63,0,0,0,15.42-11.78Z" transform="translate(-54.52)"/><path class="cls-51" d="M669.25,435.69a21.69,21.69,0,0,1-13.47,2.61l-1.54-8a21.64,21.64,0,0,0,13.47-2.6Z" transform="translate(-54.52)"/><path class="cls-52" d="M673.13,547.22c-11.33,1.61-34.29-5.78-34.29-5.78l2-11.45s23,7.39,34.28,5.78Z" transform="translate(-54.52)"/><path class="cls-53" d="M713.32,598.78a21.57,21.57,0,0,1-10.65-8.5l5.05-6.32a21.51,21.51,0,0,0,10.65,8.5Z" transform="translate(-54.52)"/><path class="cls-54" d="M702,133.52a23.65,23.65,0,0,1-14.94.41l-.24-8.87a23.55,23.55,0,0,0,14.94-.41Z" transform="translate(-54.52)"/><path class="cls-55" d="M570.5,122.33a25.62,25.62,0,0,1-5-15.43l9.16-3a25.65,25.65,0,0,0,5,15.43Z" transform="translate(-54.52)"/><path class="cls-56" d="M516,92a15.69,15.69,0,0,1-9.67,2.42l-1.44-5.73a15.74,15.74,0,0,0,9.67-2.43Z" transform="translate(-54.52)"/><path class="cls-57" d="M398.67,207.38a15.85,15.85,0,0,1-8.44,5.36l-3.18-5a15.77,15.77,0,0,0,8.44-5.36Z" transform="translate(-54.52)"/><path class="cls-58" d="M173.55,590a23.56,23.56,0,0,1-14.94.41l-.24-8.86a23.6,23.6,0,0,0,14.94-.42Z" transform="translate(-54.52)"/><path class="cls-59" d="M201.28,60.94a25.57,25.57,0,0,1-5-15.43l9.15-2.95a25.65,25.65,0,0,0,5,15.43Z" transform="translate(-54.52)"/><path class="cls-60" d="M862.56,479.65a15.74,15.74,0,0,1-9.67,2.43l-1.44-5.74a15.74,15.74,0,0,0,9.67-2.43Z" transform="translate(-54.52)"/><path class="cls-61" d="M789.92,78.85a15.85,15.85,0,0,1-8.44,5.36l-3.18-5a15.85,15.85,0,0,0,8.44-5.36Z" transform="translate(-54.52)"/><path class="cls-62" d="M811.64,302.64a19.34,19.34,0,0,1-10,7.07l-4.19-5.94a19.37,19.37,0,0,0,10-7.08Z" transform="translate(-54.52)"/><path class="cls-63" d="M753.91,367.58c-6.95-4.78-12.2-22.79-12.2-22.79l3.4-3.24s5.25,18,12.2,22.78Z" transform="translate(-54.52)"/><path class="cls-64" d="M713.84,213.52a22.23,22.23,0,0,1-14,1.7l-1-8.29a22.23,22.23,0,0,0,14-1.7Z" transform="translate(-54.52)"/><path class="cls-65" d="M127.3,556.27a10.8,10.8,0,0,1-6.81.83l-.49-4a10.8,10.8,0,0,0,6.81-.83Z" transform="translate(-54.52)"/><path class="cls-66" d="M571.05,233.86c-3.44,8.68-14.34,20.19-14.34,20.19l-3.66-3.93S564,238.61,567.4,229.93Z" transform="translate(-54.52)"/><path class="cls-67" d="M698.65,22.06c-7.33,4.19-21.54,6.17-21.54,6.17l-.36-4.84s14.21-2,21.54-6.17Z" transform="translate(-54.52)"/><path class="cls-68" d="M577,172.33a20.29,20.29,0,0,1-12.78,1.09l-.64-7.58a20.26,20.26,0,0,0,12.77-1.09Z" transform="translate(-54.52)"/><path class="cls-69" d="M499,236.61a20.46,20.46,0,0,1-7.22,10.78l-6.39-4.29a20.52,20.52,0,0,0,7.22-10.77Z" transform="translate(-54.52)"/><path class="cls-70" d="M448.27,545.24a19.38,19.38,0,0,1-10,7.07l-4.2-5.94a19.39,19.39,0,0,0,10-7.07Z" transform="translate(-54.52)"/><path class="cls-71" d="M617.2,457.84c-3.43,8.67-14.34,20.19-14.34,20.19l-3.66-3.93s10.91-11.52,14.35-20.19Z" transform="translate(-54.52)"/><path class="cls-72" d="M446.44,114.87c-3.53,2.35-15.1,4-15.1,4l-.49-1.73s11.35-2.46,14.89-4.82Z" transform="translate(-54.52)"/><path class="cls-73" d="M439.62,197.71a17.54,17.54,0,0,1-4.91-10l3-1.46a17.64,17.64,0,0,0,4.92,10Z" transform="translate(-54.52)"/><path class="cls-74" d="M358.09,209.94a17.25,17.25,0,0,1-9.68,5.09l-3-5.74a17.24,17.24,0,0,0,9.67-5.09Z" transform="translate(-54.52)"/><rect class="cls-75" x="418.62" y="211.84" width="6.59" height="9.78" transform="translate(-8.56 505.94) rotate(-64.76)"/><path class="cls-76" d="M425.27,221.09a15.45,15.45,0,0,1-8.85-4.18l2.48-5.25a15.44,15.44,0,0,0,8.84,4.18Z" transform="translate(-54.52)"/><rect class="cls-77" x="530.85" y="136.51" width="8.43" height="12.52" transform="translate(150.81 587.68) rotate(-68.4)"/><path class="cls-78" d="M539.7,148.06a19.77,19.77,0,0,1-11.64-4.61l2.73-6.9a19.77,19.77,0,0,0,11.64,4.6Z" transform="translate(-54.52)"/><path class="cls-79" d="M167.55,400a16.67,16.67,0,0,1-7.55-7.38l4.37-4.47a16.68,16.68,0,0,0,7.55,7.37Z" transform="translate(-54.52)"/><path class="cls-80" d="M235.35,301.85a23.88,23.88,0,0,1-15,1.64l-1-8.91a23.85,23.85,0,0,0,15-1.64Z" transform="translate(-54.52)"/><path class="cls-81" d="M229.87,204.43a29.49,29.49,0,0,1-13.13,13.31l-7.9-7.79A29.56,29.56,0,0,0,222,196.64Z" transform="translate(-54.52)"/><path class="cls-82" d="M532.39,491a21.89,21.89,0,0,1-6-12.48l7.41-3.55a21.83,21.83,0,0,0,6,12.48Z" transform="translate(-54.52)"/><path class="cls-83" d="M715.23,496.66a23.24,23.24,0,0,1-11.89-8.61l5.11-7.05a23.13,23.13,0,0,0,11.89,8.6Z" transform="translate(-54.52)"/><path class="cls-84" d="M774.36,422.29a22.92,22.92,0,0,1-1.86-14.39l8.54-1.11a22.92,22.92,0,0,0,1.86,14.39Z" transform="translate(-54.52)"/><path class="cls-85" d="M397.6,135.07a23.26,23.26,0,0,1-9.32-11.34L395,118.2a23.19,23.19,0,0,0,9.32,11.34Z" transform="translate(-54.52)"/><path class="cls-86" d="M457.74,89.82a23,23,0,0,1,1.84-14.39l8.54,1.1a22.87,22.87,0,0,0-1.84,14.39Z" transform="translate(-54.52)"/><path class="cls-87" d="M473.58,172.3a21.13,21.13,0,0,1-5.94-12l7.11-3.52a21.08,21.08,0,0,0,5.94,12Z" transform="translate(-54.52)"/><path class="cls-88" d="M321.22,135.22A20.6,20.6,0,0,1,308.86,131l2.5-7.34a20.68,20.68,0,0,0,12.36,4.23Z" transform="translate(-54.52)"/><path class="cls-89" d="M488.68,572.41a20.76,20.76,0,0,1-5.4-12l7.11-3.21a20.79,20.79,0,0,0,5.41,12Z" transform="translate(-54.52)"/><path class="cls-90" d="M399.37,629.8a20.47,20.47,0,0,1-11.56,5.9l-3.5-6.86a20.47,20.47,0,0,0,11.56-5.9Z" transform="translate(-54.52)"/><path class="cls-91" d="M370.92,604.6A24.3,24.3,0,0,1,361.84,617l-7.38-5.39a24.31,24.31,0,0,0,9.08-12.43Z" transform="translate(-54.52)"/><path class="cls-92" d="M290.15,400.16a4.23,4.23,0,0,1,2.05,1.77l-1,1.22a4.24,4.24,0,0,0-2.06-1.76Z" transform="translate(-54.52)"/><path class="cls-93" d="M293,381.33a3.72,3.72,0,0,1,2.3.21l-.13,1.37a3.61,3.61,0,0,0-2.3-.21Z" transform="translate(-54.52)"/><path class="cls-94" d="M311,375.13a6,6,0,0,1,2.91-2.4l1.42,1.73a6,6,0,0,0-2.91,2.39Z" transform="translate(-54.52)"/><path class="cls-95" d="M324.43,377.72a6.89,6.89,0,0,1,4.34.23l-.14,2.58a6.85,6.85,0,0,0-4.34-.24Z" transform="translate(-54.52)"/><path class="cls-96" d="M332.05,374.51a5.22,5.22,0,0,1,1.65-2.9l1.72,1a5.29,5.29,0,0,0-1.65,2.9Z" transform="translate(-54.52)"/><path class="cls-97" d="M356.44,368.44a4.27,4.27,0,0,1,2.66.56l-.33,1.58a4.28,4.28,0,0,0-2.67-.56Z" transform="translate(-54.52)"/><path class="cls-98" d="M381.24,391.49a6.39,6.39,0,0,1,3.88-1.22l.72,2.3a6.47,6.47,0,0,0-3.88,1.22Z" transform="translate(-54.52)"/><path class="cls-99" d="M397.6,407.15A5.64,5.64,0,0,1,401,406l.7,2a5.69,5.69,0,0,0-3.38,1.18Z" transform="translate(-54.52)"/><rect class="cls-100" x="685.64" y="351.55" width="4.12" height="2.77" transform="translate(-132.98 455.43) rotate(-34.79)"/><path class="cls-101" d="M685.41,353.25a6.43,6.43,0,0,1,3.38-2.35l1.39,2a6.55,6.55,0,0,0-3.38,2.35Z" transform="translate(-54.52)"/><path class="cls-102" d="M714.75,375.07a7.1,7.1,0,0,1,4.14-1.69l1,2.45a7.07,7.07,0,0,0-4.14,1.7Z" transform="translate(-54.52)"/><path class="cls-103" d="M701.66,393.89a4,4,0,0,1,2.09-1.4l.82,1.24a4,4,0,0,0-2.08,1.4Z" transform="translate(-54.52)"/><path class="cls-104" d="M672.54,395.85a3.76,3.76,0,0,1,2.09,1.1l-.65,1.24a3.76,3.76,0,0,0-2.09-1.1Z" transform="translate(-54.52)"/><path class="cls-105" d="M680.25,408.88a7,7,0,0,1,4.26-1.26l.75,2.53a7,7,0,0,0-4.26,1.26Z" transform="translate(-54.52)"/><path class="cls-106" d="M687.1,426.9a6.7,6.7,0,0,1,4.2.62l-.37,2.5a6.66,6.66,0,0,0-4.2-.63Z" transform="translate(-54.52)"/><path class="cls-107" d="M660.83,437.27a3.66,3.66,0,0,1,1.65-1.63l1,1a3.66,3.66,0,0,0-1.65,1.63Z" transform="translate(-54.52)"/><path class="cls-108" d="M468.49,457.84a6.69,6.69,0,0,1,1.35-4l2.39.79a6.76,6.76,0,0,0-1.34,4Z" transform="translate(-54.52)"/><path class="cls-109" d="M457.2,484.51a5.28,5.28,0,0,1,2.25-2.47l1.46,1.34a5.28,5.28,0,0,0-2.25,2.47Z" transform="translate(-54.52)"/><path class="cls-110" d="M438.79,487.51a5.92,5.92,0,0,1,2.5,2.79l-1.66,1.48a5.86,5.86,0,0,0-2.49-2.79Z" transform="translate(-54.52)"/><path class="cls-111" d="M414.09,515.27a5.29,5.29,0,0,1,1.44-3l1.77.86a5.22,5.22,0,0,0-1.45,3Z" transform="translate(-54.52)"/><path class="cls-112" d="M403.31,544a6.16,6.16,0,0,1,3-2.53l1.5,1.77a6.23,6.23,0,0,0-3,2.53Z" transform="translate(-54.52)"/><path class="cls-113" d="M557,159.27a6,6,0,0,1,3.61,1.21l-.72,2.14a6,6,0,0,0-3.6-1.21Z" transform="translate(-54.52)"/><path class="cls-114" d="M540.79,169.22a6.77,6.77,0,0,1,4.26-.44l.26,2.53a6.74,6.74,0,0,0-4.25.44Z" transform="translate(-54.52)"/><path class="cls-115" d="M542.1,175.37a6.84,6.84,0,0,1,3.36,2.75l-1.63,2a6.9,6.9,0,0,0-3.36-2.75Z" transform="translate(-54.52)"/><path class="cls-116" d="M513.65,204a7.45,7.45,0,0,1,1.59-4.4l2.62.94a7.37,7.37,0,0,0-1.59,4.4Z" transform="translate(-54.52)"/><path class="cls-117" d="M523.41,238.56a4.32,4.32,0,0,1,1.24-2.44l1.45.74a4.32,4.32,0,0,0-1.24,2.44Z" transform="translate(-54.52)"/><path class="cls-118" d="M541.45,245.22a5.51,5.51,0,0,1,.42-3.44l2,.25a5.51,5.51,0,0,0-.42,3.44Z" transform="translate(-54.52)"/><path class="cls-119" d="M416.62,162a7,7,0,0,1,4.46.22l-.12,2.64a7.1,7.1,0,0,0-4.46-.21Z" transform="translate(-54.52)"/><path class="cls-120" d="M386.93,175.1a6.89,6.89,0,0,1,3.94,1.81l-1.07,2.33a6.84,6.84,0,0,0-3.94-1.8Z" transform="translate(-54.52)"/><path class="cls-121" d="M383.36,194a4.55,4.55,0,0,1,2.41-1.64l1,1.42a4.62,4.62,0,0,0-2.4,1.64Z" transform="translate(-54.52)"/><path class="cls-122" d="M386.11,217.05a4.14,4.14,0,0,1,1.45-2.13l1.26.86a4.14,4.14,0,0,0-1.45,2.13Z" transform="translate(-54.52)"/><path class="cls-123" d="M556.39,451.42a6.77,6.77,0,0,1,1.24-4.11l2.44.74a6.81,6.81,0,0,0-1.25,4.11Z" transform="translate(-54.52)"/><path class="cls-124" d="M550.3,433.92a5.24,5.24,0,0,1,.27-3.32l2,.16a5.24,5.24,0,0,0-.27,3.32Z" transform="translate(-54.52)"/><path class="cls-125" d="M560.06,429.91a6.39,6.39,0,0,1,4.05,0v2.4a6.39,6.39,0,0,0-4,0Z" transform="translate(-54.52)"/><path class="cls-126" d="M571.54,409.83a3.64,3.64,0,0,1,1.2-1.95l1.16.71a3.64,3.64,0,0,0-1.2,2Z" transform="translate(-54.52)"/><path class="cls-127" d="M600.11,408.09a3.78,3.78,0,0,1,1.63,1.75l-1,1a3.78,3.78,0,0,0-1.63-1.75Z" transform="translate(-54.52)"/><path class="cls-128" d="M513.49,375.34A5.8,5.8,0,0,1,516,378l-1.58,1.5a5.75,5.75,0,0,0-2.52-2.66Z" transform="translate(-54.52)"/><path class="cls-129" d="M542.85,385.57a5.46,5.46,0,0,1,1.07-3.3l2,.64a5.5,5.5,0,0,0-1.08,3.3Z" transform="translate(-54.52)"/><path class="cls-130" d="M490.43,335.48a6,6,0,0,1,3.49-1.4l.83,2.07a6,6,0,0,0-3.48,1.4Z" transform="translate(-54.52)"/><path class="cls-131" d="M502.43,354a7,7,0,0,1,4.11-1.68l1,2.44a7,7,0,0,0-4.11,1.68Z" transform="translate(-54.52)"/><path class="cls-132" d="M503.5,362.75a5.18,5.18,0,0,1,2.21,2.44l-1.45,1.31a5.18,5.18,0,0,0-2.21-2.44Z" transform="translate(-54.52)"/><path class="cls-133" d="M498.75,378.44a6.28,6.28,0,0,1,3.71,1.51l-.9,2.2a6.33,6.33,0,0,0-3.71-1.52Z" transform="translate(-54.52)"/><path class="cls-134" d="M436.35,258.56a6.68,6.68,0,0,1,2.91,3.1l-1.84,1.72a6.68,6.68,0,0,0-2.91-3.1Z" transform="translate(-54.52)"/><path class="cls-135" d="M416.26,276.37a4.83,4.83,0,0,1,3,.75l-.45,1.76a4.83,4.83,0,0,0-3-.75Z" transform="translate(-54.52)"/><path class="cls-136" d="M393.57,262a7.29,7.29,0,0,1,2-4.15l2.46,1.2a7.31,7.31,0,0,0-2,4.15Z" transform="translate(-54.52)"/><path class="cls-137" d="M362,265.74a5.16,5.16,0,0,1,2.59-2l1.18,1.54a5.16,5.16,0,0,0-2.59,2Z" transform="translate(-54.52)"/><path class="cls-138" d="M352.73,241.34A7.35,7.35,0,0,1,357.2,240l.79,2.65a7.33,7.33,0,0,0-4.46,1.34Z" transform="translate(-54.52)"/><path class="cls-139" d="M335.23,235.74a5.12,5.12,0,0,1,3.18.67l-.4,1.88a5.2,5.2,0,0,0-3.18-.67Z" transform="translate(-54.52)"/><path class="cls-140" d="M439.1,437.5a5.59,5.59,0,0,1,3.13-1.68l1,1.86a5.6,5.6,0,0,0-3.14,1.68Z" transform="translate(-54.52)"/><path class="cls-141" d="M468.27,425.86a6.08,6.08,0,0,1,2.7,2.76l-1.63,1.6a6.1,6.1,0,0,0-2.71-2.75Z" transform="translate(-54.52)"/><path class="cls-142" d="M483.1,426.49a3.77,3.77,0,0,1,1.8-1.54l.92,1.06a3.78,3.78,0,0,0-1.8,1.55Z" transform="translate(-54.52)"/><path class="cls-143" d="M495.76,389.44a3.76,3.76,0,0,1,1.22-2l1.22.73a3.69,3.69,0,0,0-1.23,2Z" transform="translate(-54.52)"/><path class="cls-144" d="M188,269.33a4.56,4.56,0,0,1,1.38-2.57l1.52.82a4.58,4.58,0,0,0-1.37,2.57Z" transform="translate(-54.52)"/><path class="cls-145" d="M193.31,249.36a5.38,5.38,0,0,1,3.09,1.49l-.89,1.84a5.42,5.42,0,0,0-3.09-1.5Z" transform="translate(-54.52)"/><path class="cls-146" d="M218.26,277.87a5.28,5.28,0,0,1,2.8-1.86l1.1,1.66a5.3,5.3,0,0,0-2.8,1.85Z" transform="translate(-54.52)"/><path class="cls-147" d="M244.83,254.59a6,6,0,0,1,.85-3.7l2.2.5a6,6,0,0,0-.85,3.71Z" transform="translate(-54.52)"/><path class="cls-148" d="M251.78,272a4.83,4.83,0,0,1,2.61-1.59l.94,1.54a4.81,4.81,0,0,0-2.6,1.6Z" transform="translate(-54.52)"/><path class="cls-149" d="M261.52,250a4.82,4.82,0,0,1,.39-3.06l1.81.23a4.86,4.86,0,0,0-.38,3.06Z" transform="translate(-54.52)"/><path class="cls-150" d="M589.51,334.48a5.12,5.12,0,0,1,2.79,1.66l-1,1.66a5.12,5.12,0,0,0-2.79-1.66Z" transform="translate(-54.52)"/><path class="cls-151" d="M613.18,326.6a5.29,5.29,0,0,1,3.05,1.4l-.83,1.81a5.33,5.33,0,0,0-3-1.41Z" transform="translate(-54.52)"/><path class="cls-152" d="M595.14,288.05a4.07,4.07,0,0,1,1.51-2.11l1.26.89a4.11,4.11,0,0,0-1.52,2.12Z" transform="translate(-54.52)"/><rect class="cls-153" x="488.65" y="389.15" width="2.33" height="1.57" transform="translate(-63.74 11.87) rotate(-1.38)"/><path class="cls-154" d="M488.64,389.36a3.66,3.66,0,0,1,2.33-.05l0,1.38a3.65,3.65,0,0,0-2.33.05Z" transform="translate(-54.52)"/><rect class="cls-155" x="472.14" y="416.73" width="2.98" height="2.01" transform="matrix(1, -0.09, 0.09, 1, -89.23, 43.01)"/><path class="cls-156" d="M472.08,417.1a4.7,4.7,0,0,1,3-.26l.15,1.76a4.7,4.7,0,0,0-3,.26Z" transform="translate(-54.52)"/><rect class="cls-157" x="502.79" y="421.62" width="2.9" height="1.95" transform="translate(-114.83 760.42) rotate(-70.86)"/><path class="cls-158" d="M503.06,423.72A4.63,4.63,0,0,1,504,421l1.63.57a4.51,4.51,0,0,0-.95,2.73Z" transform="translate(-54.52)"/><path class="cls-159" d="M561.08,277.53a3.92,3.92,0,0,1,2.39.76l-.45,1.42a3.92,3.92,0,0,0-2.39-.76Z" transform="translate(-54.52)"/><path class="cls-160" d="M567.54,306.1a5.63,5.63,0,0,1,3-2l1.15,1.79a5.66,5.66,0,0,0-3,1.95Z" transform="translate(-54.52)"/><path class="cls-161" d="M568.67,325.77a7,7,0,0,1,1.37-4.23l2.52.82a7,7,0,0,0-1.38,4.23Z" transform="translate(-54.52)"/><path class="cls-162" d="M364.27,322.25a5.16,5.16,0,0,1,2.6,2l-1.19,1.54a5.27,5.27,0,0,0-2.61-2Z" transform="translate(-54.52)"/><path class="cls-163" d="M324.76,340.53a5.53,5.53,0,0,1,3.44.57l-.33,2a5.51,5.51,0,0,0-3.45-.56Z" transform="translate(-54.52)"/><path class="cls-164" d="M320.1,362.66a5.52,5.52,0,0,1,1.94,2.87l-1.7,1.14a5.49,5.49,0,0,0-1.93-2.86Z" transform="translate(-54.52)"/><path class="cls-165" d="M483.56,404.89a5,5,0,0,1,2.54,1.92L485,408.32a5.06,5.06,0,0,0-2.55-1.92Z" transform="translate(-54.52)"/><path class="cls-166" d="M509.9,398.86a4.1,4.1,0,0,1,2.61-.21l.12,1.54a4.15,4.15,0,0,0-2.61.22Z" transform="translate(-54.52)"/><path class="cls-167" d="M529.12,418.81a4.89,4.89,0,0,1,3.08-.42l.25,1.83a4.92,4.92,0,0,0-3.08.41Z" transform="translate(-54.52)"/><path class="cls-168" d="M409.26,269.13a5.56,5.56,0,0,1,3.52-.05l0,2.09a5.54,5.54,0,0,0-3.51.05Z" transform="translate(-54.52)"/><path class="cls-169" d="M421.56,253.88a4.92,4.92,0,0,1,2.43,2l-1.17,1.45a5,5,0,0,0-2.43-2Z" transform="translate(-54.52)"/><path class="cls-170" d="M434.44,232.14a4.85,4.85,0,0,1,1.83-2.48l1.48,1.08a4.9,4.9,0,0,0-1.83,2.49Z" transform="translate(-54.52)"/><path class="cls-171" d="M443.19,234.47a5.73,5.73,0,0,1,.6-3.61l2.15.36a5.77,5.77,0,0,0-.61,3.61Z" transform="translate(-54.52)"/><path class="cls-172" d="M267.34,562.63C264,557,260.25,551.2,257.93,545a14.19,14.19,0,0,1-.64-8.54,14.65,14.65,0,0,1,4.45-6.88,19.82,19.82,0,0,1,3-2.25l2-.44c1.6-.33,3.22-.61,4.83-.9,8.2-1.48,16.55-3.79,23.76-8.07,4.62-2.74,8.86-7.13,9.32-12.73a12.44,12.44,0,0,0,0-1.93c0-.36-5.28,1.48-5.55,1.59-1.27.49-2.52,1-3.74,1.6-.09,0-1.47.62-1.44.95.49,5.49-3,10.35-7.44,13.25a2.61,2.61,0,0,1-.28.17l-1.44.33c-3.08.66-6.7,2-9.78,2.68-4.53.94-8.45,1.45-12.72,3.2a40.71,40.71,0,0,0-9.88,5.4c-4.54,3.57-7.11,8.87-5.76,14.64a38.81,38.81,0,0,0,3.72,8.64c1.63,3.16,3.38,6.25,5.22,9.28,2.51,4.12,6.3,9.88,2.7,14.52l0,.06a90.48,90.48,0,0,1-9.17-.06c-6.49-.21-13-.49-19.46.44a56.75,56.75,0,0,0-12.26,3.39c-3.88,1.49-8,3.17-11,6.14-4.56,4.54-5.57,11.46-5.66,17.6-.08,6.45.68,13-1.15,19.27a25.59,25.59,0,0,1-10.83,14.35l-.64.38c.1-.06-1.14.61-.39.58a10.91,10.91,0,0,0,2.57-.66,38.54,38.54,0,0,0,7.27-3,27.8,27.8,0,0,0,12-13.68c2.44-6,2-12.65,1.89-19s.35-13.25,4.37-18.41a14.16,14.16,0,0,1,2.6-2.53,53.34,53.34,0,0,1,7.13-.73c6.51-.31,13,.24,19.52.26a35,35,0,0,0,9.22-1.16,62.44,62.44,0,0,0,8.66-3.19,19.54,19.54,0,0,0,4.94-2.88C272.34,572.7,269.87,566.86,267.34,562.63Z" transform="translate(-54.52)"/><path class="cls-173" d="M286.9,520.3c-.56.62-1.1,1.26-1.7,1.84-.21.2-.43.39-.65.58a56.25,56.25,0,0,0,10.76-4.83c4.62-2.74,8.86-7.13,9.32-12.73a12.44,12.44,0,0,0,0-1.93c0-.36-5.28,1.48-5.55,1.59-1.27.49-2.52,1-3.74,1.6-.09,0-1.47.62-1.44.95C294.34,512.66,291.12,517.37,286.9,520.3Z" transform="translate(-54.52)"/><path class="cls-174" d="M211.38,605.26c-.09-6.28.35-13.25,4.37-18.41a14.16,14.16,0,0,1,2.6-2.53l.24,0a18.18,18.18,0,0,1,2.88-2.45c-1.41.45-2.81.94-4.2,1.48-3.88,1.49-8,3.17-11,6.14-4.56,4.54-5.57,11.46-5.66,17.6-.08,6.45.68,13-1.15,19.27a25.59,25.59,0,0,1-10.83,14.35l-.64.38c.1-.06-1.14.61-.39.58a10.91,10.91,0,0,0,2.57-.66,38.54,38.54,0,0,0,7.27-3,27.8,27.8,0,0,0,12-13.68C211.93,618.24,211.47,611.63,211.38,605.26Z" transform="translate(-54.52)"/><path class="cls-175" d="M267.34,562.63C264,557,260.25,551.2,257.93,545a14.19,14.19,0,0,1-.64-8.54,14.65,14.65,0,0,1,4.45-6.88,19,19,0,0,1,2.41-1.88,11.92,11.92,0,0,0-4.12.27,35.84,35.84,0,0,0-7.7,4.46c-4.54,3.57-7.11,8.87-5.76,14.64a38.81,38.81,0,0,0,3.72,8.64c1.63,3.16,3.38,6.25,5.22,9.28,2.37,3.89,5.88,9.25,3.22,13.74a2.44,2.44,0,0,1,.6,2.28c1.2-.47,2.38-1,3.55-1.48a19.54,19.54,0,0,0,4.94-2.88C272.34,572.7,269.87,566.86,267.34,562.63Z" transform="translate(-54.52)"/><path class="cls-176" d="M626.39,191.5c-1.43,15,7,29,23.42,27.54,12.44-1.13,25.56-2.93,30.42-16.44-.48,1.34-9.84-.43-10.37,1A23,23,0,0,1,660.93,215a26,26,0,0,1-6.76,3.13c-2.38.58-1.92.58,1.36,0a21.48,21.48,0,0,1-4.83-.86c-11.45-3.05-14.91-16.56-13.94-26.8,0,.6-10.3.3-10.37,1.05Z" transform="translate(-54.52)"/><path class="cls-177" d="M680.23,202.6c-.48,1.34-9.84-.43-10.37,1A23,23,0,0,1,660.93,215a25.23,25.23,0,0,1-6.3,3l2.17.33C666.87,216.83,676.28,213.58,680.23,202.6Z" transform="translate(-54.52)"/><polygon class="cls-178" points="593.91 216.47 593.91 216.47 593.92 216.47 593.91 216.47"/><path class="cls-179" d="M661,701.6c-1.43,15,7,29,23.42,27.55,12.44-1.14,25.57-2.94,30.42-16.45-.48,1.34-9.84-.43-10.37,1a22.93,22.93,0,0,1-8.93,11.33,26,26,0,0,1-6.76,3.13q-3.56.87,1.36,0a21.48,21.48,0,0,1-4.83-.86c-11.45-3-14.91-16.55-13.93-26.8-.06.6-10.31.3-10.38,1.05Z" transform="translate(-54.52)"/><path class="cls-180" d="M714.79,712.7c-.48,1.34-9.84-.43-10.37,1a22.93,22.93,0,0,1-8.93,11.33,24.88,24.88,0,0,1-6.3,3c.67.12,1.4.23,2.17.33C701.43,726.93,710.84,723.68,714.79,712.7Z" transform="translate(-54.52)"/><polygon class="cls-181" points="628.48 726.57 628.48 726.57 628.48 726.57 628.48 726.57"/><path class="cls-182" d="M561.43,13.47a27.19,27.19,0,0,0-.31-5.31,6.78,6.78,0,0,0-1-3.17,4.58,4.58,0,0,0-2.27-1.4q-1.58-.57-3.18-1a34.45,34.45,0,0,0-6.33-1.16c-5.07-.45-10.61.93-15.2-1.41,0,.1-.09.21-.14.31a7.14,7.14,0,0,0,1.74,4.25,9.43,9.43,0,0,0,5.39,2.16,50.27,50.27,0,0,0,6.4.28A34.83,34.83,0,0,1,559,9.54a3.74,3.74,0,0,1,1.38.91l-.15.44a10.57,10.57,0,0,1-4.07,5c-3.67,2.52-7.84,3-11.49,3.19-3.9.18-7.7-.22-11.57-.15a32.83,32.83,0,0,0-5.86.6,11.54,11.54,0,0,0-5.6,2.65,10.4,10.4,0,0,0-3.22,6.28,23.48,23.48,0,0,0,.19,5.06,13.22,13.22,0,0,0,.84,3.79,9.17,9.17,0,0,0,3.15,3.57c1.65,1.25,3.32,2.42,4.93,3.74s3.33,2.87,4.92,4.43a12.12,12.12,0,0,1,1.95,2.34c.08.14.16.28.23.42-1.13,4.08-5.4,5.15-7.86,6.41a8.73,8.73,0,0,0-3.93,3.7c-1.2,2.24-1.2,5-1.54,7.34a14.57,14.57,0,0,0,.17,3.58c.07.56.13,1.13.25,1.66,0,0,.12.61.18.22.39-2.72.38-5.63,2-8a10.4,10.4,0,0,1,4.83-3.45,13,13,0,0,0,5-3.21c1.85-2.08,1.92-4.79,1.76-7.29-.19-3.14-.6-5.9-2.18-7.91a33.48,33.48,0,0,0-4.47-4.37c-1.66-1.46-3.38-2.83-5.13-4.12A17.37,17.37,0,0,1,519.79,33c-.15-.2-.29-.42-.43-.65A10.25,10.25,0,0,1,525,26.12a18.32,18.32,0,0,1,5.81-1.28,49.21,49.21,0,0,1,5.81-.14,73.54,73.54,0,0,0,11.58-.13c3.52-.47,7.95-1.49,11-5.27A10.51,10.51,0,0,0,561.43,13.47Z" transform="translate(-54.52)"/><path class="cls-183" d="M561.43,13.47a27.19,27.19,0,0,0-.31-5.31c0-.17,0-.34-.07-.51a10.86,10.86,0,0,1-.75,2.7l.1.1-.15.44a10.57,10.57,0,0,1-4.07,5c-3.67,2.52-7.84,3-11.49,3.19-3.9.18-7.7-.22-11.57-.15a32.83,32.83,0,0,0-5.86.6,11.54,11.54,0,0,0-5.6,2.65,10.4,10.4,0,0,0-3.22,6.28,23.48,23.48,0,0,0,.19,5.06c0,.37.09.72.14,1.08,0-.19,0-.38.05-.57a5.71,5.71,0,0,1,.69-2.16,9.82,9.82,0,0,1,.56-1.23A9.92,9.92,0,0,1,525,26.12a18.32,18.32,0,0,1,5.81-1.28,49.21,49.21,0,0,1,5.81-.14,73.54,73.54,0,0,0,11.58-.13c3.52-.47,7.95-1.49,11-5.27A10.51,10.51,0,0,0,561.43,13.47Z" transform="translate(-54.52)"/><path class="cls-184" d="M535.5,52.79a29.07,29.07,0,0,0-.36-3.4c0,.1,0,.21-.08.31a6.51,6.51,0,0,1-.43,2.12l0,0c-1.13,4.08-5.4,5.15-7.86,6.41a8.73,8.73,0,0,0-3.93,3.7c-1.1,2-1.19,4.5-1.46,6.73,0,.28-.15,1-.14,1.43,0,2.15.51,5.34.66,4.64,1.13-5.25,2.36-8.84,3-9.21a12.76,12.76,0,0,1,3.81-2.27,13,13,0,0,0,5-3.21C535.59,58,535.66,55.28,535.5,52.79Z" transform="translate(-54.52)"/><path class="cls-185" d="M676.15,590.64a29,29,0,0,0-.31-5.32,6.71,6.71,0,0,0-1-3.17,4.58,4.58,0,0,0-2.27-1.4c-1-.38-2.1-.71-3.17-1a34.57,34.57,0,0,0-6.34-1.17c-5.07-.45-10.61.94-15.2-1.41,0,.11-.09.21-.13.32a7.19,7.19,0,0,0,1.73,4.25,9.59,9.59,0,0,0,5.39,2.16,52.36,52.36,0,0,0,6.41.27,34.93,34.93,0,0,1,12.48,2.55,3.89,3.89,0,0,1,1.37.9c0,.15-.09.3-.14.44a10.61,10.61,0,0,1-4.08,5.06c-3.66,2.51-7.84,3-11.49,3.18-3.9.18-7.69-.21-11.57-.14a32.6,32.6,0,0,0-5.85.59,11.5,11.5,0,0,0-5.6,2.65,10.32,10.32,0,0,0-3.22,6.28,22.38,22.38,0,0,0,.19,5.07,13.08,13.08,0,0,0,.83,3.78,9.23,9.23,0,0,0,3.16,3.58c1.64,1.25,3.31,2.42,4.92,3.74s3.33,2.87,4.93,4.42a12.46,12.46,0,0,1,1.94,2.35,4.16,4.16,0,0,1,.23.42c-1.13,4.07-5.4,5.15-7.86,6.4a8.82,8.82,0,0,0-3.92,3.7c-1.21,2.24-1.21,5-1.55,7.35a28.19,28.19,0,0,0,.42,5.23c0-.05.13.62.18.22.39-2.72.38-5.63,2-8a10.36,10.36,0,0,1,4.83-3.46,13,13,0,0,0,5-3.21c1.84-2.07,1.91-4.79,1.76-7.29-.19-3.14-.61-5.89-2.18-7.91a33,33,0,0,0-4.48-4.37q-2.49-2.19-5.13-4.12a17.07,17.07,0,0,1-3.92-3.37c-.15-.2-.3-.42-.44-.65a10.45,10.45,0,0,1,.71-1.68,10,10,0,0,1,5-4.57,18.54,18.54,0,0,1,5.8-1.28,47.3,47.3,0,0,1,5.82-.13,73.42,73.42,0,0,0,11.57-.14c3.52-.47,8-1.48,11-5.26A10.48,10.48,0,0,0,676.15,590.64Z" transform="translate(-54.52)"/><path class="cls-186" d="M676.15,590.64a29,29,0,0,0-.31-5.32c0-.17-.05-.34-.07-.5a11.8,11.8,0,0,1-.75,2.7l.09.09c0,.15-.09.3-.14.44a10.61,10.61,0,0,1-4.08,5.06c-3.66,2.51-7.84,3-11.49,3.18-3.9.18-7.69-.21-11.57-.14a32.6,32.6,0,0,0-5.85.59,11.5,11.5,0,0,0-5.6,2.65,10.32,10.32,0,0,0-3.22,6.28,22.38,22.38,0,0,0,.19,5.07c0,.36.08.72.13,1.07l.06-.57a5.54,5.54,0,0,1,.69-2.16c.16-.42.35-.83.55-1.23a10,10,0,0,1,5-4.57,18.54,18.54,0,0,1,5.8-1.28,47.3,47.3,0,0,1,5.82-.13,73.42,73.42,0,0,0,11.57-.14c3.52-.47,8-1.48,11-5.26A10.48,10.48,0,0,0,676.15,590.64Z" transform="translate(-54.52)"/><path class="cls-187" d="M650.22,630a29.48,29.48,0,0,0-.37-3.4,2.81,2.81,0,0,1-.08.31,6.21,6.21,0,0,1-.43,2.12l0,0c-1.13,4.07-5.4,5.15-7.86,6.4a8.82,8.82,0,0,0-3.92,3.7c-1.11,2-1.2,4.51-1.47,6.73,0,.28-.14,1-.14,1.44,0,2.15.51,5.33.66,4.63,1.14-5.24,2.36-8.84,3-9.2a12.64,12.64,0,0,1,3.82-2.28,13,13,0,0,0,5-3.21C650.3,635.17,650.37,632.45,650.22,630Z" transform="translate(-54.52)"/><path class="cls-188" d="M93.36,265.43c4.62-2.32,4-8.19,3.63-12.52-.39-4.89-.29-9.24,3.66-11.88-1.46.65-2.72,1-4.6,1.83-4.64,2-5.66,6.52-5.45,11.19.21,4.44,1.67,11.36-3.31,13.86,1.43-.72,4.24-1.57,6.07-2.48Z" transform="translate(-54.52)"/><path class="cls-189" d="M54.52,257.79a108.17,108.17,0,0,0,20.51,10c2.81,1,6.27,2.24,9.26,1.24,2.66-.89,5.66-1.71,8-3.23C90.47,267,87.85,267,86,268.21a6.15,6.15,0,0,1-1.17.66l5.92-2.25-.62.22.44-.15c-4.8,1.16-10.08-1.52-14.41-3.32a106.66,106.66,0,0,1-15.24-8c-.36-.22-2.82,1-3.2,1.17s-2.87,1.41-3.17,1.22Z" transform="translate(-54.52)"/><path class="cls-190" d="M122.67,252.35a6,6,0,0,0,5.42-4.73c.89-3.17,1.73-5.79,5.15-6.93-2.1.7-4.63.14-6.75.85a7.3,7.3,0,0,0-4.84,5.63c-.7,2.79-1.6,5-4.61,5.86l.46-.07-.66.09c-1.24.18,1-.09,1.22-.11,1.54-.18,3.08-.37,4.61-.59Z" transform="translate(-54.52)"/><path class="cls-191" d="M98,242.14a6.6,6.6,0,0,1,5.06.62h0c4,2.15,7.18,7.65,10.69,9.77,2.37,1.42,4.88,1.08,7.37.33a8.2,8.2,0,0,0,2.26-.64l1.09-.32a11.13,11.13,0,0,1-5.75-2.48h0c-2.69-2.06-4.89-5.2-7.41-7.36a7.7,7.7,0,0,0-7-1.86l.08,0-.24.07-.21.05c-1.89.55-4.35.95-6.23,2Z" transform="translate(-54.52)"/><path class="cls-192" d="M175.05,698.91c4.62-2.31,4-8.19,3.64-12.51-.4-4.89-.3-9.24,3.66-11.88-1.47.65-2.73,1-4.6,1.83-4.64,2-5.67,6.52-5.45,11.19C172.5,692,174,698.9,169,701.4c1.43-.72,4.24-1.57,6.07-2.49Z" transform="translate(-54.52)"/><path class="cls-193" d="M136.22,691.28a108.69,108.69,0,0,0,20.5,10c2.81,1,6.27,2.24,9.26,1.24,2.67-.89,5.66-1.71,8.05-3.23-1.86,1.18-4.49,1.19-6.37,2.39a5.56,5.56,0,0,1-1.17.65l5.93-2.24-.63.22.44-.15c-4.79,1.16-10.08-1.52-14.41-3.33a106.12,106.12,0,0,1-15.24-8c-.36-.23-2.82,1-3.19,1.16s-2.88,1.42-3.17,1.23Z" transform="translate(-54.52)"/><path class="cls-194" d="M204.37,685.84a6,6,0,0,0,5.42-4.73c.88-3.17,1.72-5.79,5.14-6.93-2.1.7-4.63.14-6.75.85a7.31,7.31,0,0,0-4.84,5.63c-.69,2.79-1.59,5-4.61,5.86l.46-.08-.65.1c-1.25.17,1-.09,1.21-.11,1.54-.18,3.08-.37,4.62-.59Z" transform="translate(-54.52)"/><path class="cls-195" d="M179.74,675.62a6.6,6.6,0,0,1,5,.63h0c4,2.15,7.18,7.65,10.7,9.77,2.36,1.42,4.87,1.08,7.36.33a8.67,8.67,0,0,0,2.27-.64l1.08-.32a11,11,0,0,1-5.74-2.49h0c-2.69-2.06-4.89-5.21-7.41-7.36a7.69,7.69,0,0,0-7-1.87l.07,0-.23.07-.21,0c-1.9.55-4.36,1-6.23,2Z" transform="translate(-54.52)"/><path class="cls-196" d="M882.2,332.38c.45-3.61-1-7.1-2.12-10.48-1.58-4.72-5.16-7.67-9.58-9.71-5.21-2.41-9.82-2-13.87,2.11-3.56,3.63-6.37,9-12.23,8.6.24.74.48,1.49.73,2.23l-1.59-5c-.15-.49-.67-2-.7-2.12.34,1.27.76,2.51,1.16,3.76.52,1.66,1,3.31,1.58,5a12.41,12.41,0,0,0,.73,2.23c8.15.6,10.49-9.78,17.44-12.07,4-1.3,8.83,1.17,12.11,3.22a16.47,16.47,0,0,1,4.24,4c1.15,1.49,1,3.39.25-.73a9.72,9.72,0,0,1-.06,2.9c-.25,1.94,2.15,4.19,1.91,6.1Z" transform="translate(-54.52)"/><path class="cls-197" d="M225.84,748.24c.46-3.61-1-7.1-2.12-10.48-1.58-4.72-5.16-7.66-9.58-9.7-5.21-2.42-9.82-2-13.87,2.1-3.56,3.63-6.37,9-12.23,8.6l.73,2.23q-.79-2.47-1.58-5c-.16-.49-.68-2-.71-2.12.35,1.27.76,2.52,1.16,3.76q.78,2.49,1.58,5a12.41,12.41,0,0,0,.73,2.23c8.15.6,10.49-9.77,17.44-12.07,4-1.3,8.83,1.17,12.11,3.22a16.15,16.15,0,0,1,4.24,4c1.15,1.49,1,3.39.25-.72a9.66,9.66,0,0,1-.06,2.89c-.25,1.94,2.15,4.19,1.91,6.1Z" transform="translate(-54.52)"/><path class="cls-198" d="M722.76,644.06c.45-3.61-1-7.1-2.13-10.48-1.57-4.72-5.16-7.66-9.57-9.71-5.22-2.41-9.83-2-13.88,2.11-3.56,3.63-6.37,9-12.23,8.6.25.74.49,1.49.73,2.23-.52-1.66-1-3.31-1.58-5-.16-.49-.68-2-.71-2.12.35,1.27.76,2.52,1.16,3.76l1.59,5a11,11,0,0,0,.73,2.23c8.15.6,10.49-9.77,17.44-12.07,4-1.3,8.83,1.17,12.1,3.22a16.15,16.15,0,0,1,4.24,4c1.15,1.49,1,3.39.25-.72a9.66,9.66,0,0,1-.06,2.89c-.24,1.94,2.16,4.19,1.92,6.1Z" transform="translate(-54.52)"/><path class="cls-199" d="M565,355c1.59,3.7-1.74,6.88-4.12,9.27-2.69,2.71-4.82,5.35-3.79,8.9-.55-1.12-1.12-2-1.82-3.4-1.73-3.55-.09-6.72,2.38-9.39s6.7-5.91,5-9.9c.49,1.14,1.74,3.06,2.36,4.52Z" transform="translate(-54.52)"/><path class="cls-200" d="M538.12,340a84.56,84.56,0,0,1,17.22,4.34c2.18.81,4.86,1.82,6.13,3.91a28.16,28.16,0,0,1,3.16,6c-.51-1.64-2.06-3-2.58-4.62a4.74,4.74,0,0,0-.37-1l2.4,4.31-.26-.45.18.31c-2.27-3.09-6.76-4.16-10.23-5.25a81.19,81.19,0,0,0-13.07-2.92c-.33-.05-1.16-2-1.31-2.3s-1-2.29-1.27-2.32Z" transform="translate(-54.52)"/><path class="cls-201" d="M575.91,377.46a4.7,4.7,0,0,1,.85,5.54c-1.07,2.32-1.88,4.3-.42,6.7-.9-1.47-2.69-2.41-3.59-3.89a5.69,5.69,0,0,1,0-5.79c1-2,1.57-3.78.2-5.79l.24.27c-.12-.12-.23-.25-.35-.38-.65-.73.58.57.67.67.83.89,1.65,1.77,2.45,2.67Z" transform="translate(-54.52)"/><path class="cls-202" d="M556.13,371.17a5.15,5.15,0,0,0,3.33,2.16h0c3.47.75,8.1-.94,11.26-.43,2.12.34,3.44,1.8,4.55,3.5a7.07,7.07,0,0,1,1,1.52c.16.24.33.49.48.73a8.64,8.64,0,0,0-4.66-1.41h0c-2.63-.13-5.52.64-8.1.65a6,6,0,0,1-5.11-2.41l0,.06-.11-.16-.1-.14A24.29,24.29,0,0,1,556,371Z" transform="translate(-54.52)"/><path class="cls-203" d="M697.29,463.05c2.26,1.17,4.77.71,7.18.1,3.24-.82,6.45-1.74,9.66-2.64s6.43-1.77,9.68-2.51l.48-.11c-1,.91-2.07,1.76-3.13,2.6a146.73,146.73,0,0,0-11.51,10.21q-1.32,1.32-2.61,2.67a7.17,7.17,0,0,0-1.92,2.5,1.89,1.89,0,0,0,.15,1.28,26.07,26.07,0,0,0,2.35,4.15,10.72,10.72,0,0,0,2,2.57,2.66,2.66,0,0,0,1.49.36,65.33,65.33,0,0,0,13.92-1.37c2.87-.5,5.74-1,8.62-1.46.76-.12,1.53-.22,2.29-.31a31.62,31.62,0,0,1-4.51,4.45,25,25,0,0,0-4.81,5.11,3.57,3.57,0,0,0-.6,2.69,10.71,10.71,0,0,0,1.46,2.93c.53.9,1.08,1.78,1.67,2.64a7.93,7.93,0,0,0,1.32,1.63,3,3,0,0,0,2.5.36c1.29-.21,2.58-.48,3.85-.8a45.33,45.33,0,0,0,4.62-1.51c-.68,1.26-1.42,2.5-2,3.79a9.71,9.71,0,0,0-.87,7,18.49,18.49,0,0,0,2.4,4.38,19.45,19.45,0,0,0,1.41,2s.63.7.47.21c-1-3,.44-6,1.9-8.7a34.78,34.78,0,0,0,2.26-4.53,5.58,5.58,0,0,0-.13-4.38,2.58,2.58,0,0,0-.36-.74,31.71,31.71,0,0,0-3.27-5.19,4.34,4.34,0,0,0-1.85-1.6c-1.53-.52-3.32.64-4.75,1.16l-.65.23c.93-.8,1.85-1.61,2.71-2.47a14.08,14.08,0,0,0,3.45-5.16,5.17,5.17,0,0,0,.3-2.77,12.39,12.39,0,0,0-1.47-3,17.8,17.8,0,0,0-3-4.27,3.36,3.36,0,0,0-2.5-.71c-1.19,0-2.4.18-3.59.32-2.33.26-4.65.65-7,1.06-3.44.6-6.87,1.25-10.33,1.68,1.4-1.37,2.82-2.7,4.27-4q2.9-2.59,5.93-5a54.07,54.07,0,0,0,4.93-4.25,12.77,12.77,0,0,0,3.36-5.25,2.17,2.17,0,0,0-.16-1.44,26.32,26.32,0,0,0-2.36-4.16c-.85-1.3-1.64-2.82-3.35-3a12.38,12.38,0,0,0-3.25.41c-1.29.23-2.57.5-3.85.78-2.47.55-4.91,1.19-7.35,1.85-3.52.95-7,2-10.53,2.91-2.76.73-6.23,2-8.91.58-.39-.2-.08.38,0,.5a22,22,0,0,0,1.13,2.15c.53.9,1.08,1.78,1.68,2.64C696.38,462,696.84,462.82,697.29,463.05Z" transform="translate(-54.52)"/><path class="cls-204" d="M742.38,515.74h0Z" transform="translate(-54.52)"/><path class="cls-205" d="M752.45,515.81h0Z" transform="translate(-54.52)"/><path class="cls-206" d="M743.24,492.4l-.18-.23c.87,3.12-1.6,6.42-1.6,6.42-.68,1.26-1.42,2.5-2,3.79a9.71,9.71,0,0,0-.87,7,18.49,18.49,0,0,0,2.4,4.38,19.45,19.45,0,0,0,1.41,2s.63.7.47.21c-1-3,.44-6,1.9-8.7a34.78,34.78,0,0,0,2.26-4.53,5.58,5.58,0,0,0-.13-4.38,2.58,2.58,0,0,0-.36-.74A31.71,31.71,0,0,0,743.24,492.4Z" transform="translate(-54.52)"/><path class="cls-207" d="M733.67,481.4c.76-.12,1.53-.22,2.29-.31a31.62,31.62,0,0,1-4.51,4.45,25,25,0,0,0-4.81,5.11,3.57,3.57,0,0,0-.6,2.69,10.71,10.71,0,0,0,1.46,2.93c.53.9,1.08,1.78,1.67,2.64a13.88,13.88,0,0,0,1,1.29c0-2.95,5.24-7.47,5.24-7.47l.9-.64-.28.1c.93-.8,1.85-1.61,2.71-2.47a14.08,14.08,0,0,0,3.45-5.16,5.17,5.17,0,0,0,.3-2.77S741.91,480,733.67,481.4Z" transform="translate(-54.52)"/><path class="cls-208" d="M722,458.43Z" transform="translate(-54.52)"/><path class="cls-209" d="M724.2,458c-1,.88-2,1.71-3,2.53a146.73,146.73,0,0,0-11.51,10.21q-1.32,1.32-2.61,2.67a7.17,7.17,0,0,0-1.92,2.5,1.89,1.89,0,0,0,.15,1.28,26.07,26.07,0,0,0,2.35,4.15,10.72,10.72,0,0,0,2,2.57l0,0-.26-.6s-.18-2.29,5.2-6.39c1.4-1.37,2.82-2.7,4.27-4q2.9-2.59,5.93-5a54.07,54.07,0,0,0,4.93-4.25,12.77,12.77,0,0,0,3.36-5.25,1.67,1.67,0,0,0,0-.8C733.05,457.33,732.21,456.37,724.2,458Z" transform="translate(-54.52)"/><path class="cls-210" d="M395.58,257.17a5.79,5.79,0,0,0-1,4c0,1.92.14,3.85.23,5.77s.15,3.84.15,5.77V273c-.38-.69-.72-1.4-1.05-2.1a81.47,81.47,0,0,0-4.25-7.79c-.37-.61-.76-1.22-1.15-1.82a4.27,4.27,0,0,0-1.16-1.4,1.05,1.05,0,0,0-.74-.08,14.29,14.29,0,0,0-2.64.78,5.89,5.89,0,0,0-1.7.8,1.46,1.46,0,0,0-.4.79,37.63,37.63,0,0,0-1,8c-.1,1.67-.16,3.36-.3,5,0,.44-.08.89-.13,1.33a18.35,18.35,0,0,1-1.91-3.12,15,15,0,0,0-2.24-3.37,2.09,2.09,0,0,0-1.44-.68,6.12,6.12,0,0,0-1.83.44c-.58.18-1.15.37-1.7.59a4.78,4.78,0,0,0-1.09.53,1.69,1.69,0,0,0-.53,1.36c-.05.75-.06,1.51-.05,2.27a25.82,25.82,0,0,0,.25,2.79c-.63-.54-1.22-1.12-1.87-1.63a5.65,5.65,0,0,0-3.83-1.41,11.21,11.21,0,0,0-2.77.78,13.05,13.05,0,0,0-1.29.54s-.47.26-.17.24c1.81-.15,3.33,1,4.64,2.2a22.21,22.21,0,0,0,2.25,1.86,3.21,3.21,0,0,0,2.48.49,1.35,1.35,0,0,0,.46-.1,18.33,18.33,0,0,0,3.34-1.16,2.53,2.53,0,0,0,1.14-.84c.49-.79.07-1.94,0-2.81,0-.14,0-.27-.05-.4.34.62.67,1.25,1,1.84a8,8,0,0,0,2.45,2.61,2.9,2.9,0,0,0,1.52.53,7,7,0,0,0,1.85-.44,10.07,10.07,0,0,0,2.79-1.12,1.92,1.92,0,0,0,.72-1.31c.14-.68.21-1.37.29-2.06.15-1.34.24-2.69.31-4.05.11-2,.19-4,.4-6,.59,1,1.15,1.94,1.7,2.92q1.08,2,2.05,4a31.83,31.83,0,0,0,1.75,3.32,7.36,7.36,0,0,0,2.51,2.57,1.2,1.2,0,0,0,.83.1,16,16,0,0,0,2.64-.78c.85-.31,1.81-.56,2.13-1.5a7.37,7.37,0,0,0,.19-1.88c0-.75.05-1.51.06-2.27,0-1.45,0-2.91-.08-4.36-.08-2.1-.19-4.2-.26-6.3-.06-1.64-.3-3.75.83-5.08.16-.19-.21-.1-.28-.09a10.32,10.32,0,0,0-1.35.36c-.58.18-1.15.37-1.7.6A2.94,2.94,0,0,0,395.58,257.17Z" transform="translate(-54.52)"/><path class="cls-204" d="M360.11,275.66h0S360.12,275.65,360.11,275.66Z" transform="translate(-54.52)"/><path class="cls-205" d="M358.76,281.31h0Z" transform="translate(-54.52)"/><path class="cls-211" d="M373.11,279.18l.16-.08c-1.87.09-3.4-1.73-3.4-1.73-.63-.54-1.22-1.12-1.87-1.63a5.65,5.65,0,0,0-3.83-1.41,11.21,11.21,0,0,0-2.77.78,13.05,13.05,0,0,0-1.29.54s-.47.26-.17.24c1.81-.15,3.33,1,4.64,2.2a22.21,22.21,0,0,0,2.25,1.86,3.21,3.21,0,0,0,2.48.49,1.35,1.35,0,0,0,.46-.1A18.33,18.33,0,0,0,373.11,279.18Z" transform="translate(-54.52)"/><path class="cls-212" d="M380.54,275.23c0,.44-.08.89-.13,1.33a18.35,18.35,0,0,1-1.91-3.12,15,15,0,0,0-2.24-3.37,2.09,2.09,0,0,0-1.44-.68,6.12,6.12,0,0,0-1.83.44c-.58.18-1.15.37-1.7.59a6.45,6.45,0,0,0-.86.38c1.66.38,3.52,3.91,3.52,3.91l.24.59a1.11,1.11,0,0,0,0-.17c.34.62.67,1.25,1,1.84a8,8,0,0,0,2.45,2.61,2.9,2.9,0,0,0,1.52.53S380.25,280,380.54,275.23Z" transform="translate(-54.52)"/><path class="cls-213" d="M395,271.66h0v0Z" transform="translate(-54.52)"/><path class="cls-214" d="M394.94,273c-.37-.67-.7-1.36-1-2a81.47,81.47,0,0,0-4.25-7.79c-.37-.61-.76-1.22-1.15-1.82a4.27,4.27,0,0,0-1.16-1.4,1.05,1.05,0,0,0-.74-.08,14.29,14.29,0,0,0-2.64.78,5.89,5.89,0,0,0-1.7.8l0,0,.37-.07s1.31.2,2.91,3.75c.59,1,1.15,1.94,1.7,2.92q1.08,2,2.05,4a31.83,31.83,0,0,0,1.75,3.32,7.36,7.36,0,0,0,2.51,2.57.89.89,0,0,0,.45.12C394.15,278,394.79,277.66,394.94,273Z" transform="translate(-54.52)"/></g><path class="cls-215" d="M316,724.09c-5.19-4.1-50.83-30.66-63.75-47.35-2.72-3.51-8.09-10.63-5.81-16.48.64-1.55,1.81-3.66,3.95-4.48,4.41-1.71,7.22,3.05,10.13,2.51,1.69-.31.5-1.77,2.74-2.92a4.08,4.08,0,0,1,2.33-.33c3.77,1,3.91,5.07,4.32,7.9,2.39,16.78,33.16,37.41,49.72,29.2,2.23-1.1,11-22.73,12.32-30.83a49.47,49.47,0,0,1-13-5.42,56.62,56.62,0,0,1-24.28-30.54c-.4-1.18-.76-2.35-1.08-3.52h0a56.15,56.15,0,0,1,2.36-37.1c5.39-12.39,15.07-21.49,27.25-25.62a45.63,45.63,0,0,1,31.15.86,67.75,67.75,0,0,1,17.06-37.26c11.3-12.24,26.79-18.91,42.51-18.29,21.26.84,40,14.71,49.21,35.46a64.29,64.29,0,0,1,11.37-8c14.58-8.06,31.39-9.5,46.11-4C537,534.08,549.24,548,554.16,566a69.35,69.35,0,0,1-1.64,40.62,41.75,41.75,0,0,1,37.7,31c4.13,15.14.31,32-10.22,45.13a52.5,52.5,0,0,1-30.9,18.94,45.59,45.59,0,0,1-14.9.39c-1.38,6.72.16,10.1,1.44,11.84,9.19,12.53,51.88,2.88,63.09-11.4,1.62-2.06,1.85-8.6,5.76-8.26a5.75,5.75,0,0,1,2.67,1.47c.66.68.59,1.28,1.59,1.33,2.35.13,8.27-2.31,11.44,2.09,2,2.78.23,7.8-.23,9.11-2.81,8-12.07,11.59-16.22,13.12-28.7,10.57-57,15.77-71.61,23.32,0,0-4.15,20.93-10,44.65-12.37,50.08-20.49,59.53-29.73,61.49-18.84,4-5.14-93.55-72.41-93.55-76.73,0-51,97.68-73.4,95.07-8.82-1-21.46-17.79-28.23-86Z" transform="translate(-54.52)"/><path class="cls-216" d="M509.33,691c-6.52-29.49-31.84-39.32-40.06-43.51a104.57,104.57,0,0,0-69.57-7.7c-7.84,1.89-33.21,7.16-46.69,28.34-10,15.69-14.77,28.8-16.78,39.19-1.61,5.93-3.84,34.06-.52,69.06,1.81,19.08,5.68,44.23,9,44.23,3.2,0-.22-18.66,9-44.23,8.8-24.35,28.41-36.57,42.62-39.44l2-.41c11.46-1.08,19.58-1.39,27.39-.68,9.27.84,25.12,2.64,38,11.16C499,770.32,491,822.79,495.3,823.22c3.74.38,13.95-46.38,16.66-70.68A170.89,170.89,0,0,0,509.33,691Z" transform="translate(-54.52)"/><path class="cls-217" d="M351.71,642.83c15.56-5.29,23.14-24.38,16.93-42.63s-23.86-28.77-39.4-23.48-23.11,24.37-16.92,42.63S336.19,648.12,351.71,642.83Z" transform="translate(-54.52)"/><path class="cls-217" d="M409.61,614.57c21.53.85,39.8-19,40.8-44.23S434.76,523.86,413.23,523s-39.8,19-40.8,44.24S388.08,613.72,409.61,614.57Z" transform="translate(-54.52)"/><path class="cls-217" d="M481.76,631.06c20.17,7.6,43.76-5.44,52.68-29.12s-.19-49-20.34-56.63-43.76,5.44-52.67,29.12S461.61,623.46,481.76,631.06Z" transform="translate(-54.52)"/><path class="cls-217" d="M564.32,630.23c-11.44-9.17-29.44-5.74-40.23,7.68s-10.24,31.75,1.18,40.93,29.44,5.74,40.23-7.68S575.73,639.41,564.32,630.23Z" transform="translate(-54.52)"/><path class="cls-215" d="M477.86,693.61c-.71,13.3-26.09,22.75-56.68,21.11s-54.81-13.74-54.1-27,22.06,3,52.65,4.65S478.57,680.32,477.86,693.61Z" transform="translate(-54.52)"/><path class="cls-218" d="M294.86,562.9c-1.79-3.32,3-9.36,10.61-13.48s15.29-4.76,17.08-1.44-5.78,2.53-13.43,6.65S296.65,566.22,294.86,562.9Z" transform="translate(-54.52)"/><path class="cls-218" d="M574.48,601.52c2.22-2.45,8.58-.3,14.21,4.8s8.4,11.22,6.18,13.66-3.77-4-9.4-9.13S572.27,604,574.48,601.52Z" transform="translate(-54.52)"/><path class="cls-219" d="M357.69,604.07c-6-10.94-18.42-15.36-27.67-9.88s-11.87,18.81-5.84,29.75,18.41,15.36,27.67,9.88S363.72,615,357.69,604.07Z" transform="translate(-54.52)"/><path class="cls-219" d="M559.65,665.13c4.8-10.11,1.46-21.5-7.47-25.43s-20,1.07-24.84,11.18-1.45,21.5,7.47,25.44S554.85,675.24,559.65,665.13Z" transform="translate(-54.52)"/><path class="cls-219" d="M522.16,595.48c2.16-16.39-7.48-30.78-21.52-32.14s-27.19,10.83-29.35,27.22,7.48,30.78,21.53,32.14S520,611.87,522.16,595.48Z" transform="translate(-54.52)"/><path class="cls-219" d="M435.92,568.44c-3-16.29-16.57-27-30.32-24s-22.48,18.7-19.48,35,16.57,27,30.32,24S438.92,584.72,435.92,568.44Z" transform="translate(-54.52)"/><path class="cls-218" d="M380.8,493.13c-.12-7.08,13-13,29.27-13.32s29.6,5.24,29.72,12.31-11.82-.77-28.11-.49S380.92,500.21,380.8,493.13Z" transform="translate(-54.52)"/><path class="cls-218" d="M515.62,506.43c4.16-5.73,18.22-2.63,31.41,6.93s20.52,22,16.36,27.69-9-7.71-22.17-17.27S511.47,512.16,515.62,506.43Z" transform="translate(-54.52)"/><ellipse class="cls-215" cx="411.34" cy="574.26" rx="12.47" ry="13.99" transform="translate(-88.89 26.24) rotate(-3.51)"/><ellipse class="cls-215" cx="496.78" cy="593.27" rx="13.99" ry="12.47" transform="translate(-275.54 882.28) rotate(-71.99)"/><ellipse class="cls-215" cx="543.91" cy="658.35" rx="9.73" ry="8.56" transform="matrix(0.52, -0.85, 0.85, 0.52, -355.88, 779.99)"/><ellipse class="cls-215" cx="341.02" cy="614.61" rx="8.56" ry="9.73" transform="translate(-260.65 173.39) rotate(-22.09)"/><circle class="cls-217" cx="284.63" cy="618.19" r="1.95"/><circle class="cls-217" cx="485.9" cy="661.13" r="1.95"/><circle class="cls-217" cx="353.5" cy="580.3" r="3.14"/><circle class="cls-217" cx="437.69" cy="598.47" r="3.14"/><path class="cls-220" d="M448.24,690.55c-11.37,1.42-17.59,2.11-25.18,1.84-8-.28-11.9-.41-24.52-3.37,1,7.46,2.9,15.92,6.15,17,5.89,2,36.82-4.24,40.23-5.58C446,700,447.18,695.9,448.24,690.55Z" transform="translate(-54.52)"/><path class="cls-215" d="M286.45,839.19c.32-5.21,6.34-8.86,9.78-10.18,3.69-1.43,6.94-1.15,11.58-.7a65.32,65.32,0,0,1,13.11,2.81c5.33,1.41,13.61,1.48,26.08-5.2v26.56c-13.28-3.62-23.25-2.93-30-1.56-6,1.21-9.88,3.05-15.85,1.65C294.53,851,286.05,845.62,286.45,839.19Z" transform="translate(-54.52)"/><path class="cls-215" d="M550.42,837.63c-.31-5.21-6.12-8.86-9.42-10.19-3.56-1.42-6.7-1.15-11.17-.7a62,62,0,0,0-12.64,2.81c-5.13,1.41-13.11,1.49-25.14-5.19v26.56a67.69,67.69,0,0,1,16.11-2.63,52.54,52.54,0,0,1,12.8,1.07c5.75,1.21,9.53,3,15.28,1.65C542.63,849.45,550.8,844.06,550.42,837.63Z" transform="translate(-54.52)"/></g></g></svg>