<svg xmlns="http://www.w3.org/2000/svg" xmlns:xlink="http://www.w3.org/1999/xlink" viewBox="0 0 2291.42 1758.01"><defs><style>.cls-1{fill:#d74b95;}.cls-2{fill:#fafafa;}.cls-3{fill:#fff;}.cls-4,.cls-5{fill:#e2b2aa;}.cls-4{opacity:0.38;}.cls-5{opacity:0.32;}.cls-6{fill:#fdfaf9;}.cls-7{fill:#d04592;}.cls-8{fill:#565656;}.cls-9{fill:#faedeb;}.cls-10{fill:url(#linear-gradient);}.cls-11{fill:url(#linear-gradient-2);}.cls-12{fill:#3a3a3a;opacity:0.18;}.cls-13{fill:#333;opacity:0.15;}.cls-14{fill:#e54190;}.cls-15{fill:#d36e97;}.cls-16{fill:#bc318e;}.cls-17{fill:#f490d3;}.cls-18{fill:#fefafa;}.cls-19{fill:#683e57;}.cls-20{fill:#9b3a69;}.cls-21{fill:#494949;}.cls-22{fill:#383838;}.cls-23{fill:#e5b884;}.cls-24{fill:#262626;}.cls-25{fill:url(#linear-gradient-3);}.cls-26{fill:url(#linear-gradient-4);}</style><linearGradient id="linear-gradient" x1="-104.29" y1="-7930.99" x2="-103.29" y2="-7930.99" gradientTransform="matrix(283.12, 0, 0, -283.12, 30820.32, -2244551.36)" gradientUnits="userSpaceOnUse"><stop offset="0" stop-color="#7f375b"/><stop offset="0.51" stop-color="#9a3c68"/><stop offset="1" stop-color="#b74277"/></linearGradient><linearGradient id="linear-gradient-2" x1="-104.29" y1="-7930.99" x2="-103.29" y2="-7930.99" gradientTransform="matrix(457.86, 0, 0, -457.86, 48959.95, -3630484.57)" xlink:href="#linear-gradient"/><linearGradient id="linear-gradient-3" x1="-104.29" y1="-7930.99" x2="-103.29" y2="-7930.99" gradientTransform="matrix(334.27, 0, 0, -334.27, 36442.41, -2649627.99)" gradientUnits="userSpaceOnUse"><stop offset="0" stop-color="#7f375b"/><stop offset="0.6" stop-color="#67354f"/><stop offset="1" stop-color="#543345"/></linearGradient><linearGradient id="linear-gradient-4" x1="-104.29" y1="-7930.99" x2="-103.29" y2="-7930.99" gradientTransform="matrix(361.4, 0, 0, -361.4, 38622.85, -2864833.33)" xlink:href="#linear-gradient-3"/></defs><title>2Recurso 2</title><g id="Capa_2" data-name="Capa 2"><g id="Layer_2" data-name="Layer 2"><path class="cls-1" d="M2266,1628.43c-59.45,12.1-142.54,39.34-179.05,39.54-36.52.39-84.65-12.79-87.09-12.79s-27.92-9.76-27.92-9.76-13.28,13.47-35.73,30.65c-30.27,23.53-78,53.7-132.88,65.81-95.28,20.69-161.18-34.47-161.18-34.47l-61.41-40s-40.13,51.94-131.42,34.17c-91.77-17.67-138.54-51.25-138.54-51.25s-81.51,87.28-153.18,88.94c-71.66,1.37-166.26-31.15-179.83-45.59-13.57-14.06-106.23-27.44-145.38-26.27s-179.83,5.27-241.63-3c-61.6-8.2-48-70.88-39.64-107.49,4.4-21.19,8.2-53.51,10.06-77.62,1.36-18.06,1.66-31.63.29-32.61-.88-.68-3,1.07-6.64,3.51-4.49,3.52-10.74,9-17.57,14.06s-14.35,9.77-21.38,11.62c-19.53,4.69-127.7,32.12-149.28,0,0,0-39.05,83.09-156.21,84.75C93.24,1561.94,36.91,1458.16,34,1431.31s13-103.68,24.31-119.21c11-15.71,17.87-40.12,17.87-40.12s-50.08-86.89-23.73-196.43C69.72,1003.79,79.28,968.64,83.87,953c2.44-8.2,3.52-11,3.52-11s-109.84-52.24-70.78-140.1S68.93,606.72,68.93,606.72s-43.15-43.93-54.47-78.59C5.18,500.5,16.9,451.39,56.34,430a86.8,86.8,0,0,1,33.78-9.86c66.19-6,114.42,45.2,120.28,96.17,6.35,50.77-35,163.82-35,163.82l-13.86,78.11s75,6,112.47,18.84c37.88,12.89,42.95,16.6,45.49,13.47S447.84,588.08,447.84,588.08s27.92-32.51,26.85-36c-1.08-3.22-25.09-62.39-39.54-62.29-14.45.39-16.31,3.42-16.31,3.42s-19,32.32-50.38-3c-31.14-35.34-14.74-101.73,48.72-117.06s103.59,36.13,106,37.79c2.44,1.46,41.3,71.36,41.3,71.36L677.37,381.59l146.44-95.68s63.46-40.32,58-69.51C876.34,187.6,867,167,860,165.82c-6.94-1-4.89-2.44-11.82,7.13-6.64,9.28-58.58,41.69-80.93,26.07-22.36-16.11-90.7-57.21-43.94-120.58,46.77-63,160.31-73.71,217.23-29.77,57.21,43.93,100.36,121.94,80.45,222s-37.88,117.74-37.88,117.74l78.1-3.9L1195,394.28s50.67-36.61,70.58-79.76c20.21-43.26,33-109.16,12.21-141.37-20.7-31.93-56.53-55.65-56.53-55.65s7.71,24.4-6,34.17c-14,9.76-92.74,35.14-106.51-27.34-13.38-62,69.9-119.6,126.72-121.55S1356.88,43.1,1385.39,137c28.7,94,34.95,253.16,30.07,291-4.69,38.37-2.35,38.47,1.46,39.05s159.63,25.09,182.47,81.82c23.24,56.82,151.52,95.77,233.73,273.26,82.4,177.4,78.1,333.61,78.1,333.61s138.25,72.83,146.84,219.18c8.79,146-25.77,188.13-25.77,188.13s40.81,2.35,84.74-34.46c43.93-37,69.42-145.57,78.2-151.82s35.73.1,39,6.74c3.51,6.54,11.13,109.74,18.35,150.25C2259.67,1574.63,2325.67,1616.52,2266,1628.43Z"/><path class="cls-2" d="M1993.63,1439.2c0,124.4-108.91,225.24-243.26,225.24S1507.1,1563.6,1507.1,1439.2,1616,1214,1750.37,1214,1993.63,1314.81,1993.63,1439.2Z"/><path class="cls-3" d="M1376.12,1406.54c0,135.61-118,245.55-263.52,245.55s-263.5-109.94-263.5-245.55S967.07,1161,1112.6,1161,1376.12,1270.92,1376.12,1406.54Z"/><path class="cls-4" d="M1603.7,1437.3c0-95.73,55.61-180.39,135.76-223.08-129.29,5.29-232.36,104-232.36,225,0,123.4,107.19,223.56,240.06,225.16C1662.87,1623.11,1603.7,1536.08,1603.7,1437.3Z"/><path class="cls-5" d="M934.93,1406.38c0-117,83.07-217.53,192.56-245-4.93-.26-9.89-.42-14.89-.42-145.53,0-263.51,109.94-263.51,245.56s118,245.55,263.51,245.55c5.34,0,10.63-.19,15.89-.49C1018.51,1624.51,934.93,1523.77,934.93,1406.38Z"/><path class="cls-6" d="M1553.26,1447.06c0-99.41,60-186.91,145.11-227.84-109.36,22.06-191.27,112.13-191.27,220,0,91,58.37,169.37,142.32,204.87C1591.15,1597.5,1553.26,1526.06,1553.26,1447.06Z"/><path class="cls-6" d="M895.88,1412.89c0-130.56,103.39-240.54,231.51-251.46l.07,0c-4.9-.27-9.86-.43-14.86-.43-145.53,0-263.51,109.94-263.51,245.56,0,115.78,86,212.78,201.74,238.7C960.47,1606.5,895.88,1516.1,895.88,1412.89Z"/><path class="cls-7" d="M1180.85,871s-256.29-27.66-348.22,65.09-122,191.46-109.83,251.53S765.93,1247,787.08,1249s138.39-133.46,138.39-133.46,154-146.07,261.22-169.24S1284,911.47,1284,911.47Z"/><path class="cls-8" d="M1599,560.25s-200.14-93.56-385.64-12.2S913.19,712.39,913.19,712.39,795.72,818.48,732.82,951.75,655.05,1226.58,661.67,1312s5.81,110.65,5.81,110.65-58.57-42.44-77.28-5.36-31.74,53.36-31.74,53.36l-8.14-148.89s-23.61-100.07,28.06-283.94,165.43-320.56,218-375.07,258.4-171.67,360.09-192.82,306,13,376.36,28.48S1599,560.25,1599,560.25Z"/><path class="cls-1" d="M1204,884.47l-61-12.62s58.57-166,149.7-203.8,228.22-29.69,287.61,18.31,135.45,217.22,135.45,217.22l-6.91,66.72-37.43-8.54S1656.81,822.44,1580.33,767s-122.46-68.86-210.73-49.33S1241.46,815.31,1237.8,821,1204,884.47,1204,884.47Z"/><path class="cls-9" d="M1244.72,893s-3.26-18.3,16.27-46.37,88.68-96.82,194.45-78.52S1608,842.57,1616.93,881.21s15.08,56.55,12.22,56.55-33-4.48-33-4.48-19.93-12.21-20.34-16.68-62.93-110.44-138.65-109.32-121.29,67.45-121.29,67.45-25.12,28.86-27.41,31.3,2,11.8-4.52,7.35S1244.72,893,1244.72,893Z"/><path class="cls-10" d="M1319.36,914.16l-25,3.05s30-89.89,106.85-109.93,153.9,64.78,153.9,64.78l22.37,50.78S1426.15,897.69,1319.36,914.16Z"/><path class="cls-11" d="M1240,886.7l-30.55-4.43s.65-32.18,21.4-60.86,92.56-117.76,201.26-117.76,173.39,81.93,194.14,129.44,43.32,118.41,40.88,118.66-43.59-16.84-43.59-16.84,12.47-136.07-110.79-160.48-202,21.36-202,21.36S1253.46,843.38,1240,886.7Z"/><path class="cls-12" d="M554.94,1450.15v.1c-8.88,7-24.9,22-39,25.58-19.53,4.69-127.71,32.12-149.28,0,0,0-39,83.18-156.21,84.75a180.78,180.78,0,0,1-59.95-9.28h-.09c-76.64-25.77-114.13-98.12-116.38-119.89-3-26.85,13-103.68,24.21-119.31s18-40.12,18-40.12-50.09-86.89-23.73-196.43A255,255,0,0,0,73,1096.63c39.63,37.2,135,109.84,268.19,102.71,172.41-9.08,203.46-31.73,205.31-32.9-.68,4.88-14.35,109-5,184.91C547,1397.53,551.91,1430.73,554.94,1450.15Z"/><path class="cls-13" d="M1941.39,1664.45c-.39,1-2.15,5.08-5.07,11.72-30.37,23.43-78,53.7-133,65.71-95.28,20.69-161.18-34.47-161.18-34.47l-61.32-40s-40.12,52-131.51,34.17c-91.67-17.67-138.44-51.25-138.44-51.25s-81.52,87.28-153.18,88.94c-71.66,1.37-166.26-31.15-179.83-45.5-13.58-14.15-106.23-27.53-145.38-26.36s-179.83,5.27-241.63-3-48-70.88-39.74-107.49c4.49-21.09,8.3-53.41,10.15-77.62l15.82-16.79s19.53-68.83,53.7-56c32,11.91,36.12,15.62,36.51,16,0-2.35-3.12-158.36-.68-223.68,2.44-65.9,36.22-207.46,49-201.8,0,0-29.49,103.39-7.52,169.29s54.48,87.87,54.48,87.87l33.68-8.69,29-.29s-3.32,184.72,35,259.5,151.33,153,261.94,147.32,172.13-57.3,172.13-57.3l41.88-41.21s29.29,83.87,107,105.84,146.06-51.45,146.06-51.45,51.25,61.21,169.19,73.41C1874.81,1693.35,1939.73,1665,1941.39,1664.45Z"/><path class="cls-14" d="M2155.94,1502.39s-50.45,59-41.5,80.95,110.86-10,124.48-29.7,16-11,16-11,48.48,78.09-10.63,94.26-168.48,42.46-211.6,35.14-54.92-31.32-54.92-31.32,54.1-64.68,57.36-70S2155.94,1502.39,2155.94,1502.39Z"/><path class="cls-15" d="M736,69.05s-23.8,75.66,30.51,84.2,91.53-75.66,145.84-16.47S956.3,286.28,870.26,343,661,398.64,600,459.31s3-35.74,101.29-98S883.08,257,882.47,220.38s-33.56-59.8-33.56-59.8.67,48.49-49.4,47.12S725.65,188,712.83,159.36,706.73,79.42,736,69.05Z"/><path class="cls-15" d="M1216.24,109.93s122,50,124.48,155-51.61,154.51-51.61,154.51L1202,391.71s81.24-76.76,87.1-134.11-32.6-113.5-32.6-113.5S1161.93,91.62,1216.24,109.93Z"/><path class="cls-15" d="M363.19,404s-1.62,38.29,43.12,32.57S508,507.88,508,507.88L483.6,545.2l-16.21-10.45s-31.79-48.13-40.74-46.91-10.57,17.09-12.2,17.09-31.32,12.2-45.15-8.55S351.8,421.13,363.19,404Z"/><path class="cls-15" d="M142.65,900.59c-5.28,3.71-44.33,39-58.88,52.33,2.45-8.1,3.62-11,3.62-11a.35.35,0,0,0-.2-.1c-3.71-1.85-109-53.6-70.58-139.9C55.66,714,68.84,606.72,68.84,606.72s-43.16-43.93-54.38-78.59c-8.4-24.7.09-66.68,30.16-90.6a74.4,74.4,0,0,1,11.62-7.61l13.08-.69s-22,64.14,22,100.76,63.46,33.48,63.46,33.48S108.38,609.85,97.83,674,57.9,812.72,79.09,867C98.22,915.82,136.88,902.93,142.65,900.59Z"/><path class="cls-15" d="M143.43,900.3c.16-.06.06,0-.2.12Z"/><path class="cls-1" d="M1289.11,524s-147.94,99.72-169.59,220.54S1133.26,867,1133.26,867s-218-27.29-267.07,32.51S715.68,1161,715.68,1161l-22.34-31.55s-29.82-21.2,26.87-149.35S850.54,751.46,1009,644.26,1289.11,524,1289.11,524Z"/><path class="cls-1" d="M1337.06,922.84s-137.59,44.67-186.58,89.76-60,70.59-60,70.59l-34.14,10.37-104.95,9.36s36-53.29,86.65-88.08S1216.24,941,1216.24,941Z"/><path class="cls-16" d="M942.88,880.49S814.6,999.15,796.36,1086s37.35,128,37.35,128l-66.57,47.79s-59.68-56.53-46.93-143.49S850.17,900.11,942.88,880.49Z"/><path class="cls-17" d="M873.92,972.71s37.84-61.55,86-78.05S1090.51,883,1090.51,883,963.62,903.73,873.92,972.71Z"/><path class="cls-17" d="M849.1,1090.51s71.81-117,159.07-152.75,183.05-30.31,181.83-20.55-103.73,25.64-191,85.43S802.91,1186.31,849.1,1090.51Z"/><path class="cls-18" d="M1097,937.68c1.36,3.29-8.47,10.49-22,16.08s-25.53,7.45-26.9,4.16,8.47-10.49,22-16.07S1095.63,934.39,1097,937.68Z"/><path class="cls-18" d="M1038.31,962.4c1.29,3.09-3.69,8.1-11.12,11.17s-14.49,3.06-15.77,0,3.7-8.1,11.13-11.18S1037,959.3,1038.31,962.4Z"/><path class="cls-18" d="M1006.68,896.28c1.37,3.29-8.47,10.49-22,16.08s-25.53,7.45-26.89,4.16,8.47-10.48,22-16.07S1005.32,893,1006.68,896.28Z"/><path class="cls-18" d="M948,921c1.28,3.1-3.7,8.1-11.13,11.18s-14.48,3.06-15.77,0,3.7-8.1,11.13-11.18S946.72,917.9,948,921Z"/><path class="cls-1" d="M1829,1137.09s-100.23-.82-179.55,61.42-103.73,92.65-103.73,92.65-53.09,31-108.62,0-70.17-51.77-97.63-85.33-58.58-69.82-74.44-76.4,78.52,34.91,89.91,49,50.43,45.56,74.23,51.46,81.15-2,98.24-21.57,64.68-47.29,64.68-47.29S1702.26,1119,1829,1137.09Z"/><path class="cls-19" d="M1382.82,1114.1s-22.17,24.41-14.64,39.87,60-4.88,70.78-19.94-.41-26-20.74-22S1382.82,1114.1,1382.82,1114.1Z"/><path class="cls-19" d="M1527.32,1114.1s22.17,24.41,14.64,39.87-60-4.88-70.78-19.94.4-26,20.74-22S1527.32,1114.1,1527.32,1114.1Z"/><circle class="cls-19" cx="1391.98" cy="1048.81" r="19.93"/><path class="cls-19" d="M1281.33,1062.24a13.43,13.43,0,1,1-13.43-13.43A13.42,13.42,0,0,1,1281.33,1062.24Z"/><path class="cls-19" d="M1324.72,1003.59a9.29,9.29,0,1,1-9.29-9.29A9.29,9.29,0,0,1,1324.72,1003.59Z"/><path class="cls-19" d="M1554.76,1017.66a14.07,14.07,0,1,1-14.07-14.07A14.07,14.07,0,0,1,1554.76,1017.66Z"/><path class="cls-19" d="M1594.15,1083a11,11,0,1,1-11-11A11,11,0,0,1,1594.15,1083Z"/><path class="cls-19" d="M1662.09,1043.32a5.9,5.9,0,1,1-5.9-5.9A5.9,5.9,0,0,1,1662.09,1043.32Z"/><path class="cls-19" d="M1671.44,1093.76a5.9,5.9,0,1,1-5.89-5.9A5.9,5.9,0,0,1,1671.44,1093.76Z"/><path class="cls-1" d="M1555.11,1268.07s-74.45,12.17-90.52,135S1407,1568.29,1392.38,1561c0,0,16.3,52.09,65.92,33s48.8-40.26,48.8-40.26,31.73,66.7,64.27,80.53,17.87-26.26,17.87-26.26-69.55-51-84-146.22,66.93-189.6,66.93-189.6Z"/><path class="cls-1" d="M1611.65,708.25s69.56,43.16,114.71,124.84,77.5,157.13,102.51,179.51,62.61,16.13,60.87-26.11,24.54,82.61,25.48,122.31-6.72,52.18-6.72,52.18l-25-19.83s-7-26.84-45.77-70.78-113.19-93.66-113.19-93.66l-36-118.69-44.85-102.81Z"/><path class="cls-20" d="M1392,1158.22s36,62.49,86.64,64.82-51.51,5.81-77.41,0-43.11-59.61-43.11-59.61l8.52-12.51S1370,1161.05,1392,1158.22Z"/><path class="cls-20" d="M1274.4,968s-87.45,60.58-42.29,103.15,189.16,28.54,189.16,28.54-55.54,24.13-63.17,46.74-8.84,27.7-8.84,27.7-51.86-62.24-134.85-74.44-117.29-5.9-117.29-5.9-12-32.34,30.37-62S1274.4,968,1274.4,968Z"/><path class="cls-20" d="M1562.83,960.06s-62.67,27.73-57.57,89.16,156.83,87.87,156.83,87.87l-97.43,45-9.9-10.57s-6.57-52.89-43.8-63.27-58.4-8.54-58.4-8.54l24.84-117.77s10-18.41,36-18.91S1562.83,960.06,1562.83,960.06Z"/><path class="cls-6" d="M1509.54,1169c0,2.81-10.06,5.08-22.47,5.08s-22.48-2.27-22.48-5.08,10.06-5.09,22.48-5.09S1509.54,1166.21,1509.54,1169Z"/><path class="cls-6" d="M1537.2,1169c0,1.46-4,2.64-9,2.64s-9-1.18-9-2.64,4-2.64,9-2.64S1537.2,1167.56,1537.2,1169Z"/><path class="cls-6" d="M1715.5,1049c-1.51,3-11.34,1.11-22-4.22s-18-12.07-16.52-15.07,11.34-1.11,22,4.21S1717,1046,1715.5,1049Z"/><path class="cls-6" d="M1744.39,1063.86c-1,1.9-7.17.71-13.89-2.66s-11.39-7.64-10.44-9.53,7.17-.71,13.89,2.66S1745.34,1062,1744.39,1063.86Z"/><path class="cls-21" d="M48.92,838.79C55,898.25,91.29,941.3,91.29,941.3l-4.1.49c-3.71-1.85-109-53.6-70.58-139.9C55.66,714,68.84,606.72,68.84,606.72s-43.16-43.93-54.38-78.59c-8.4-24.7.09-66.68,30.16-90.6L44,450.42s-25,64,13.37,97.63,58.88,28.9,58,28.9S84.56,622.74,78.8,685.32,42.77,779.24,48.92,838.79Z"/><path class="cls-22" d="M216.46,1441.66c-12.6,2-38,4.88-47-2-12.2-9.37-42.27-89.53-42.27-89.53L104.86,1327s-39.93,15.82-42.76,78.11S103,1530.31,150.46,1551.3c-76.64-25.77-114.13-98.12-116.38-119.89-3-26.85,13-103.68,24.21-119.31s18-40.12,18-40.12-50.09-86.89-23.73-196.43A255,255,0,0,0,73,1096.63c5.36,68.15,24.5,150.36,81.61,191.16,0,0-16.49,81,23.82,123.41C198.78,1432.48,210.2,1439.81,216.46,1441.66Z"/><path class="cls-23" d="M224,1440.49s-1.36,3.12-7.51,1.17C221,1441,224,1440.49,224,1440.49Z"/><path class="cls-24" d="M550.27,1174.1s99.09-19.93,111.4,0,7,212.5,7.23,234.19,1,26.57,1,26.57-46.57-44.81-71.77-15.39-39.63,65-39.63,65S529.13,1284.37,550.27,1174.1Z"/><path class="cls-15" d="M629.85,1400.76l29.29,30.78s-37.22,3.12-48.82,74.51,32.95,162.31,32.95,162.31-51.44,1.38-59,2.52-18.84,10.7-29.36-18.79-4.63-117.59-4.63-117.59,22.12-98.48,47.78-115S629.85,1400.76,629.85,1400.76Z"/><path class="cls-19" d="M1529.19,1377.21s-1.58,5.6-4.57,16.11c-1.83,5.44-2.65,11.38-3.84,18.45-1.6,7-2,15.54-2.54,25.15-.37,19.12,1.17,42.79,9.33,68.71,7.94,25.87,23,53.58,45.74,78.54s53.82,46.39,90.32,59.88c4.63,1.43,9.31,2.9,14,4.36l6.75,2.1,7.51,1.58,15.16,3.21c5,.86,9.93,1.17,14.94,1.81a234.73,234.73,0,0,0,61.88-1.14c21-2.77,41.5-9.28,61.55-17.23a263.87,263.87,0,0,0,55.52-33.69,249.11,249.11,0,0,0,44-48.15,235,235,0,0,0,27.34-58.9c2-9.59,5.75-22.79,6.09-32.19,1.64-10,1.13-21,1.27-31.54a211.54,211.54,0,0,0-13.34-61.62c-7.34-19.61-18.26-37.49-30.62-53.74s-27.78-29.78-43.44-41.94a237.48,237.48,0,0,0-51.4-28c-4.34-2.06-9-3.27-13.5-4.79l-12.56-4.09-15-3.32a93.29,93.29,0,0,0-14.07-2.54c-34.68-5.19-71.12-3-102,5.08a243.32,243.32,0,0,0-79.36,37.39c-21.53,15.36-36.69,33.11-47.9,48.32-5.38,7.82-10.23,14.81-13.4,21.5-3.53,6.5-6.62,12-8.27,16.86-3.87,9.48-5.94,14.53-5.94,14.53Zm-26.7-7.62s2-5.86,5.82-16.84c1.66-5.61,4.79-12,8.41-19.69,3.3-7.83,8.34-16.12,14.09-25.39a258.57,258.57,0,0,1,52-58.73,266.57,266.57,0,0,1,89.64-48.67,274.19,274.19,0,0,1,121.46-9.78,120.66,120.66,0,0,1,15.66,2.87l14.93,3.35.93.21,1.54.4.48.17,2,.64,4,1.29,8,2.61c5.34,1.81,10.83,3.29,16,5.84a280.61,280.61,0,0,1,60.62,34.61c37.86,28.76,68.62,69.76,84.75,117.11a247.8,247.8,0,0,1,12,74c-.73,12.6-.84,25-3.57,37.93-1.9,13.85-5.35,22.92-8.89,36a262,262,0,0,1-34.74,65.56,273.91,273.91,0,0,1-51.95,51.09,292.32,292.32,0,0,1-62.55,33.64c-22,7.81-44.39,13.88-66.93,16s-44.61,2.47-66.39-.72c-5.4-.82-10.94-1.38-16.14-2.4-5.05-1.19-10.08-2.39-15.08-3.55l-7.47-1.77-7.8-2.55q-7.41-2.52-14.72-5c-38.87-14-71.33-37.25-96.7-62.79a240,240,0,0,1-53.53-82.63,225.91,225.91,0,0,1-14.62-75.61c.06-10.77,0-20.41,1.48-29,1-8.61,1.89-16,3.35-21.08,2.43-10.65,3.74-16.32,3.74-16.32Z"/><path class="cls-25" d="M1701.83,1596.17c88.54,24.21,181.39-23,207.34-105.49s-24.79-169-113.34-193.18-181.38,23-207.35,105.48S1613.29,1572,1701.83,1596.17Zm128.93-199.11c77.4,9.73,64,116.14-13.38,106.41S1753.34,1387.33,1830.76,1397.06Zm-147.69,13.71c95.65,12,79.12,143.52-16.54,131.5S1587.42,1398.75,1683.07,1410.77Z"/><path class="cls-19" d="M876.19,1342s-1.71,6.06-4.94,17.42c-2,5.89-2.88,12.3-4.14,20-1.74,7.51-2.14,16.8-2.76,27.19-.4,20.67,1.27,46.27,10.09,74.29,8.57,28,24.81,57.93,49.44,84.91s58.19,50.16,97.65,64.74q7.53,2.32,15.16,4.72l7.3,2.27,8.11,1.71,16.4,3.47c5.44.92,10.73,1.26,16.15,2,21.51,2.66,44.43,2,66.9-1.23,22.65-3,44.87-10,66.54-18.63a284.87,284.87,0,0,0,60-36.42,269.21,269.21,0,0,0,47.6-52.06,253.93,253.93,0,0,0,29.56-63.68c2.12-10.36,6.22-24.64,6.58-34.8,1.77-10.79,1.23-22.68,1.37-34.1a228.39,228.39,0,0,0-14.42-66.62c-7.93-21.2-19.74-40.54-33.1-58.11-13.51-17.6-30-32.2-47-45.34a256.25,256.25,0,0,0-55.59-30.26c-4.68-2.23-9.72-3.53-14.59-5.18L1185,1193.8l-16.16-3.6a101.79,101.79,0,0,0-15.22-2.73c-37.5-5.61-76.89-3.29-110.24,5.48a262.85,262.85,0,0,0-85.8,40.43c-23.28,16.61-39.67,35.8-51.8,52.25-5.8,8.45-11,16-14.47,23.24-3.82,7-7.16,13-9,18.22-4.17,10.25-6.41,15.71-6.41,15.71Zm-28.87-8.24s2.19-6.33,6.31-18.2c1.78-6.07,5.16-13,9.08-21.29,3.57-8.46,9-17.43,15.23-27.45,12.86-19.63,30.72-42.53,56.23-63.49a288.14,288.14,0,0,1,96.9-52.63,296.5,296.5,0,0,1,131.33-10.57,131.62,131.62,0,0,1,16.93,3.1l16.14,3.62,1,.23,1.66.44.52.17,2.16.7,4.32,1.4,8.68,2.81c5.78,2,11.71,3.56,17.27,6.33a302.58,302.58,0,0,1,65.54,37.41c40.94,31.1,74.19,75.42,91.63,126.62a267.81,267.81,0,0,1,13,80c-.8,13.61-.9,27-3.88,41-2,15-5.77,24.78-9.6,38.89a283.47,283.47,0,0,1-37.56,70.88A296,296,0,0,1,1294,1609a316.29,316.29,0,0,1-67.63,36.36c-23.79,8.45-48,15-72.36,17.32s-48.24,2.67-71.77-.78c-5.86-.88-11.84-1.49-17.45-2.59-5.47-1.28-10.91-2.58-16.31-3.84l-8.08-1.91-8.44-2.76q-8-2.73-15.91-5.39c-42-15.13-77.12-40.27-104.54-67.88a259.43,259.43,0,0,1-57.88-89.33,244.64,244.64,0,0,1-15.81-81.75c.06-11.65,0-22.06,1.6-31.41,1.12-9.31,2-17.35,3.62-22.79,2.63-11.52,4.05-17.65,4.05-17.65Z"/><path class="cls-26" d="M1062.85,1578.76c95.73,26.18,196.11-24.89,224.16-114s-26.8-182.69-122.54-208.86-196.1,24.87-224.18,114S967.11,1552.57,1062.85,1578.76Zm139.39-215.27c83.68,10.51,69.22,125.56-14.47,115S1118.53,1353,1202.24,1363.49Zm-159.68,14.82c103.42,13,85.55,155.16-17.88,142.17S939.15,1365.31,1042.56,1378.31Z"/><path class="cls-19" d="M1455,1239.6c-61.59,0-109.84-32.16-109.84-73.22s48.25-73.23,109.84-73.23,109.83,32.17,109.83,73.23S1516.63,1239.6,1455,1239.6Zm0-126.92c-49,0-90.31,24.59-90.31,53.7s41.36,53.69,90.31,53.69,90.3-24.59,90.3-53.69S1504,1112.68,1455,1112.68Z"/><path class="cls-19" d="M1376.12,1249c12.24,9,24.12,17.11,36.34,23.76s24.81,11.25,37.31,12.45,25-1.25,37.09-7.12,23.64-14.57,35.71-23.84a84.76,84.76,0,0,1-27.69,36.79c-12.7,9.76-30.09,15.51-47,13.6-16.9-1.62-32-9.42-44-19.32S1382.12,1263.07,1376.12,1249Z"/><path class="cls-19" d="M1527.12,1202c15.55-17.16,33.37-30,52.59-41.35a309.32,309.32,0,0,1,60.77-27c42.37-13.51,87.2-18,131.33-16.17a473.5,473.5,0,0,1,65.77,7.43c21.57,4,43.7,9.77,64.55,18.2,42,16.59,80.29,44.69,107.78,81.17,27.88,36.31,44.37,79.61,53.45,123.12a423.57,423.57,0,0,1,8,66.1c.89,22,.89,44.22-1.86,66.61a281.9,281.9,0,0,1-47.9,124.61c-25.89,36.28-60.82,67.32-103,83.11l-5.38-13c37.4-17.67,68.33-47.47,90.26-82.3a257.81,257.81,0,0,0,39.93-115.32,441.52,441.52,0,0,0-8.19-123.93c-8.49-40.46-24.36-79.12-48.5-111.57s-57.29-57.55-95.08-73c-19-7.86-38.55-13.27-59.21-17.3s-41.27-7.24-62.11-8.71c-41.63-3.1-83.74.14-123.89,11.17a289.48,289.48,0,0,0-58.14,22.37c-18.25,9.57-36.37,21.25-50.75,35Z"/><path class="cls-19" d="M1368,1207.37c-12.77-15.4-29.38-29.25-46.29-41.22a322.69,322.69,0,0,0-54.69-30.59c-38.21-17.1-79.22-27.7-120.91-32.5a557.3,557.3,0,0,0-62.91-3.49c-21-.19-41.54,1.11-61.69,5-40.22,7.5-78,25.28-108.15,52.32s-53.62,61.72-70.06,99.75a441.35,441.35,0,0,0-32.76,120.1,257.84,257.84,0,0,0,16.19,121.2c14.62,38.56,39.07,74,72.32,98.77l-7.84,11.65c-38.3-23.87-66.44-61.31-84.65-102.1a281.68,281.68,0,0,1-22.16-132c1.74-22.44,6.19-44.32,11.46-65.77a423.06,423.06,0,0,1,21.1-63.3c17.63-40.92,42.57-80.12,77.27-110.13,34.38-30.23,77.71-50,122.25-57.75,22.23-4.06,45-5.21,67-4.79a514,514,0,0,1,66,5.46c43.67,6.48,86.84,18.7,126.6,38.47a341.51,341.51,0,0,1,56.28,35.29c17.56,13.73,33.65,28.67,47.14,47.5Z"/><path class="cls-19" d="M1584.7,1665.74c31.73,19.19,65.45,35.43,100,47.22,34.55,11.55,70.47,18.63,105.64,16.27a183.18,183.18,0,0,0,97.55-35.2c28.82-20.93,52.48-49.5,73.4-80.45l8.62,4.6c-14.56,35.38-36.42,69.06-67.14,94.84a190.32,190.32,0,0,1-51.64,31,194.59,194.59,0,0,1-59.08,12.88c-40.34,2.29-79.88-6.81-115.69-21.9-35.89-15.24-69-35.6-97.64-61.56Z"/><path class="cls-19" d="M1287,1624c23,19.13,47,35.37,72.18,48.21s51.77,21.2,78.85,24,54.64-.15,81.59-8.15,53.19-20.51,79.8-34.36a206,206,0,0,1-72.18,54.67c-28.15,12.83-60.44,19-92.08,15.48-31.68-3.2-61.77-15.52-87.07-33.09S1301.24,1650.62,1287,1624Z"/><path class="cls-19" d="M841.56,1558.89a416.76,416.76,0,0,1-78.87-33.9q-9.41-5.29-18.51-11.23a141.13,141.13,0,0,1-17.68-13.86c-10.85-9.76-20.53-20-30.3-30s-19.46-19.7-29.65-28.36-21-16.34-31.69-19.78-19.47-1.63-27.61,5.68a65,65,0,0,0-11.13,13.79,165.54,165.54,0,0,0-9.45,16.94c-11.47,23.76-18.86,50.09-23.07,76.57s-5.06,53.78-.1,78.89c2.54,12.4,6.78,24.29,13.32,33s14.84,13.54,25.2,14.36c26.53,1.2,54.64.83,82.27-.29,55.49-2.23,111.21-7.44,167.44-11,28.41-2.05,59.19-2,88.94,7.75,14.85,4.75,28.9,12.23,41.25,20.55s23.52,17.22,34.17,24.51c9.68,6.5,21.78,11.43,34.13,15.2a223.06,223.06,0,0,0,38.44,7.88,242.48,242.48,0,0,0,78.54-3.62c51.58-10.65,97.58-41.29,129.21-83.91l23.45,17.54c-17.59,23.69-39.13,44.92-64.07,61.42a243.29,243.29,0,0,1-82,34.8,264.16,264.16,0,0,1-88.67,4.38,253.41,253.41,0,0,1-43.81-9c-14.38-4.45-28.64-10-42.31-19.09-12.46-8.56-23.17-17.18-34.15-24.5s-21.84-13.07-33.72-16.9c-23.8-7.73-50.24-8.53-77.52-6.68-55.67,3.18-111.66,8-168.21,9.91-28.39.91-56.39,1.2-85.84-.39a61.71,61.71,0,0,1-25.81-8.1,64.74,64.74,0,0,1-19.61-18c-10.06-14.06-14.75-29.49-17.67-44.45-5.4-30.11-3.58-59.67,1.2-88.43,5.06-28.73,13.31-56.87,26.62-83.45,7-13.17,14.12-26.38,27.17-37.86,6.5-5.55,14.9-10.26,24.24-11.88a52.36,52.36,0,0,1,26.59,2.53c15.92,5.77,27.79,15.42,38.82,25,10.93,9.79,20.75,20.18,30.37,30.48s18.95,20.64,28.58,30A118.94,118.94,0,0,0,754.94,1498c5.52,3.91,11.21,7.64,17,11.2a402,402,0,0,0,74.17,35.08Z"/><path class="cls-19" d="M1076,1087.27a29.33,29.33,0,0,1,.77-7c.43-1.92.87-3.73,1.4-5.48A66.62,66.62,0,0,1,1082,1065a99.67,99.67,0,0,1,10.48-16.63,148.11,148.11,0,0,1,26.2-25.74c18.82-14.75,39.39-26,60.57-35.26a655.17,655.17,0,0,1,131.48-39.27c22.6-4,45.53-7.2,69.06-7.31a188.48,188.48,0,0,1,35.78,2.91c12,2.46,24.73,5.93,36.26,15.64a43,43,0,0,1,7.7,8.76,42.57,42.57,0,0,1,2.94,5.35l1.18,3,.71,2.06a122,122,0,0,1,4.37,18.53,243.22,243.22,0,0,1,2.6,35.6,536.58,536.58,0,0,1-4.7,69.55l-28.87-4.91a438.16,438.16,0,0,0,7.43-65,217.44,217.44,0,0,0-1-31.83,91.41,91.41,0,0,0-2.77-14.46l-.61-1.94-.35-1a19.52,19.52,0,0,0-1.07-2.08,19.31,19.31,0,0,0-3.34-4c-5.58-5.2-15.17-8.83-25-10.94a166.87,166.87,0,0,0-31.41-3.29,349.85,349.85,0,0,0-65.3,5.54A636.59,636.59,0,0,0,1187,1005.2c-20.07,8.66-39.69,18.79-55.82,32.58-8,6.93-15,14.74-20,23.3a50.62,50.62,0,0,0-5.43,13.1,38.65,38.65,0,0,0-1.07,6.35,15,15,0,0,0,0,2.85c.08.66.29,2.14.44,1.39Z"/><path class="cls-19" d="M1802.85,1139.14c0,.77.48-.65.67-1.29a14.65,14.65,0,0,0,.5-2.81,38.28,38.28,0,0,0,0-6.44,50.76,50.76,0,0,0-3.14-13.83c-3.42-9.28-9.05-18.18-15.72-26.35-13.56-16.34-31.17-29.66-49.47-41.61a635.77,635.77,0,0,0-119.24-58,349.2,349.2,0,0,0-63.4-16.57,166.85,166.85,0,0,0-31.52-2.09c-10.09.4-20.14,2.35-26.54,6.53a18.44,18.44,0,0,0-4,3.35,16.36,16.36,0,0,0-1.42,1.86l-.51.89-.93,1.81a91,91,0,0,0-5.18,13.78,216.65,216.65,0,0,0-6.38,31.19,436.22,436.22,0,0,0-3.72,65.28l-29.29-.07a536.07,536.07,0,0,1,7.2-69.33,240.08,240.08,0,0,1,8.61-34.64,120.4,120.4,0,0,1,7.46-17.52l1-1.91,1.67-2.72a42.26,42.26,0,0,1,3.81-4.78,42.76,42.76,0,0,1,9.07-7.31c13-7.62,26.16-8.88,38.4-9.26a188.16,188.16,0,0,1,35.75,3.22c23.16,4.11,45.22,11.11,66.82,18.94a654.72,654.72,0,0,1,122.88,61c19.3,12.74,37.66,27.31,53.7,45a148,148,0,0,1,21.44,29.83,99,99,0,0,1,7.5,18.16,66.11,66.11,0,0,1,2.16,10.3c.22,1.81.35,3.67.45,5.64a30,30,0,0,1-.43,7.07Z"/><path class="cls-19" d="M1056.37,1050.76c10.05-16.45,23.32-30.84,37.6-43.9a344.29,344.29,0,0,1,46.23-35.35c33-20.76,69.07-36.4,106.44-47.45,74.9-22.29,153.88-27.06,231.16-22.2,38.93,2.9,77.55,8.68,115.35,18.45,37.68,10,74.61,23.28,109.28,41.18a466.16,466.16,0,0,1,96.47,65.24,429.34,429.34,0,0,1,40.65,41.52c12.54,14.7,24.14,30.3,33.26,47.28-22.27-31.33-49.88-58.29-80-81.43a505.2,505.2,0,0,0-97-58.92C1627,943.39,1552,926.36,1476.57,921.34c-75.76-5.15-152.41-1.31-225.87,17.34-36.61,9.49-72.39,22.74-105.66,41C1111.78,997.81,1080.47,1020.78,1056.37,1050.76Z"/><path class="cls-19" d="M1930.59,1156.54l-29.26-1.48c.22-4.47,17.68-448.62-374.27-600.68-162.52-63.06-313.77-25.17-449.53,112.61C974.69,771.36,919.84,896.74,919.3,898l-26.89-11.61c2.28-5.3,57.23-131.08,163.69-239.38,142.8-145.27,309.3-186.77,481.56-119.94C1949.6,686.88,1930.82,1151.87,1930.59,1156.54Z"/><path class="cls-19" d="M551.7,1480.78c-6.33-19.37-10.43-37.72-14.13-56.74s-6.35-37.88-8.37-56.92a796.27,796.27,0,0,1-3.71-114.59,886.92,886.92,0,0,1,38.78-225C608.88,882.36,690.12,746.49,803.43,644A761.38,761.38,0,0,1,993.17,517.46c69.15-32.34,143.4-53.45,219.07-63.28a755.62,755.62,0,0,1,114.14-5.71c38.06.9,76.26,4,114.06,11s75.22,18.39,110.14,36.66a239.09,239.09,0,0,1,49.17,33.64,176.47,176.47,0,0,1,21,22.26,138.23,138.23,0,0,1,9,12.85c1.4,2.26,2.74,4.58,4,7a68.9,68.9,0,0,1,3.77,8.41l-27.82,9.17a42.09,42.09,0,0,0-1.91-4.48c-.84-1.75-1.8-3.54-2.81-5.31a112,112,0,0,0-6.84-10.45A148.92,148.92,0,0,0,1581,550a212,212,0,0,0-42.74-31.19c-31.31-17.56-66.53-28.68-102.42-36.17s-72.95-11-110-12a733.11,733.11,0,0,0-110.92,4.9c-147.26,18-287.08,85.15-396,185.38A790.41,790.41,0,0,0,678.42,832.25a859.64,859.64,0,0,0-51.57,98.31A911.87,911.87,0,0,0,588,1034.84a820.35,820.35,0,0,0-35.93,218.56A769,769,0,0,0,557,1364c2.16,18.31,5,36.52,8.67,54.51,3.65,17.83,8.11,36.18,13.67,52.49Z"/><path class="cls-19" d="M1297.42,534.52c-48,10.72-96.13,27.4-142.28,46.74a916.69,916.69,0,0,0-133.57,69.48c-84.93,53.43-161.15,121.62-219,203.61C744.41,936,705,1030.68,686.78,1129.43c-18.48,98.81-16.82,201-.43,300.12l-29,4c-11-102.38-11.41-206.57,8.25-308.1C684.69,1024,724.51,926,784.43,841.54c59.66-84.61,137.22-155.74,224-211.48a1019.61,1019.61,0,0,1,136.17-73.21c47.38-20.76,95.49-38.56,146.73-51Z"/><path class="cls-19" d="M1396.1,473.4c-14.71-8.94-31.43-16.9-47.92-24-16.64-7.17-33.7-13.45-51-19A725.41,725.41,0,0,0,1191,405c-71.91-11.62-145.65-14.94-218.11-5.84l-1.49-19.47c74.22-2,148.55-1,221.95,10.7A833,833,0,0,1,1302,414.81c35.65,11.1,70.51,23.29,104.3,41.95Z"/><path class="cls-19" d="M1420.65,468.12l-19.24-3.37c.33-1.88,32.1-189.72-34.31-348.61-24.95-59.72-65.6-93-117.57-96.35-54-3.37-101.64,26.06-109,38.88-18.75,32.5-32.43,61.31-10,84.78,12.19,12.73,34.26,17.71,53.66,12.1,10.69-3.09,29.42-12.11,34.68-37.81l19.13,3.91c-5.34,26.13-23,45.32-48.4,52.66-26.46,7.65-55.89.68-73.16-17.35-34.46-36-9.43-79.34,7.13-108,12.86-22.32,69-52.3,127.19-48.61,41.76,2.66,99,23.61,134.35,108.29C1453.78,272.88,1422,460.23,1420.65,468.12Z"/><path class="cls-19" d="M1188.69,390.94a501.86,501.86,0,0,0,52.14-68.18c14.93-24,27.17-49.64,31.94-75.89,2.2-13.1,2.64-26.23.32-38.87s-7.46-24.61-14.52-35.79c-13.88-22.78-35.58-41.65-58.19-62.28,30,5.85,58.78,21.52,79.36,47.38,20.34,26.05,27.93,62.48,21.89,94.48-5.45,32.32-20.12,61-37.55,86.3a326.76,326.76,0,0,1-62.25,67.3Z"/><path class="cls-19" d="M824.51,617.2c-1.23-25,3.88-50.27,12.64-74A214.14,214.14,0,0,1,876,477.61a246.31,246.31,0,0,1,27.36-26.73c9.36-8.06,18.39-16.16,27.19-24.64,17.51-16.92,33.76-35,46.65-55.1,26.56-40,36.48-88.36,37-136.68a313.08,313.08,0,0,0-1.14-36,209.55,209.55,0,0,0-6.7-34.79,196.45,196.45,0,0,0-30.65-63.21c-13.81-18.92-31.25-35.12-51.4-46.57a144.68,144.68,0,0,0-65.93-19c-23.13-1-46.48,3.47-68.46,11.87S747,66.93,733.28,84c-13.91,16.77-17.63,39.11-10.34,59.74,7,20.47,22.93,39,42.12,48.93,9.49,5,19.91,7,29.66,5.43,9.91-1.47,19.22-6.6,27.27-14,16.07-14.8,27.66-37,34.82-58.56l18.76,5.41a188.16,188.16,0,0,1-15.39,36.26c-6.41,11.46-14.12,22.55-24.31,32S812.68,216.29,798,218.57c-14.82,2.47-29.83-.79-42.31-7.18a109.93,109.93,0,0,1-53-60.73,85.58,85.58,0,0,1-3.91-41.92,83.16,83.16,0,0,1,17.65-38.32c17.78-21.78,42-34.48,66-43.72,24.26-9.2,50.58-14.28,77-13.06a166,166,0,0,1,75.46,22c22.94,13.13,42.52,31.47,57.83,52.6a216.89,216.89,0,0,1,33.06,70.19,229.44,229.44,0,0,1,6.87,38.19,324.38,324.38,0,0,1,.79,38.3c-.74,25.28-3.57,50.79-10.19,75.63a233.36,233.36,0,0,1-31.42,70.14c-14.14,21.48-31.53,40.28-49.82,57.54-9.13,8.6-18.66,16.93-28.16,24.92A229.89,229.89,0,0,0,887.72,488C855.77,523.63,834.28,568.52,824.51,617.2Z"/><path class="cls-19" d="M853.87,157.43a85.06,85.06,0,0,1,20.64,16.25,67.7,67.7,0,0,1,14.32,22.74,58.78,58.78,0,0,1,3.1,27.49,75.48,75.48,0,0,1-8.2,25.33,68,68,0,0,1-7.28,11.35,100.52,100.52,0,0,1-8.58,9.51A215.44,215.44,0,0,1,849.62,286c-12.44,9.86-25.26,18.7-38.22,27.23-51.81,33.93-104.74,64.84-154.26,100.22-24.76,17.54-48.86,36.08-69.74,57.29a212.44,212.44,0,0,0-27.72,34.53A409.8,409.8,0,0,0,536.55,544c-13.92,26.46-23.25,54.92-24.21,84.36-1.44,29.44,4.09,59.53,7.07,90.52-12.84-28.18-22.19-58.57-22.38-90.83s10-63.82,24-91.89a432.71,432.71,0,0,1,23.37-40.84,232.25,232.25,0,0,1,29.18-37.78c21.86-23,46.36-42.55,71.36-61,50.28-36.47,103.62-67.69,154.45-101.35,12.63-8.48,25.16-17,36.94-26.1,11.56-9.14,23.18-18.72,28.76-29.65,6.44-11.85,8.59-24.61,4.39-36.09-3.84-11.4-14.09-22.23-24.9-28.76Z"/><path class="cls-19" d="M315.71,809.41l-12.43-15c.18-.16,28.67-25.67,101.41-157.07,76.4-138,166-178.17,169.8-179.81l7.78,17.91-3.89-9,3.91,8.95c-.87.38-87.61,39.66-160.52,171.37C346.08,783.48,316.91,808.42,315.71,809.41Z"/><path class="cls-19" d="M242.38,1364.48c9.39,10,16.43,22.7,18.44,37.65a46.1,46.1,0,0,1-17.35,42.55,70.81,70.81,0,0,1-20,11.28l-2.85,1-2.39.77c-2,.54-4.2,1.14-6.09,1.46a62.31,62.31,0,0,1-12.05,1c-16.34-.28-31.51-7.36-43.09-17-23.28-19.65-36.14-47.83-39.48-76.93a111.36,111.36,0,0,1,3.91-44.07,101.24,101.24,0,0,1,22-38.84C164.33,1260.29,195,1250,224,1249.83c29.25-.28,57.88,8.31,82.49,23.33a159.59,159.59,0,0,1,58.58,62.62,168.59,168.59,0,0,1,14.73,40.4,182.68,182.68,0,0,1,4.81,42.71c-.13,28.72-7.55,57.91-22.95,82.85a145.76,145.76,0,0,1-65.19,56.58c-26.61,11.83-55.71,15.87-83.81,14.64a260,260,0,0,1-82-17.17c-26.31-10.23-50.89-26.32-70.15-47.74a156.29,156.29,0,0,1-37.79-76.51c-5.24-28.33-2.33-57.75,7-84.5s25.21-50.87,44.48-71l14.25,13.35c-17.15,18.8-30.62,40.8-38.41,64.57s-9.93,49.19-5.1,73.34A132.88,132.88,0,0,0,78.06,1492c16.7,18.16,38.26,31.58,61.59,40.72,46.75,17.42,101.75,22.45,146.49,2.53a120.19,120.19,0,0,0,53.78-46.88c12.63-20.61,18.89-45,18.93-69.61a169.6,169.6,0,0,0-4.08-36.67,143.1,143.1,0,0,0-12.24-34.72,134.67,134.67,0,0,0-49-53.28c-20.74-13-45.18-20.44-69.38-20.41-24-.11-48.13,8.38-63.57,25.12-16.19,17.2-23.27,41.29-20.8,65.17,2.32,23.7,13.36,47.59,31,62.56,8.77,7.43,19.21,12.12,29.73,12.4a41.49,41.49,0,0,0,7.86-.58c1.41-.22,2.41-.46,3.67-.73l2.4-.7,1.87-.61a66,66,0,0,0,15.33-7.23c9-5.89,14.83-14.77,16-26.7S246.47,1377.42,242.38,1364.48Z"/><path class="cls-19" d="M123.89,1347.05c-16.31-11.93-28-25.78-38.87-41a240.23,240.23,0,0,1-25.93-48.8C45.56,1223,39.44,1186.36,38.42,1150.1c-1.79-72.87,15.48-144,39.8-211.22l4.49,11.92a214.51,214.51,0,0,1-40.2-30.16c-12.1-11.56-23-24.81-31-40.28S-1.07,847,.22,829.16a96,96,0,0,1,5.44-25.94l8.87-22.49a863.29,863.29,0,0,0,29.14-89.89c7.79-30.3,14.85-61.65,16.11-91.73l3.81,7.94a225.91,225.91,0,0,1-30.81-30c-9.23-11-17.6-22.93-23.81-36.48s-10.08-29-8.39-44.89,9.14-30.82,19.24-42.06c10.26-11.51,21.78-19.95,34.84-27.25a110.87,110.87,0,0,1,42.53-13.54,96.79,96.79,0,0,1,44.73,6.15,110.8,110.8,0,0,1,37.39,24.43c21.2,20.88,34.53,48.52,39.29,77.36a146.9,146.9,0,0,1,.66,43.76A148.25,148.25,0,0,1,214.7,586l-6,19.71c-15.73,52-29.84,104.9-40.91,157.83h0L157,751.92a229.52,229.52,0,0,1,92.2,3.39,160.29,160.29,0,0,1,44.07,17.92,117.55,117.55,0,0,1,35.75,33c9.51,13.43,15.29,29.1,18,44.69s2.19,31.38.22,46.48c-4.08,30.33-14.82,58.6-28,85.08,7.95-28.5,14.2-57.46,14.87-86.1.52-28.47-5.76-56.77-22.54-77.16-16.51-20.65-42-32.32-68.62-39.1-26.74-6.59-55.76-9-83.66-8.83l-13.93.11,3.21-11.69v0C159.91,705.56,174.07,652.64,190,600l6-19.51a127,127,0,0,0,3.38-56.57c-4.09-25-15.82-49-33.69-66.6-17.69-17.64-42.21-27.74-66.54-25.1A91.16,91.16,0,0,0,64,443.46c-10.8,6-21.64,14-29.51,23-8.1,9.09-13.35,19.82-14.51,31.23s1.56,23.44,6.74,34.75c10.5,22.59,29.07,43,48.75,59.14l4,3.3-.2,4.64c-1.47,33.71-8.77,65-16.74,96.31a882.48,882.48,0,0,1-29.82,92l-8.68,22a76.85,76.85,0,0,0-4.36,20.71c-1,14,2.46,28.11,9.15,41,13.42,25.74,37.83,47.11,63.22,62.23L99.32,938l-2.76,7.6c-23.79,65.64-40.37,134.75-38.62,204,1,34.45,6.78,68.78,19.31,100.49a221.09,221.09,0,0,0,23.8,44.82c9.5,13.63,21.33,27,33.67,35.94Z"/><path class="cls-19" d="M549.15,481.14c-14.11-33-34.24-65.94-61.76-87.6-13.75-10.71-29.8-17.72-46.5-18.29-16.42-.57-34.54,4.57-48.6,13.19a63.16,63.16,0,0,0-28.19,39.84A75.55,75.55,0,0,0,370,478.39c3.79,7.52,9.35,14.36,15.72,18.54,7.13,4.81,13.54,6,19.93,2.4,6.45-3.79,11.88-11.46,16.26-19.42a188.43,188.43,0,0,0,11.45-25.83,104.21,104.21,0,0,1-4.64,28.71c-3.1,9.28-7.22,19.06-16.56,26.25a26,26,0,0,1-17.3,5.24c-6.11-.35-11.89-2.82-16.25-5.34-9.79-6-16.63-14.36-21.76-23.54a91.14,91.14,0,0,1-9.15-60.61A81,81,0,0,1,382,372.89a96.79,96.79,0,0,1,28.45-13.06,101.21,101.21,0,0,1,31.06-4.25c21.5.45,42,9.37,58.2,21.76,16.48,12.36,29.4,28,40.43,44.39a266.3,266.3,0,0,1,27.27,52.55Z"/><path class="cls-19" d="M461.56,552.05c-6.47-39.89-41.27-61.2-41.63-61.41l10-16.79c1.76,1,43,26,50.93,75.07Z"/><path class="cls-19" d="M426.7,1499.48c-39.68,0-68.9-7.62-71.3-8.26l5.07-18.86c1.1.3,111,28.79,192.36-28.6l11.25,16C519.05,1491.47,467.38,1499.48,426.7,1499.48Z"/><path class="cls-19" d="M2065.49,1678.72c-38.47,0-74.56-6.61-99.34-25.49L1978,1637.7c60.61,46.14,218.92,5.57,274.82-14,10.59-3.7,17-7.86,18.62-12,2.22-5.86-3.76-16.57-10.09-27.91-5.05-9-10.78-19.32-14.57-30.72-4.74-14.21-5.81-35.39-7-59.92-2.09-41.72-4.7-93.63-28.29-105.26-8.1-4-10.38-3-10.41-3-3,1.51-5.49,16.24-7.16,26-3.69,21.53-8.75,51-27.22,80.27-41.31,65.47-131.22,87.47-135,88.38l-4.52-19c.85-.21,86-21.15,123-79.8,16.39-26,20.88-52.13,24.49-73.15,3.4-19.81,5.86-34.12,17.54-40.08,9.71-4.94,20.56-.72,27.9,2.9,33.89,16.71,36.69,72.54,39.16,121.8,1.12,22.14,2.17,43,6.06,54.72,3.22,9.68,8.24,18.68,13.11,27.39,8.6,15.42,16.73,30,11.27,44.35-3.86,10.17-13.53,17.65-30.42,23.55C2253.24,1644.28,2153.22,1678.72,2065.49,1678.72Z"/><path class="cls-19" d="M2260.35,1512.9a115,115,0,0,1-9.17,35.67,89.71,89.71,0,0,1-20.51,29.8,74.4,74.4,0,0,1-30.84,17.36c-11.25,3.21-22.85,3.84-34.13,3.07,11.28-.84,22.44-3.14,32.47-7.66a67.14,67.14,0,0,0,25.36-19.43,77.82,77.82,0,0,0,13.88-28.09,99.08,99.08,0,0,0,3.41-30.67Z"/><path class="cls-19" d="M1710.19,979.69c-.75-13.24-21.41-324.32-283.73-326.69-220.26-2-269.75,217.84-270.23,220.06l-19.1-4c.5-2.37,52.52-235.57,286.3-235.57h3.2c280.65,2.54,302.86,341.7,303,345.12Z"/><path class="cls-19" d="M1660.19,953.42c-12.08-69.3-58.4-231-227.13-235.33-163.91-4-219.45,165-221.74,172.16l-18.63-5.87c.59-1.88,60.56-185.9,234.44-185.9q3.19,0,6.43.09c183.16,4.72,233,177.45,245.87,251.5Z"/><path class="cls-19" d="M1638.84,940.72l-19.5-1.05c.3-5.69,5.3-139.58-156.21-163.93C1300.17,751.18,1247.5,894,1247,895.47l-18.4-6.54c.57-1.61,58.71-159.44,237.45-132.49C1645.44,783.48,1638.93,939.16,1638.84,940.72Z"/><path class="cls-19" d="M1571.35,926.68c-.45-1.06-46.43-105.74-137-105.74h-.83c-95.66.68-140.13,104.59-140.57,105.64l-18-7.49c2-4.78,49.73-116.9,158.46-117.68h1c103.5,0,152.83,112.77,154.89,117.59Z"/><path class="cls-19" d="M1284.58,922.33c-54.08-20.62-111.49-35.37-168.93-42.43s-116.16-6.31-170.24,10C918.48,898,892.85,909.79,870.26,926A232.77,232.77,0,0,0,838.74,953c-9.45,9.81-19,21.45-28,32.5-18.07,22.56-34.73,46.15-48.38,71-13.48,24.84-24.54,50.94-28.78,77.6s-1.13,53.42,11.87,75.43a99,99,0,0,0,25.07,28.8l3.87,2.86,1,.7c.7.43-.68-.41-.42-.26l.3.18.59.37,1.19.72c.32.18.15,0,.25.06a8.11,8.11,0,0,0,3.35.63c3.07,0,8.28-2,13.37-5.22,10.42-6.58,20.77-16.64,30.66-26.85s19.64-21.33,29.29-32.44c19.29-22.27,38.48-45.09,58.69-67.17S954,1068.36,977,1048.76a424.37,424.37,0,0,1,36.17-27.64c12.62-8.41,25.3-16.22,38.27-23.79a623.89,623.89,0,0,1,80.66-39.92c28.07-11,56.57-20.4,87.93-22.57l.3,10.69c-13.56,1.41-28.07,5.36-41.73,9.8s-27.4,9.8-40.72,15.76a606.38,606.38,0,0,0-77,41.73c-24.87,15.79-48.64,32.17-69.9,51.85-21.48,19.47-41.32,40.93-60.4,63.17s-37.33,45.4-56.09,68.54c-9.4,11.56-18.94,23.13-29.19,34.47s-21,22.5-35.42,32.25c-7.31,4.63-15.85,9.5-27.7,10.38a37.67,37.67,0,0,1-18.24-3.41l-2.27-1.12-1.21-.69-1.91-1.15-1.3-.87c-1.75-1.16-3.47-2.37-5.14-3.62a129.58,129.58,0,0,1-33.79-37c-17.71-29.17-21.68-64.68-16.61-96.39,5-32,17.1-61.49,32.16-88.4s33-51.82,52.08-75.33c9.8-11.83,19.12-23,30.29-34.51a262.17,262.17,0,0,1,36-30.48A277.48,277.48,0,0,1,937,860.74c60.19-16.59,122.59-15.72,182.28-7a679.55,679.55,0,0,1,88.24,19.78c28.94,8.48,57.12,18.32,84.92,30.89Z"/><path class="cls-19" d="M1256.93,908.14c-37.11-5.06-75.39-5.79-113-3.63-37.61,2.58-75,8.75-110.79,19.79a363.92,363.92,0,0,0-100.8,48.46c-30.87,21.29-58.37,47.72-82.26,78a268.07,268.07,0,0,1,73.42-89.91c30.79-24.57,66.71-42.27,104-54.41s76.43-18.36,115.42-20,78,.6,116.51,8.71Z"/><path class="cls-19" d="M1387.51,1546.32c10,9.48,19.46,18.34,29.41,25.62s20.44,12.31,30.56,13,20.55-2.89,30.76-9.52,19.87-15.41,30.49-24.23a83.8,83.8,0,0,1-20.8,36c-9.87,10.21-25.19,18.68-41.88,17.23-16.58-1.26-30-10.76-39.39-21.3A82.89,82.89,0,0,1,1387.51,1546.32Z"/></g></g></svg>