<?xml version="1.0" encoding="UTF-8" standalone="no"?>
<svg
   xmlns:dc="http://purl.org/dc/elements/1.1/"
   xmlns:cc="http://creativecommons.org/ns#"
   xmlns:rdf="http://www.w3.org/1999/02/22-rdf-syntax-ns#"
   xmlns:svg="http://www.w3.org/2000/svg"
   xmlns="http://www.w3.org/2000/svg"
   xmlns:sodipodi="http://sodipodi.sourceforge.net/DTD/sodipodi-0.dtd"
   xmlns:inkscape="http://www.inkscape.org/namespaces/inkscape"
   viewBox="0 0 158.23569 180.21754"
   version="1.1"
   id="svg78"
   sodipodi:docname="remember-password.svg"
   width="158.23569"
   height="180.21753"
   inkscape:version="0.92.5 (2060ec1f9f, 2020-04-08)">
  <metadata
     id="metadata82">
    <rdf:RDF>
      <cc:Work
         rdf:about="">
        <dc:format>image/svg+xml</dc:format>
        <dc:type
           rdf:resource="http://purl.org/dc/dcmitype/StillImage" />
        <dc:title>2Recurso 7</dc:title>
      </cc:Work>
    </rdf:RDF>
  </metadata>
  <sodipodi:namedview
     pagecolor="#ffffff"
     bordercolor="#666666"
     borderopacity="1"
     objecttolerance="10"
     gridtolerance="10"
     guidetolerance="10"
     inkscape:pageopacity="0"
     inkscape:pageshadow="2"
     inkscape:window-width="1920"
     inkscape:window-height="1016"
     id="namedview80"
     showgrid="false"
     fit-margin-top="0"
     fit-margin-left="0"
     fit-margin-right="0"
     fit-margin-bottom="0"
     inkscape:zoom="4.6536235"
     inkscape:cx="109.18516"
     inkscape:cy="36.448359"
     inkscape:window-x="0"
     inkscape:window-y="27"
     inkscape:window-maximized="1"
     inkscape:current-layer="svg78" />
  <defs
     id="defs4">
    <style
       id="style2">.cls-1{fill:#444;}.cls-2{fill:#eef2fb;}.cls-3{fill:#30271f;}.cls-4{fill:#d9589b;}.cls-5{fill:#eaa6ca;}.cls-6{fill:#d679af;}.cls-7{fill:#f7fbfe;}</style>
  </defs>
  <title
     id="title6">2Recurso 7</title>
  <path
     class="cls-1"
     d="M 113.65574,14.182057 C 115.98442,1.9924994 127.30007,-1.5563547 138.92891,0.58687934 150.55775,2.7301088 160.3629,9.7338645 157.83493,22.060106 c -2.19601,11.963079 -13.401,11.187016 -18.7765,13.525997 -2.50207,1.070746 -1.62775,8.044874 -1.62775,8.044874 0,0 -2.07975,0.874428 -6.93809,-0.01545 -4.85833,-0.889881 -6.92557,-2.535916 -6.92557,-2.535916 l 0.0957,-0.494116 c 2.16287,-11.287054 7.25329,-12.996975 12.04475,-14.501865 4.79148,-1.504896 9.93665,-1.234231 10.86186,-6.180031 1.17337,-6.360383 -4.41579,-8.918701 -9.5261,-9.855537 -5.2505,-0.9831969 -7.17643,1.742649 -8.21117,6.931152 z m 22.2649,40.752869 c -1.83017,9.948952 -17.01457,7.163375 -15.16469,-2.789052 1.84988,-9.952427 16.96476,-7.21552 15.16469,2.789052 z"
     id="path8"
     inkscape:connector-curvature="0"
     style="fill:#444444" />
  <path
     class="cls-1"
     d="M 66.906374,18.762442 Q 58.849108,31.230997 48.847063,48.794664 C 47.383815,48.61604 45.972115,48.499407 44.602116,48.446502 a 50.46,50.46 0 0 0 -7.056884,0.289817 q 0.172585,-3.858589 0.876329,-11.557761 -2.672784,3.903426 -7.717698,11.687727 a 53.9,53.9 0 0 0 -7.606471,-0.811477 c -1.024745,-0.05286 -2.039075,-0.04663 -2.908582,-0.02531 q 0.510585,-5.857653 1.987833,-14.698487 1.594999,-9.958255 3.339666,-17.282483 l 8.23444,0.62967 q -3.240061,13.355523 -3.623553,21.719178 2.355337,-3.918531 4.660268,-7.777403 a 81.31,81.31 0 0 1 5.336859,-7.683464 31.84,31.84 0 0 1 0.673743,-4.414052 l 8.59292,1.338183 A 100,100 0 0 0 46.89623,39.055461 q 0.90046,-1.803765 5.995377,-10.916938 c 1.2087,-2.24398 3.070981,-5.618629 5.755421,-10.031822 z"
     id="path10"
     inkscape:connector-curvature="0"
     style="fill:#444444" />
  <path
     class="cls-1"
     d="m 80.758814,47.798107 -7.032476,-0.262815 0.525902,-3.524874 a 26.23,26.23 0 0 0 -5.937556,-0.790971 c -0.440832,-0.02381 -0.950601,-0.03547 -1.539144,-0.03324 l -2.3293,4.066255 -6.984964,-0.28135 q 6.106441,-9.768782 17.5993,-25.442615 l 9.13868,0.805319 a 152.51,152.51 0 0 0 -3.440442,25.464291 z m -5.711133,-8.548138 q 0.328844,-2.799636 0.639158,-5.646775 a 41.3,41.3 0 0 1 1.163413,-5.668137 q -2.598589,3.575561 -7.378698,10.846075 c 0.496448,-0.0063 0.943655,-0.0039 1.343358,0.01698 a 25.59,25.59 0 0 1 4.232769,0.451852 z"
     id="path12"
     inkscape:connector-curvature="0"
     style="fill:#444444" />
  <path
     class="cls-1"
     d="M 112.52961,39.840269 A 18.45,18.45 0 0 1 95.710924,50.533254 q -5.55706,-0.187881 -7.4351,-4.273837 a 10.11,10.11 0 0 1 0.143071,-8.229876 l 5.497577,-13.682512 6.431148,0.480544 -5.517272,13.685986 a 7.3,7.3 0 0 0 -0.493006,4.402491 3.29,3.29 0 0 0 3.490997,2.522112 6.87,6.87 0 0 0 4.947341,-1.887778 12.13,12.13 0 0 0 2.82863,-3.941061 l 6.01316,-13.925737 6.44332,0.549477 z"
     id="path14"
     inkscape:connector-curvature="0"
     style="fill:#444444" />
  <ellipse
     class="cls-2"
     cx="57.966736"
     cy="104.88882"
     rx="3.76"
     ry="5.6399999"
     id="ellipse16"
     style="fill:#eef2fb" />
  <ellipse
     class="cls-2"
     cx="91.776726"
     cy="104.88882"
     rx="3.76"
     ry="5.6399999"
     id="ellipse18"
     style="fill:#eef2fb" />
  <path
     class="cls-3"
     d="m 83.036731,127.25883 -8.2,8.16 -8.24,-8.16 a 10.35,10.35 0 0 1 16.47,0 z"
     id="path20"
     inkscape:connector-curvature="0"
     style="fill:#30271f" />
  <path
     class="cls-4"
     d="m 74.836731,134.93884 7.69,-7.51 c -3.903504,-5.01674 -11.486496,-5.01674 -15.39,0 z m 0,5.64 c 0,0 -6.47,6.33 -13.45,7.36 -0.628389,0.1 -1.263703,0.15016 -1.9,0.15 -5.29,0 -9.59,-3 -9.59,-11.27 -0.10933,-2.86035 0.301307,-6.02636 1.65,-8.32 l 12.81,-17.85006 c 1.815797,-2.51536 2.795265,-5.53772 2.8,-8.64 V 84.208779 c 0.0075,-1.998141 0.814066,-3.910237 2.24,-5.31 1.456665,-1.415284 3.409021,-2.204839 5.44,-2.2 4.191935,-0.04442 7.626049,3.31806 7.67,7.51 v 17.800001 c 0.0047,3.10228 0.984203,6.12464 2.800005,8.64 l 12.81,17.85006 c 1.533546,2.91826 1.649986,5.21998 1.649986,8.32 0,8.3 -4.299986,11.27 -9.589986,11.27 -0.63629,-2.1e-4 -1.27157,-0.0504 -1.9,-0.15 -6.990005,-1.03 -13.440005,-7.36 -13.440005,-7.36 z"
     id="path22"
     inkscape:connector-curvature="0"
     style="fill:#d9589b"
     sodipodi:nodetypes="cccccccccccccccccccccc" />
  <path
     class="cls-5"
     d="m 57.966731,110.51878 c 2.07,0 3.76,-2.52 3.76,-5.63 0,-3.11 -1.69,-5.640001 -3.76,-5.640001 -2.07,0 -3.76,2.570001 -3.76,5.640001 0,3.07 1.69,5.63 3.76,5.63 z m 9.39,-8.51 a 15,15 0 0 1 -2.74,8.64 l -12.55,17.85006 a 11.27,11.27 0 0 0 -1.54,4.58 h -0.07 l -8,-20.90006 a 20.11,20.11 0 0 1 0,-14.540001 l 3.38,-8.89 a 18.92,18.92 0 0 1 17.54,-12 h 11.46 a 7.51,7.51 0 0 0 -7.52,7.51 z"
     id="path24"
     inkscape:connector-curvature="0"
     style="fill:#eaa6ca" />
  <path
     class="cls-5"
     d="m 88.026736,104.88878 c 0,3.11 1.69,5.63 3.75,5.63 2.06,0 3.75999,-2.52 3.75999,-5.63 0,-3.11 -1.69999,-5.640001 -3.75999,-5.640001 -2.06,0 -3.75,2.570001 -3.75,5.640001 z m -2.9,5.76 a 15,15 0 0 1 -2.740005,-8.64 V 84.218779 a 7.51,7.51 0 0 0 -7.55,-7.51 h 11.549995 a 18.92,18.92 0 0 1 17.549994,12 l 3.4,8.87 a 20.25,20.25 0 0 1 0,14.540001 l -7.999998,20.90006 h -0.08 a 11.12,11.12 0 0 0 -1.539986,-4.58 z"
     id="path26"
     inkscape:connector-curvature="0"
     style="fill:#eaa6ca" />
  <path
     class="cls-4"
     d="m 89.746736,155.00883 c 1.66,2.66 3.91,4.08 3.91,9.15 0,6.88 -18.780005,6.88 -18.780005,6.88 0,0 -18.79,0 -18.79,-6.88 0,-5.07 2.26,-6.49 3.91,-9.15 a 12.26,12.26 0 0 0 1.73,-6.92 h 26.300005 a 12.35,12.35 0 0 0 1.72,6.92 z"
     id="path28"
     inkscape:connector-curvature="0"
     style="fill:#d9589b" />
  <path
     class="cls-5"
     d="m 58.176731,157.64883 c -0.65,1.2 -1.42,1.81 -1.68,3.4 -0.33,2.08 18.38,2.09 18.38,2.09 0,0 18.810005,0 18.370005,-2.09 -0.28173,-1.23552 -0.82756,-2.39541 -1.6,-3.4 6.07734,6.23151 10.974954,-0.22517 25.831234,5.84063 6.6768,3.34883 4.60782,10.78996 0.22138,12.49466 -16.99971,6.6066 -60.766742,3.66516 -77.79461,3.05069 -0.637631,-4.39568 -1.022492,-10.59608 -0.397209,-16.46585 9.253209,-0.63021 9.363359,-1.24988 18.7092,-4.91013 z"
     id="path30"
     inkscape:connector-curvature="0"
     style="fill:#eaa6ca"
     sodipodi:nodetypes="ccccccscccc" />
  <path
     class="cls-4"
     d="m 47.106731,81.518779 6.25,-1.78 c -2.765844,2.104776 -4.897378,4.931828 -6.16,8.17 -3.232217,7.483542 -5.928558,16.419071 -3.36,23.410001 l 8,20.91006 c -14.897521,23.09032 -21.354317,8.405 -25.66,1.91 -3.069027,-5.43529 -3.489773,-12.68818 -1.07,-18.11004 l 12.55,-26.500021 c 1.854139,-3.902735 5.296228,-6.820315 9.45,-8.01 z"
     id="path32"
     inkscape:connector-curvature="0"
     style="fill:#d9589b"
     sodipodi:nodetypes="ccccccccc" />
  <path
     class="cls-4"
     d="m 126.0892,134.35365 c -9.97862,17.52583 -21.42587,17.16724 -28.192474,-2.16481 l 7.999994,-20.91006 c 2.85993,-8.96508 -0.19236,-15.066197 -3.36,-23.330001 -1.25571,-3.24202 -3.388544,-6.070804 -6.159994,-8.17 l 6.259994,1.74 c 4.15122,1.184085 7.59107,4.099214 9.44,8 l 14.49806,25.505991 c 2.10987,6.00808 2.79725,14.26181 -0.48558,19.32888 z"
     id="path34"
     inkscape:connector-curvature="0"
     style="fill:#d9589b"
     sodipodi:nodetypes="ccccccccc" />
  <ellipse
     class="cls-4"
     cx="74.956726"
     cy="144.42885"
     rx="15.97"
     ry="6.6100001"
     id="ellipse36"
     style="fill:#d9589b" />
  <path
     class="cls-6"
     d="m 80.506731,129.30883 -5.67,5.63 -5.64,-5.63 a 8.76,8.76 0 0 0 -1.88,1.88 l 4.86,4.85 a 3.75,3.75 0 0 0 5.31,0 l 4.86,-4.85 a 8.76,8.76 0 0 0 -1.84,-1.88 z"
     id="path38"
     inkscape:connector-curvature="0"
     style="fill:#d679af" />
  <ellipse
     class="cls-3"
     cx="90.836716"
     cy="104.88882"
     rx="2.8199999"
     ry="5.4400001"
     id="ellipse40"
     style="fill:#30271f" />
  <ellipse
     class="cls-3"
     cx="58.906731"
     cy="104.88882"
     rx="2.8199999"
     ry="5.4400001"
     id="ellipse42"
     style="fill:#30271f" />
  <ellipse
     class="cls-7"
     cx="5.2456717"
     cy="160.83301"
     rx="1.55"
     ry="2.1600001"
     transform="rotate(-45.02)"
     id="ellipse44"
     style="fill:#f7fbfe" />
  <ellipse
     class="cls-7"
     cx="-7.6958203"
     cy="138.57637"
     rx="0.76999998"
     ry="1.08"
     transform="rotate(-45.02)"
     id="ellipse46"
     style="fill:#f7fbfe" />
  <ellipse
     class="cls-7"
     cx="-34.259789"
     cy="143.87309"
     rx="0.76999998"
     ry="1.08"
     transform="rotate(-45.02)"
     id="ellipse48"
     style="fill:#f7fbfe" />
  <ellipse
     class="cls-7"
     cx="-32.850853"
     cy="113.3568"
     rx="1.08"
     ry="0.76999998"
     transform="rotate(-44.98)"
     id="ellipse50"
     style="fill:#f7fbfe" />
  <ellipse
     class="cls-7"
     cx="2.6232641"
     cy="168.78746"
     rx="3.0799999"
     ry="4.29"
     transform="rotate(-45.02)"
     id="ellipse52"
     style="fill:#f7fbfe" />
  <path
     class="cls-1"
     d="m 57.836731,114.63878 a 9.75,9.75 0 1 1 9.74,-9.74 9.75,9.75 0 0 1 -9.74,9.74 z m 0,-18.490001 a 8.75,8.75 0 1 0 8.74,8.750001 8.76,8.76 0 0 0 -8.74,-8.750001 z"
     id="path54"
     inkscape:connector-curvature="0"
     style="fill:#444444;stroke:#444444;stroke-opacity:1" />
  <path
     class="cls-1"
     d="m 91.776736,114.63878 a 9.75,9.75 0 1 1 9.739984,-9.74 9.75,9.75 0 0 1 -9.739984,9.74 z m 0,-18.490001 a 8.75,8.75 0 1 0 8.739984,8.750001 8.76,8.76 0 0 0 -8.739984,-8.750001 z"
     id="path56"
     inkscape:connector-curvature="0"
     style="fill:#444444;stroke:#444444;stroke-width:1;stroke-miterlimit:4;stroke-dasharray:none;stroke-opacity:1" />
  <polygon
     points="64.36,140.32 78.2,134.89 78.2,146.91 64.36,141.6 50.52,146.91 50.52,134.89 "
     id="polygon60"
     transform="translate(9.8367313,20.818783)" />
  <circle
     cx="74.196724"
     cy="161.71884"
     r="2.8299999"
     id="circle62" />
  <ellipse
     class="cls-1"
     cx="74.956726"
     cy="144.32884"
     rx="5.8099999"
     ry="4.1300001"
     id="ellipse64"
     style="fill:#444444" />
  <path
     class="cls-5"
     d="m 39.507531,162.56896 c -10.511123,0.16182 -23.188733,-4.25156 -25.587318,-13.57054 -2.400425,-9.32612 -0.875517,-24.22877 0.7738,-27.87964 4.387138,0.28845 6.661256,-3.18366 6.843545,-6.17853 0,-1.45 -0.83,-3.54 -2.7,-4 -1.46059,-0.22086 -2.916413,0.42704 -3.73,1.66 0.580768,-0.96245 0.719213,-2.1283 0.38,-3.2 -0.564955,-1.49275 -2.025598,-2.45306 -3.62,-2.38 -1.015252,0.13826 -1.9387347,0.66085 -2.5799997,1.46 -0.8329395,0.90777 -1.3457305,2.0633 -1.4600005,3.29 -0.576306,-1.9708 -2.55123,-3.18514 -4.57,-2.81 -1.93,0.44 -2.73000003,2.63 -2.65000003,4.26 0.09487,1.7486 1.20645903,3.279 2.84000003,3.91 -2.84967903,13.47902 -4.31241947,21.76668 -2.90674873,32.52661 C 3.4524233,172.52158 31.223648,178.0766 39.90474,179.03481"
     id="path66"
     inkscape:connector-curvature="0"
     style="fill:#eaa6ca"
     sodipodi:nodetypes="csccccccccccccc" />
  <ellipse
     class="cls-1"
     cx="-62.329735"
     cy="94.338608"
     rx="2.4100001"
     ry="2.9200001"
     transform="rotate(-35.72)"
     id="ellipse68"
     style="fill:#444444" />
  <ellipse
     class="cls-1"
     cx="-90.107361"
     cy="66.282997"
     rx="3.1199999"
     ry="2.3900001"
     transform="rotate(-59.61)"
     id="ellipse70"
     style="fill:#444444" />
  <ellipse
     class="cls-1"
     cx="-90.662354"
     cy="73.394661"
     rx="2.96"
     ry="2.3900001"
     transform="rotate(-59.61)"
     id="ellipse72"
     style="fill:#444444" />
  <ellipse
     class="cls-1"
     cx="-110.34269"
     cy="41.725098"
     rx="2.1099999"
     ry="3.05"
     transform="rotate(-74.26)"
     id="ellipse74"
     style="fill:#444444" />
  <path
     style="fill:none;stroke:#444444;stroke-width:2;stroke-linecap:butt;stroke-linejoin:miter;stroke-miterlimit:4;stroke-dasharray:none;stroke-opacity:1"
     d="m 66.430047,100.67887 c 8.99738,-8.038632 16.876058,0.41324 16.876058,0.41324"
     id="path8514"
     inkscape:connector-curvature="0"
     sodipodi:nodetypes="cc" />
</svg>
