<svg xmlns="http://www.w3.org/2000/svg" viewBox="0 0 146.89 169.75"><defs><style>.cls-1{fill:#d9589b;}.cls-2{fill:#221f20;}.cls-3{fill:#e33c39;}</style></defs><title>2Recurso 3</title><g id="Capa_2" data-name="Capa 2"><g id="Capa_1-2" data-name="Capa 1"><path class="cls-1" d="M48.26,39.45C48.44,12.17,71.48,0,97.48,0s50,11.25,49.4,38.9c0,26.73-24.52,29.49-35.21,36.68-5,3.32-.36,18.07-.36,18.07s-4.16,2.73-15,2.73-16-2.73-16-2.73V92.54c.19-25.25,10.51-31,20.28-36.13s21-6.64,21-17.7c0-14.19-13.09-17.51-24.52-17.51-11.8,0-14.8,6.64-15,18.25Zm64.25,79.36c0,22.24-33.88,22.24-33.88,0C78.63,96.37,112.51,96.37,112.51,118.81Z"/><path class="cls-1" d="M33.22,152.7l16.08-3.09a27.37,27.37,0,0,0,3.07-17.72C50,119.47,63.48,111.58,60.14,94.22,56.68,76.22,40,65.59,24.38,68.57h-.06C8.68,71.62-2.84,87.67.62,105.67c3.34,17.36,19.62,19,22,31.42C24.49,146.73,33.22,152.7,33.22,152.7Z"/><path class="cls-1" d="M29.68,169.46c-5.8-1.1-2.7-28.53-2.7-28.53a5.51,5.51,0,1,1,11,.85S35.47,170.56,29.68,169.46Z"/><path class="cls-1" d="M41.61,169.74c-6.86-.55-.23-29.28-.23-29.28A5.51,5.51,0,0,1,47.79,136c3,.55,5.07,1.39,4.61,4.88C52.4,140.92,47.92,170.25,41.61,169.74Z"/><path class="cls-1" d="M23.06,70.47s-3.53,0-5.28-2,2.66-2.62,4.47-1.11a6,6,0,0,1,1.17,1.27s.09-3,1.5-3.73a1.35,1.35,0,0,1,1.89,1.81l-.61,1.17a6.17,6.17,0,0,1,2.9-2.08c1.51-.47,2.85-.48,2.3.81-.37.86-3.69,3.14-3.69,3.14Z"/><path class="cls-1" d="M11.88,153.26c19.88-7.59,18.59-21.46,18.78-22a3.87,3.87,0,0,0-7.36-2.41c-.06.17-2.84,11.91-14,18.06-.92.51-3.17,3.18-2,5.14S11.56,153.38,11.88,153.26Z"/><path class="cls-1" d="M70.6,117.27a1,1,0,0,0-.23-.06l.5-2.62a1.85,1.85,0,0,0-3.63-.7l-.85,4.45a1.82,1.82,0,0,0-2.08-.16,1.84,1.84,0,0,0-.68,2.52l1,1.78c-4.29,4.33-13.89,4.13-17.88,3.87a4.31,4.31,0,0,0-.58,8.6,49.41,49.41,0,0,0,10.92-.69,2,2,0,0,0,.26,0c9.44-2.66,12.79-6.1,14.14-10.22C72.26,121.73,72.86,118,70.6,117.27Z"/><polygon class="cls-2" points="41.76 131.82 41.79 131.81 43.03 131.48 43.47 128.24 41.53 127.01 40.56 127.27 40.53 127.28 39.56 127.54 38.51 129.58 40.52 132.15 41.76 131.82"/><polygon class="cls-2" points="45.81 146.74 48.23 142.47 43.18 132.24 41.99 132.56 41.99 132.56 41.97 132.56 41.96 132.57 41.96 132.57 40.76 132.89 41.54 144.27 45.78 146.75 45.79 146.78 45.8 146.76 45.82 146.78 45.81 146.74"/><path class="cls-2" d="M39.66,115.38c1.06,3.1,3.49,5.06,5.42,4.4s2.64-3.71,1.58-6.8-3.49-5.06-5.43-4.4S38.59,112.29,39.66,115.38Z"/><path class="cls-3" d="M46.93,114c.62,2.73-.12,5.23-1.85,5.82s-3.9-1-5.08-3.54a5.38,5.38,0,0,1,2.93-2.71A5,5,0,0,1,46.93,114Z"/><path class="cls-2" d="M54.84,81.8c-.68.48-1.39.92-2.1,1.35s-1.44.82-2.18,1.18c-.56.28-1.12.54-1.69.77-.41-.72-.83-1.44-1.25-2.15l0,0a.8.8,0,0,0-1.1-.19l0,0c-.73.51-1.48,1-2.24,1.49s-1.52,1-2.3,1.39-1.56.87-2.35,1.27l-.59.29.28-1.64a1.09,1.09,0,0,0-1.82-1h0a33.12,33.12,0,0,1-5.57,4.11A68.5,68.5,0,0,1,25.63,92c-1.06.51-2.15,1-3.24,1.47s-2.18,1-3.28,1.39c-2.21.91-4.44,1.75-6.7,2.58a58.8,58.8,0,0,0,7.06-1.53c1.16-.33,2.31-.68,3.46-1.05s2.28-.8,3.4-1.25a51.45,51.45,0,0,0,6.59-3.12,36.19,36.19,0,0,0,3.73-2.44l-.11.78v0a1,1,0,0,0,.08.59A1.05,1.05,0,0,0,38,90a27.2,27.2,0,0,0,2.53-1.28c.81-.45,1.61-.93,2.39-1.43s1.56-1,2.31-1.56c.52-.38,1-.77,1.54-1.18.41.6.82,1.19,1.25,1.77l0,.07a.63.63,0,0,0,.79.19,23.59,23.59,0,0,0,2.26-1.28c.71-.47,1.41-1,2.08-1.49a22,22,0,0,0,1.93-1.67,20.27,20.27,0,0,0,1.72-1.87C56.2,80.82,55.52,81.32,54.84,81.8Z"/><path class="cls-2" d="M30.1,118.4a10.25,10.25,0,1,1,6.17-13.12A10.25,10.25,0,0,1,30.1,118.4Zm-6.2-17.21A8,8,0,1,0,34.2,106,8.07,8.07,0,0,0,23.9,101.19Z"/><path class="cls-2" d="M56.64,108.83A10.24,10.24,0,1,1,62.8,95.72,10.25,10.25,0,0,1,56.64,108.83Zm-6.21-17.2a8,8,0,1,0,10.3,4.84A8.05,8.05,0,0,0,50.43,91.63Z"/><path class="cls-2" d="M35.71,104.71l-1.84-1.2a9.48,9.48,0,0,1,10.71-3.89l-.65,2.11a7.31,7.31,0,0,0-8.22,3Z"/><path class="cls-2" d="M51.12,97.57a3.1,3.1,0,1,0,4.33-.67A3.11,3.11,0,0,0,51.12,97.57Z"/><path class="cls-2" d="M58.32,100.33a4,4,0,0,0,.45-2.07,4.21,4.21,0,0,0-.68-2.1,4,4,0,0,0-1.66-1.46,4.2,4.2,0,0,0-2.08-.41A18.49,18.49,0,0,1,56,95.42a5.84,5.84,0,0,1,1.21,1.33A8.44,8.44,0,0,1,58.32,100.33Z"/><path class="cls-2" d="M27.2,106.53a3.1,3.1,0,1,1-3.7,2.33A3.1,3.1,0,0,1,27.2,106.53Z"/><path class="cls-2" d="M23.58,113.33a8.56,8.56,0,0,1-1.5-3.44,5.69,5.69,0,0,1,.05-1.79,17.94,17.94,0,0,1,.48-1.92,4.23,4.23,0,0,0-1.3,1.67A4.08,4.08,0,0,0,21,110a4.23,4.23,0,0,0,.88,2A3.81,3.81,0,0,0,23.58,113.33Z"/></g></g></svg>