<?xml version="1.0" encoding="UTF-8" standalone="no"?>
<svg
   xmlns:dc="http://purl.org/dc/elements/1.1/"
   xmlns:cc="http://creativecommons.org/ns#"
   xmlns:rdf="http://www.w3.org/1999/02/22-rdf-syntax-ns#"
   xmlns:svg="http://www.w3.org/2000/svg"
   xmlns="http://www.w3.org/2000/svg"
   xmlns:xlink="http://www.w3.org/1999/xlink"
   xmlns:sodipodi="http://sodipodi.sourceforge.net/DTD/sodipodi-0.dtd"
   xmlns:inkscape="http://www.inkscape.org/namespaces/inkscape"
   inkscape:version="1.0rc1 (09960d6f05, 2020-04-09)"
   height="751.07001"
   width="800"
   sodipodi:docname="remember-password.svg"
   id="svg138"
   version="1.1"
   viewBox="0 0 799.99999 751.07">
  <metadata
     id="metadata142">
    <rdf:RDF>
      <cc:Work
         rdf:about="">
        <dc:format>image/svg+xml</dc:format>
        <dc:type
           rdf:resource="http://purl.org/dc/dcmitype/StillImage" />
        <dc:title>2Recurso 1</dc:title>
      </cc:Work>
    </rdf:RDF>
  </metadata>
  <sodipodi:namedview
     inkscape:current-layer="svg138"
     inkscape:window-maximized="1"
     inkscape:window-y="0"
     inkscape:window-x="0"
     inkscape:cy="375.535"
     inkscape:cx="346.035"
     inkscape:zoom="1.3420853"
     showgrid="false"
     id="namedview140"
     inkscape:window-height="1403"
     inkscape:window-width="2560"
     inkscape:pageshadow="2"
     inkscape:pageopacity="0"
     guidetolerance="10"
     gridtolerance="10"
     objecttolerance="10"
     borderopacity="1"
     bordercolor="#666666"
     pagecolor="#ffffff" />
  <defs
     id="defs14">
    <style
       id="style2">.cls-1{fill:#353535;}.cls-2{fill:#4e9fd7;}.cls-3{fill:#fff;}.cls-4{fill:#fffefd;}.cls-5{fill:url(#linear-gradient);}.cls-6{fill:url(#linear-gradient-2);}.cls-7{fill:url(#linear-gradient-3);}.cls-8{fill:url(#linear-gradient-4);}.cls-9{fill:#343434;}.cls-10,.cls-12{fill:#d74c95;}.cls-11{opacity:0.15;}.cls-12{opacity:0.4;}.cls-13{fill:#3a3a3a;fill-rule:evenodd;}</style>
    <linearGradient
       gradientUnits="userSpaceOnUse"
       gradientTransform="rotate(-4.67,-793.37913,513.36057)"
       y2="429.66"
       x2="406.85999"
       y1="429.66"
       x1="358.35999"
       id="linear-gradient">
      <stop
         id="stop4"
         stop-color="#80385c"
         offset="0" />
      <stop
         id="stop6"
         stop-color="#683550"
         offset="0.6" />
      <stop
         id="stop8"
         stop-color="#553346"
         offset="1" />
    </linearGradient>
    <linearGradient
       xlink:href="#linear-gradient"
       y2="391.88"
       x2="266.41"
       y1="391.88"
       x1="223.94"
       id="linear-gradient-2" />
    <linearGradient
       xlink:href="#linear-gradient"
       y2="443.84"
       x2="142.82001"
       y1="443.84"
       x1="112.65"
       id="linear-gradient-3" />
    <linearGradient
       xlink:href="#linear-gradient"
       y2="541.08002"
       x2="461.10001"
       y1="541.08002"
       x1="431.67999"
       id="linear-gradient-4" />
    <linearGradient
       y2="429.66"
       x2="406.85999"
       y1="429.66"
       x1="358.35999"
       gradientTransform="rotate(-4.67,-793.37913,513.36057)"
       gradientUnits="userSpaceOnUse"
       id="linearGradient967"
       xlink:href="#linear-gradient"
       inkscape:collect="always" />
  </defs>
  <title
     id="title16">2Recurso 1</title>
  <g
     transform="translate(107.92928)"
     data-name="Capa 2"
     id="Capa_2">
    <g
       data-name="Capa 1"
       id="Capa_1-2">
      <path
         inkscape:connector-curvature="0"
         id="path18"
         d="m 550.91,483.63 c -10.38,-5.06 -12.53,17.54 -18.06,15.28 -1.44,-0.59 -3.06,-4 -6.09,-4.7 a 6.32,6.32 0 0 0 -5.39,1 c -5.45,3.95 0.36,10.51 -2.19,13.75 -17.69,22.53 -77,42.69 -91.49,22.91 -1.82,-2.48 -4,-7.08 -2.77,-15.78 a 3,3 0 0 1 3.28,-2.56 72.17,72.17 0 0 0 20.73,-1 c 18.84,-3.59 36.15,-14.2 48.76,-29.89 16.61,-20.7 22.63,-47.32 16.12,-71.21 a 65.79,65.79 0 0 0 -55.81,-48.6 3,3 0 0 1 -2.47,-3.88 109.07,109.07 0 0 0 1.44,-60.57 c -7.77,-28.47 -27,-50.39 -52.87,-60.13 -23.22,-8.75 -49.74,-6.47 -72.75,6.25 a 99.94,99.94 0 0 0 -14.95,10.13 3,3 0 0 1 -4.63,-1 c -15,-30.77 -43.68,-51.13 -76,-52.41 -24.8,-1 -49.24,9.54 -67.07,28.87 a 106.35,106.35 0 0 0 -26.39,55.19 3,3 0 0 1 -3.95,2.37 71.66,71.66 0 0 0 -45.73,-0.15 c -19.22,6.54 -34.49,20.89 -43,40.43 A 87.63,87.63 0 0 0 44,377.77 10.42,10.42 0 0 0 42.71,377.22 c -4.38,-1.58 -5.6,-0.11 -9.61,2.77 a 46.47,46.47 0 0 0 -11.37,13.14 c -4.61,8.19 -6.27,16.35 -6.25,18.85 0.11,11.64 -18,23.17 -15.13,55.25 C 2.12,487.7 17.14,516 79.6,547 a 3,3 0 0 1 1.68,2.53 l 3.58,65 c 4.88,49.18 11.69,81.41 19,102.07 a 40.77,40.77 0 0 1 -17,-0.62 c -3.86,-1 -10.51,-3.47 -20.94,-4.48 -7.4,-0.72 -12.59,-1.17 -18.49,1.11 -5.48,2.12 -15.09,8 -15.61,16.27 -0.63,10.26 12.9,18.87 23.5,21.35 9.52,2.24 15.77,-0.69 25.3,-2.62 10.51,-2.14 26,-3.23 46.45,2.12 0.46,0.14 0.91,0.26 1.35,0.35 h 0.08 v 0 c 0.32,0.06 0.63,0.12 0.94,0.15 35.43,4.12 -5.26,-150 115.82,-150 106.14,0 84.51,153.92 114.24,147.61 a 25.27,25.27 0 0 0 3.62,-1.06 106.08,106.08 0 0 1 22.67,-3.39 83.85,83.85 0 0 1 20.45,1.71 c 9.18,1.93 15.2,4.86 24.38,2.63 10.22,-2.48 23.26,-11.1 22.65,-21.36 -0.5,-8.32 -9.77,-14.15 -15.05,-16.26 -5.68,-2.28 -10.69,-1.83 -17.82,-1.12 -10.05,1 -16.46,3.47 -20.18,4.49 a 36.46,36.46 0 0 1 -13,1.05 c 5.78,-14.32 12.05,-34.7 19.22,-63.73 8.11,-32.84 14.14,-62.29 15.5,-69 a 2.49,2.49 0 0 1 1.59,-2.09 c 25.23,-5.65 63.56,-19 103.62,-41.06 6.12,-3.37 20.08,-10.83 24.62,-21 1.59,-3.59 1.33,-7.27 -3.31,-14.64 -1.68,-2.54 8.7,-16.33 2.45,-19.38 z m -464,13.76 a 13,13 0 0 1 -3.7,0.84 C 68.35,500.23 45.15,493.08 33.84,479.4 14.22,455.69 47,416.07 47.5,403.5 a 3,3 0 0 0 -3.83,-3 c -1.2,0.36 -2.6,0.35 -2.25,-1.88 0.08,-0.51 3.17,-6.1 4.82,-10.86 0.41,1.42 0.84,2.84 1.32,4.26 7,20.51 20.6,37.63 38.32,48.19 a 77.54,77.54 0 0 0 17.81,7.79 3,3 0 0 1 2.09,3.56 c -3.35,14.37 -15.58,44.2 -18.87,45.83 z"
         class="cls-1" />
      <path
         inkscape:connector-curvature="0"
         id="path20"
         d="m 386.19,495.53 c -10.29,-46.54 -50.25,-62 -63.22,-68.65 -10,-5.08 -54.51,-25.47 -109.77,-12.15 -12.37,3 -52.39,11.29 -73.67,44.71 -15.76,24.76 -23.29,45.44 -26.46,61.84 -2.56,9.35 -6.07,53.74 -0.83,109 2.86,30.11 9,69.79 14.24,69.79 5,0 -0.34,-29.44 14.25,-69.79 C 154.61,591.83 185.55,572.53 208,568 l 3.15,-0.65 c 18.08,-1.69 30.9,-2.19 43.22,-1.07 14.61,1.34 39.62,4.17 59.91,17.62 55.58,36.84 43,119.62 49.8,120.3 5.9,0.59 22,-73.17 26.3,-111.51 0.59,-5.3 2.12,-11.6 2.53,-25.87 a 306.12,306.12 0 0 0 -6.72,-71.29 z"
         class="cls-2" />
      <path
         inkscape:connector-curvature="0"
         id="path22"
         d="m 137.49,419.58 c 24.55,-8.33 36.5,-38.46 26.7,-67.26 -9.8,-28.8 -37.64,-45.4 -62.16,-37.05 -24.52,8.35 -36.47,38.46 -26.69,67.27 9.78,28.81 37.66,45.39 62.15,37.04 z"
         class="cls-3" />
      <path
         inkscape:connector-curvature="0"
         id="path24"
         d="m 228.84,375 c 34,1.35 62.8,-29.91 64.38,-69.79 1.58,-39.88 -24.69,-73.34 -58.66,-74.69 -33.97,-1.35 -62.8,29.91 -64.38,69.82 -1.58,39.91 24.69,73.32 58.66,74.66 z"
         class="cls-3" />
      <path
         inkscape:connector-curvature="0"
         id="path26"
         d="m 342.69,401 c 31.81,12 69,-8.58 83.12,-45.93 14.12,-37.35 -0.31,-77.38 -32.1,-89.36 -31.79,-11.98 -69,8.58 -83.11,45.94 -14.11,37.36 0.3,77.35 32.09,89.35 z"
         class="cls-3" />
      <path
         inkscape:connector-curvature="0"
         id="path28"
         d="m 473,399.71 c -18.06,-14.48 -46.46,-9.06 -63.48,12.12 -17.02,21.18 -16.16,50.09 1.86,64.57 18.02,14.48 46.45,9.06 63.47,-12.11 C 491.87,443.12 491,414.18 473,399.71 Z"
         class="cls-3" />
      <path
         inkscape:connector-curvature="0"
         id="path30"
         d="m 307.77,535 c -0.92,17.13 -27.72,11.63 -60.08,9.9 -32.36,-1.73 -58,1 -57.1,-16.17 0.9,-17.17 23.48,-14.38 55.84,-12.65 32.36,1.73 62.25,1.77 61.34,18.92 z"
         class="cls-1" />
      <circle
         id="circle32"
         transform="rotate(-76.66,379.72092,342.74622)"
         r="12.13"
         cy="342.75"
         cx="379.75"
         class="cls-4" />
      <path
         inkscape:connector-curvature="0"
         id="path34"
         d="m 371.85,333.46 a 10.44,10.44 0 1 1 -7.22,-12.89 10.44,10.44 0 0 1 7.22,12.89 z"
         class="cls-4" />
      <path
         style="fill:url(#linearGradient967)"
         inkscape:connector-curvature="0"
         id="path36"
         d="m 396,336.93 c 1.61,-14 -7.84,-26.62 -21.12,-28.14 -13.28,-1.52 -25.34,8.59 -26.95,22.61 -1.61,14.02 7.79,26.6 21.07,28.14 13.28,1.54 25.33,-8.54 27,-22.61 z m -36.64,1.79 c -10.9,-3.07 -6.14,-20 4.76,-16.9 10.9,3.1 6.09,19.97 -4.81,16.9 z M 377,353.45 c -13.47,-3.8 -7.59,-24.68 5.88,-20.89 13.47,3.79 7.59,24.68 -5.88,20.89 z"
         class="cls-5" />
      <circle
         id="circle38"
         transform="matrix(0.95,-0.3,0.3,0.95,-82.79,87.84)"
         r="10.58"
         cy="310.60001"
         cx="241.56"
         class="cls-4" />
      <path
         inkscape:connector-curvature="0"
         id="path40"
         d="m 231.49,307.2 a 9.11,9.11 0 1 1 -11.18,-6.39 9.1,9.1 0 0 1 11.18,6.39 z"
         class="cls-4" />
      <path
         style="fill:url(#linear-gradient-2)"
         inkscape:connector-curvature="0"
         id="path42"
         d="m 251.06,299 c -5.09,-11.2 -17.81,-16.37 -28.42,-11.55 -10.61,4.82 -15.08,17.8 -10,29 5.08,11.2 17.82,16.35 28.42,11.55 10.6,-4.8 15.08,-17.82 10,-29 z m -26.58,17.79 c -9.53,2.6 -13.56,-12.17 -4,-14.77 9.56,-2.6 13.52,12.15 4,14.75 z m 19.83,3.06 c -11.77,3.22 -16.75,-15 -5,-18.25 11.75,-3.25 16.77,15.02 5,18.23 z"
         class="cls-6" />
      <path
         inkscape:connector-curvature="0"
         id="path44"
         d="m 107.94,346.86 1.61,1.86 c 0,0 26.11,-14 30.84,17.74 3.54,23.81 -22.16,24.52 -19.85,24.73 2.31,0.21 -5.2,2.1 -11.66,-1.93 a 24.35,24.35 0 0 1 -11.07,-15.53 24.67,24.67 0 0 1 2.64,-18.7 c 3.64,-6.03 7.49,-8.17 7.49,-8.17 z"
         class="cls-4" />
      <circle
         id="circle46"
         transform="rotate(-9.36,125.58904,372.12958)"
         r="7.54"
         cy="372.10999"
         cx="125.6"
         class="cls-4" />
      <path
         inkscape:connector-curvature="0"
         id="path48"
         d="m 118.84,368.68 a 6.5,6.5 0 1 1 -7.24,-5.68 6.49,6.49 0 0 1 7.24,5.68 z"
         class="cls-4" />
      <path
         style="fill:url(#linear-gradient-3)"
         inkscape:connector-curvature="0"
         id="path50"
         d="m 133.5,364.89 c -2.44,-8.43 -10.89,-13.39 -18.87,-11.08 -7.98,2.31 -12.48,11 -10,19.44 2.48,8.44 10.89,13.39 18.87,11.08 7.98,-2.31 12.43,-11.01 10,-19.44 z m -20.59,9.82 c -7,0.85 -8.32,-10 -1.33,-10.84 6.99,-0.84 8.32,9.98 1.33,10.84 z m 13.68,4.2 C 118,380 116.31,366.57 125,365.52 c 8.69,-1.05 10.23,12.33 1.59,13.39 z"
         class="cls-7" />
      <path
         inkscape:connector-curvature="0"
         id="path52"
         d="m 450.43,416.81 v 2.37 c 0,0 27.9,6.2 11.36,32.37 -12.41,19.63 -31.63,4 -30.08,5.57 1.55,1.57 -5.12,-1.74 -7.3,-8.75 a 23.5,23.5 0 0 1 1.69,-18.32 23.84,23.84 0 0 1 13.7,-12 c 6.5,-2.14 10.63,-1.24 10.63,-1.24 z"
         class="cls-4" />
      <circle
         id="circle54"
         transform="rotate(-58.6,447.44028,446.37013)"
         r="7.2800002"
         cy="446.37"
         cx="447.42999"
         class="cls-4" />
      <path
         inkscape:connector-curvature="0"
         id="path56"
         d="m 444.66,439.6 a 6.26,6.26 0 1 1 -1.73,-8.69 6.27,6.27 0 0 1 1.73,8.69 z"
         class="cls-4" />
      <path
         style="fill:url(#linear-gradient-4)"
         inkscape:connector-curvature="0"
         id="path58"
         d="m 457.75,446.06 c 3.53,-7.69 0.48,-16.63 -6.81,-20 -7.29,-3.37 -16.05,0.19 -19.57,7.88 -3.52,7.69 -0.48,16.64 6.81,20 7.29,3.36 16.04,-0.18 19.57,-7.88 z m -21.22,-5.79 c -5.65,-3.77 0.21,-12.53 5.85,-8.75 5.64,3.78 -0.21,12.53 -5.85,8.75 z m 7.35,11.73 c -7,-4.67 0.26,-15.48 7.23,-10.82 6.97,4.66 -0.26,15.45 -7.23,10.82 z"
         class="cls-8" />
      <path
         inkscape:connector-curvature="0"
         id="path60"
         d="m 47.79,293.47 c -2.82,-5.24 4.67,-14.76 16.73,-21.26 12.06,-6.5 24.14,-7.52 27,-2.28 2.86,5.24 -9.13,4 -21.19,10.49 -12.06,6.49 -19.71,18.29 -22.54,13.05 z"
         class="cls-9" />
      <path
         inkscape:connector-curvature="0"
         id="path62"
         d="m 489,354.4 c 3.5,-3.86 13.54,-0.47 22.42,7.58 8.88,8.05 13.25,17.7 9.75,21.56 -3.5,3.86 -5.95,-6.36 -14.83,-14.41 -8.88,-8.05 -20.85,-10.87 -17.34,-14.73 z"
         class="cls-9" />
      <path
         inkscape:connector-curvature="0"
         id="path64"
         d="m 146.92,340.49 c -9.51,-17.27 -29.06,-24.25 -43.66,-15.59 -14.6,8.66 -18.73,29.66 -9.26,46.93 9.47,17.27 29.06,24.24 43.66,15.59 14.6,-8.65 18.77,-29.67 9.26,-46.93 z"
         class="cls-10" />
      <path
         inkscape:connector-curvature="0"
         id="path66"
         d="m 440.32,439 c -4,6 -11.75,7.9 -17.26,4.22 -5.51,-3.68 -6.71,-11.55 -2.68,-17.56 4.03,-6.01 11.74,-7.9 17.25,-4.22 5.51,3.68 6.71,11.56 2.69,17.56 z"
         class="cls-4" />
      <path
         inkscape:connector-curvature="0"
         id="path68"
         d="m 470.76,440.17 c 7.57,-16 2.3,-33.93 -11.78,-40.13 -14.08,-6.2 -31.62,1.69 -39.19,17.65 -7.57,15.96 -2.3,33.92 11.78,40.13 14.08,6.21 31.62,-1.7 39.19,-17.65 z"
         class="cls-10" />
      <path
         inkscape:connector-curvature="0"
         id="path70"
         d="m 383,343.06 c -2.9,10.29 -12.72,16.53 -21.95,13.93 -9.23,-2.6 -14.35,-13 -11.45,-23.33 2.9,-10.33 12.72,-16.54 21.95,-13.94 9.23,2.6 14.35,13.05 11.45,23.34 z"
         class="cls-4" />
      <path
         inkscape:connector-curvature="0"
         id="path72"
         d="m 408.33,323.4 c 3.41,-25.86 -11.79,-48.57 -34,-50.71 -22.21,-2.14 -42.89,17.08 -46.3,42.94 -3.41,25.86 11.8,48.57 34,50.71 22.2,2.14 42.9,-17.08 46.3,-42.94 z"
         class="cls-10" />
      <path
         inkscape:connector-curvature="0"
         id="path74"
         d="m 271.14,280.42 c -4.72,-25.7 -26.14,-42.64 -47.84,-37.85 -21.7,4.79 -35.46,29.51 -30.74,55.2 4.72,25.69 26.15,42.64 47.84,37.85 21.69,-4.79 35.47,-29.51 30.74,-55.2 z"
         class="cls-10" />
      <path
         inkscape:connector-curvature="0"
         id="path76"
         d="m 183.38,183.39 c -0.19,-11.17 20.49,-20.58 46.19,-21 25.7,-0.42 46.7,8.26 46.89,19.43 0.19,11.17 -18.65,-1.22 -44.35,-0.78 -25.7,0.44 -48.54,13.52 -48.73,2.35 z"
         class="cls-9" />
      <path
         inkscape:connector-curvature="0"
         id="path78"
         d="m 396.11,204.37 c 6.55,-9 28.74,-4.15 49.56,10.94 20.82,15.09 32.33,34.69 25.81,43.69 -6.52,9 -14.17,-12.17 -35,-27.26 -20.83,-15.09 -46.93,-18.32 -40.37,-27.37 z"
         class="cls-9" />
      <ellipse
         id="ellipse80"
         transform="rotate(-3.51,233.19485,289.55649)"
         ry="22.280001"
         rx="18.709999"
         cy="289.73001"
         cx="233.34"
         class="cls-1" />
      <ellipse
         id="ellipse82"
         transform="rotate(-71.99,368.28436,319.91197)"
         ry="19.68"
         rx="22.08"
         cy="319.91"
         cx="368.28"
         class="cls-1" />
      <ellipse
         id="ellipse84"
         transform="rotate(-58.63,445.8968,429.46767)"
         ry="13.51"
         rx="15.36"
         cy="429.48001"
         cx="445.94"
         class="cls-1" />
      <ellipse
         id="ellipse86"
         transform="rotate(-22.09,120.65025,357.1651)"
         ry="15.36"
         rx="13.51"
         cy="357.10999"
         cx="120.62"
         class="cls-1" />
      <circle
         id="circle88"
         r="3.0799999"
         cy="362.76001"
         cx="117.68"
         class="cls-3" />
      <circle
         id="circle90"
         r="3.0799999"
         cy="433.85999"
         cx="440.42999"
         class="cls-3" />
      <circle
         id="circle92"
         r="4.96"
         cy="299.13"
         cx="227.13"
         class="cls-3" />
      <circle
         id="circle94"
         r="4.96"
         cy="328.13"
         cx="361.07999"
         class="cls-3" />
      <path
         inkscape:connector-curvature="0"
         id="path96"
         d="M 246.81,692.62 260.08,684 a 12.11,12.11 0 0 0 5.41,-11.78 L 256,601.47 A 12.13,12.13 0 0 0 244.45,591 l -1.5,-0.05 a 12.12,12.12 0 0 0 -12.33,9.64 l -14.57,69.87 a 12.15,12.15 0 0 0 4.43,12.05 l 12.27,9.49 a 12.13,12.13 0 0 0 14.06,0.62 z"
         class="cls-10" />
      <path
         inkscape:connector-curvature="0"
         id="path98"
         d="m 250.14,565.86 -11.26,-0.43 a 9,9 0 0 0 -8.06,4.38 l -3.61,6.08 a 9,9 0 0 0 -0.47,8.28 l 5.56,12.33 v 0 l 21.89,0.84 v 0 l 6.49,-11.88 a 9,9 0 0 0 0.18,-8.27 l -3.11,-6.32 a 9,9 0 0 0 -7.61,-5.01 z"
         class="cls-10" />
      <g
         id="g124"
         class="cls-11">
        <polygon
           id="polygon100"
           points="235.27,565.29 233.55,565.22 232.41,567.14 "
           class="cls-10" />
        <polygon
           id="polygon102"
           points="242.3,565.56 227.74,575 224.82,579.91 224.98,580.25 247.34,565.75 "
           class="cls-10" />
        <polygon
           id="polygon104"
           points="255.49,566.07 254.38,566.02 226.66,583.99 227.87,586.66 256.49,568.11 "
           class="cls-10" />
        <polygon
           id="polygon106"
           points="229.55,590.4 230.76,593.08 259.58,574.4 258.29,571.77 "
           class="cls-10" />
        <polygon
           id="polygon108"
           points="262.68,580.68 261.38,578.06 232.25,596.94 232.22,597.1 231.42,600.94 "
           class="cls-10" />
        <polygon
           id="polygon110"
           points="230.26,606.52 229.42,610.52 256.77,592.8 259.7,587.44 "
           class="cls-10" />
        <polygon
           id="polygon112"
           points="228.26,616.11 227.43,620.11 254.95,602.27 254.52,599.09 "
           class="cls-10" />
        <polygon
           id="polygon114"
           points="226.26,625.69 225.43,629.69 255.97,609.9 255.54,606.72 "
           class="cls-10" />
        <polygon
           id="polygon116"
           points="224.27,635.27 223.43,639.28 256.99,617.52 256.57,614.34 "
           class="cls-10" />
        <polygon
           id="polygon118"
           points="222.27,644.86 221.43,648.86 258.02,625.15 257.59,621.97 "
           class="cls-10" />
        <polygon
           id="polygon120"
           points="220.27,654.44 219.44,658.45 259.04,632.78 258.61,629.59 "
           class="cls-10" />
        <polygon
           id="polygon122"
           points="218.27,664.03 217.44,668.03 260.06,640.4 259.63,637.22 "
           class="cls-10" />
      </g>
      <polygon
         id="polygon126"
         points="254.28,597.34 254.51,598.89 232.22,597.1 232.35,596.5 "
         class="cls-12" />
      <path
         inkscape:connector-curvature="0"
         id="path128"
         d="m 193.69,575 10,15.83 a 1.77,1.77 0 0 0 2.31,0.62 c 3.65,-1.89 13.56,-7.13 22.36,-12.66 6.43,-4.05 12.06,-7.68 15.62,-10 a 1.77,1.77 0 0 0 -0.74,-3.25 c -8.48,-1 -17.32,-1.8 -27,-0.29 a 73.18,73.18 0 0 0 -21.9,7.21 1.77,1.77 0 0 0 -0.65,2.54 z"
         class="cls-3" />
      <path
         inkscape:connector-curvature="0"
         id="path130"
         d="m 290.94,576.34 -12.52,16 a 1.81,1.81 0 0 1 -2.4,0.42 c -3.32,-2.12 -12.06,-7.77 -19.76,-13.61 -5.52,-4.2 -10.36,-7.95 -13.52,-10.41 a 1.81,1.81 0 0 1 1.06,-3.23 127.5,127.5 0 0 1 22.65,1 91,91 0 0 1 23.81,7 1.81,1.81 0 0 1 0.68,2.83 z"
         class="cls-3" />
      <path
         inkscape:connector-curvature="0"
         id="path132"
         d="m 309.92,468.71 c 8,7.31 7.4,10.32 7.61,13.38 -0.25,11 -18,2 -22.78,-1.3 -12.8,-9.12 -26.82,-23.62 -42.72,-12 -14.57,-11.49 -30.45,-0.21 -43.43,7 -5.11,2.75 -23.79,9.69 -22.78,-1.3 0.56,-3 0.35,-6.07 9.1,-12.43 -30.06,-0.58 -32.89,69 55.63,32.51 84.17,46.32 89.29,-23.07 59.37,-25.92 z"
         class="cls-13" />
      <path
         inkscape:connector-curvature="0"
         id="path134"
         d="m 465.65,83.9 c 4.22,-62.5 58.72,-87.17 118.28,-83.56 59.56,3.61 112.92,32.73 107.8,96 -3.72,61.25 -60.29,64.18 -85.79,79.16 -11.87,6.92 -3.34,41.36 -3.34,41.36 0,0 -9.91,5.66 -34.76,4.15 -24.85,-1.51 -36.23,-8.47 -36.23,-8.47 l 0.15,-2.53 c 3.94,-57.85 28.39,-69.51 51.5,-80 23.11,-10.49 49.09,-12.28 50.63,-37.63 2,-32.53 -27.56,-41.95 -53.75,-43.54 -27,-1.65 -34.85,13.14 -36.89,39.73 z m 136.19,190.81 c -3.09,51 -80.74,46.23 -77.64,-4.72 3.12,-51.44 80.8,-46.72 77.64,4.72 z"
         class="cls-1" />
    </g>
  </g>
</svg>
