<?xml version="1.0" encoding="UTF-8" standalone="no"?>
<svg
   xmlns:dc="http://purl.org/dc/elements/1.1/"
   xmlns:cc="http://creativecommons.org/ns#"
   xmlns:rdf="http://www.w3.org/1999/02/22-rdf-syntax-ns#"
   xmlns:svg="http://www.w3.org/2000/svg"
   xmlns="http://www.w3.org/2000/svg"
   xmlns:xlink="http://www.w3.org/1999/xlink"
   xmlns:sodipodi="http://sodipodi.sourceforge.net/DTD/sodipodi-0.dtd"
   xmlns:inkscape="http://www.inkscape.org/namespaces/inkscape"
   inkscape:version="1.0rc1 (09960d6f05, 2020-04-09)"
   height="568.63"
   width="900"
   sodipodi:docname="not-found.svg"
   id="svg144"
   version="1.1"
   viewBox="0 0 900 568.63">
  <metadata
     id="metadata148">
    <rdf:RDF>
      <cc:Work
         rdf:about="">
        <dc:format>image/svg+xml</dc:format>
        <dc:type
           rdf:resource="http://purl.org/dc/dcmitype/StillImage" />
        <dc:title>2Recurso 2</dc:title>
      </cc:Work>
    </rdf:RDF>
  </metadata>
  <sodipodi:namedview
     inkscape:current-layer="svg144"
     inkscape:window-maximized="1"
     inkscape:window-y="0"
     inkscape:window-x="0"
     inkscape:cy="243.14839"
     inkscape:cx="474.0458"
     inkscape:zoom="1.4882217"
     showgrid="false"
     id="namedview146"
     inkscape:window-height="1403"
     inkscape:window-width="2560"
     inkscape:pageshadow="2"
     inkscape:pageopacity="0"
     guidetolerance="10"
     gridtolerance="10"
     objecttolerance="10"
     borderopacity="1"
     bordercolor="#666666"
     pagecolor="#ffffff" />
  <defs
     id="defs14">
    <style
       id="style2">.cls-1{fill:#353535;}.cls-2{fill:#4e9fd7;}.cls-3{fill:#fff;}.cls-4{fill:#fffefd;}.cls-5{fill:url(#linear-gradient);}.cls-6{fill:#693f58;}.cls-7{fill:url(#linear-gradient-2);}.cls-8{fill:url(#linear-gradient-3);}.cls-9{fill:url(#linear-gradient-4);}.cls-10{fill:#343434;}.cls-11{fill:#d74c95;}.cls-12{fill:#e62929;}.cls-13{fill:#e52629;stroke:#fff;stroke-miterlimit:10;stroke-width:5px;}</style>
    <linearGradient
       gradientUnits="userSpaceOnUse"
       gradientTransform="rotate(-4.67,-1873.0635,1451.4439)"
       y2="372.97"
       x2="485.64999"
       y1="372.97"
       x1="441.19"
       id="linear-gradient">
      <stop
         id="stop4"
         stop-color="#80385c"
         offset="0" />
      <stop
         id="stop6"
         stop-color="#683550"
         offset="0.6" />
      <stop
         id="stop8"
         stop-color="#553346"
         offset="1" />
    </linearGradient>
    <linearGradient
       xlink:href="#linear-gradient"
       y2="338.34"
       x2="356.91"
       y1="338.34"
       x1="317.98001"
       id="linear-gradient-2" />
    <linearGradient
       xlink:href="#linear-gradient"
       y2="385.98001"
       x2="243.63"
       y1="385.98001"
       x1="215.98"
       id="linear-gradient-3" />
    <linearGradient
       xlink:href="#linear-gradient"
       y2="475.10001"
       x2="535.35999"
       y1="475.10001"
       x1="508.39999"
       id="linear-gradient-4" />
    <linearGradient
       y2="372.97"
       x2="485.64999"
       y1="372.97"
       x1="441.19"
       gradientTransform="rotate(-4.67,-1873.0635,1451.4439)"
       gradientUnits="userSpaceOnUse"
       id="linearGradient973"
       xlink:href="#linear-gradient"
       inkscape:collect="always" />
  </defs>
  <title
     id="title16">2Recurso 2</title>
  <g
     transform="translate(164.83739)"
     data-name="Capa 2"
     id="Capa_2">
    <g
       data-name="Capa 1"
       id="Capa_1-2">
      <path
         inkscape:connector-curvature="0"
         id="path18"
         d="M 101.39,382.11 C 93.89,376.19 27.89,337.78 9.2,313.64 5.27,308.56 -2.51,298.26 0.8,289.81 c 0.92,-2.24 2.62,-5.29 5.7,-6.48 6.39,-2.48 10.06,1.43 14.26,0.65 2.45,-0.46 2.21,-0.49 5.45,-2.15 a 5.87,5.87 0 0 1 3.37,-0.48 c 5.45,1.47 4.57,8.23 5.15,12.34 3.47,24.25 48,54.1 71.91,42.22 3.23,-1.6 15.87,-32.87 17.82,-44.59 a 71,71 0 0 1 -18.77,-7.84 C 89.45,273.8 77,258.11 70.57,239.31 c -0.57,-1.7 -1.09,-3.4 -1.55,-5.08 v 0 c -5,-18.17 -3.74,-37.23 3.41,-53.65 7.8,-17.91 21.8,-31.07 39.42,-37.06 a 66,66 0 0 1 45,1.26 97.89,97.89 0 0 1 24.68,-53.89 C 197.9,73.17 220.31,63.52 243,64.42 c 30.75,1.22 57.93,21.28 71.17,51.29 a 93.13,93.13 0 0 1 16.44,-11.6 C 351.7,92.45 376,90.37 397.29,98.39 c 23.68,8.92 41.34,29 48.46,55.11 a 100.29,100.29 0 0 1 -2.37,58.74 60.38,60.38 0 0 1 54.51,44.89 c 6,21.9 0.46,46.3 -14.77,65.27 a 76,76 0 0 1 -44.69,27.4 66,66 0 0 1 -21.55,0.56 c -2,9.72 0.24,14.6 2.08,17.12 13.29,18.13 103.76,3.17 120,-17.48 2.34,-3 2.67,-12.43 8.33,-11.94 a 8.38,8.38 0 0 1 3.87,2.12 c 1,1 0.85,1.85 2.29,1.93 3.4,0.19 12,-3.35 16.54,3 2.89,4 0.35,11.28 -0.32,13.18 -4.07,11.61 -17.46,16.75 -23.46,19 -41.5,15.27 -111.21,23.78 -132.29,34.71 0,0 -6,30.27 -14.47,64.57 -17.89,72.43 -29.64,86.1 -43,88.94 -27.25,5.78 -7.42,-135.3 -104.72,-135.3 -111,0 -73.68,141.27 -106.15,137.49 -12.76,-1.48 -31,-25.73 -40.82,-124.39 z"
         class="cls-1" />
      <path
         inkscape:connector-curvature="0"
         id="path20"
         d="m 381,334.21 c -9.43,-42.66 -46.06,-56.87 -57.94,-62.93 -9.15,-4.65 -50,-23.34 -100.62,-11.14 -11.34,2.74 -48,10.36 -67.53,41 -14.44,22.69 -21.35,41.64 -24.26,56.68 -2.34,8.57 -5.56,49.25 -0.75,99.87 2.62,27.6 8.21,64 13,64 4.63,0 -0.31,-27 13.06,-64 12.72,-35.21 41.09,-52.89 61.62,-57 l 2.89,-0.59 c 16.57,-1.55 28.32,-2 39.62,-1 13.39,1.22 36.31,3.81 54.91,16.14 51,33.76 39.39,109.62 45.65,110.25 5.42,0.54 20.18,-67.08 24.11,-102.22 0.55,-4.86 1.95,-10.63 2.32,-23.71 A 280.32,280.32 0 0 0 381,334.21 Z"
         class="cls-2" />
      <path
         inkscape:connector-curvature="0"
         id="path22"
         d="m 153,264.59 c 22.5,-7.64 33.46,-35.25 24.48,-61.65 -8.98,-26.4 -34.51,-41.61 -57,-34 -22.49,7.61 -33.41,35.29 -24.48,61.7 8.93,26.41 34.55,41.61 57,33.95 z"
         class="cls-3" />
      <path
         inkscape:connector-curvature="0"
         id="path24"
         d="m 236.73,223.73 c 31.14,1.23 57.56,-27.42 59,-64 1.44,-36.58 -22.62,-67.19 -53.73,-68.43 -31.11,-1.24 -57.55,27.42 -59,64 -1.45,36.58 22.6,67.2 53.73,68.43 z"
         class="cls-3" />
      <path
         inkscape:connector-curvature="0"
         id="path26"
         d="m 341.09,247.57 c 29.16,11 63.27,-7.87 76.18,-42.1 12.91,-34.23 -0.28,-70.92 -29.42,-81.91 -29.14,-10.99 -63.28,7.87 -76.18,42.11 -12.9,34.24 0.27,70.91 29.42,81.9 z"
         class="cls-3" />
      <path
         inkscape:connector-curvature="0"
         id="path28"
         d="m 460.48,246.38 c -16.55,-13.27 -42.58,-8.31 -58.18,11.1 -15.6,19.41 -14.81,45.92 1.7,59.19 16.51,13.27 42.58,8.31 58.18,-11.1 15.6,-19.41 14.82,-45.93 -1.7,-59.19 z"
         class="cls-3" />
      <path
         inkscape:connector-curvature="0"
         id="path30"
         d="m 315.21,338.76 c -0.47,12.9 -27.44,-4.89 -57.12,-6 -29.68,-1.11 -57.58,14.84 -57.11,1.94 0.47,-12.9 28.5,-26.86 58.18,-25.79 29.68,1.07 56.51,16.96 56.05,29.85 z"
         class="cls-1" />
      <path
         inkscape:connector-curvature="0"
         id="path32"
         d="m 365.41,149.79 1.13,3.44 c 0,0 43.46,-4.23 31.84,41.66 -8.73,34.4 -44.08,20.74 -41.06,22.34 3.02,1.6 -8.26,-0.1 -14.75,-9.25 a 35.85,35.85 0 0 1 -6.22,-27.43 36.43,36.43 0 0 1 14.22,-23.92 c 8.43,-6.18 14.84,-6.84 14.84,-6.84 z"
         class="cls-4" />
      <circle
         id="circle34"
         transform="rotate(-76.66,375.03044,194.16907)"
         r="11.12"
         cy="194.17"
         cx="375.04999"
         class="cls-4" />
      <path
         inkscape:connector-curvature="0"
         id="path36"
         d="m 367.82,185.65 a 9.57,9.57 0 1 1 -6.62,-11.81 9.58,9.58 0 0 1 6.62,11.81 z"
         class="cls-4" />
      <path
         style="fill:url(#linearGradient973)"
         inkscape:connector-curvature="0"
         id="path38"
         d="m 389.9,188.83 c 1.48,-12.84 -7.18,-24.39 -19.35,-25.79 -12.17,-1.4 -23.23,7.88 -24.71,20.72 -1.48,12.84 7.19,24.4 19.35,25.8 12.16,1.4 23.23,-7.88 24.71,-20.73 z m -33.58,1.64 c -10,-2.81 -5.63,-18.3 4.36,-15.49 9.99,2.81 5.63,18.31 -4.36,15.49 z M 372.53,204 c -12.34,-3.47 -6.95,-22.62 5.4,-19.14 12.35,3.48 6.95,22.59 -5.4,19.14 z"
         class="cls-5" />
      <path
         inkscape:connector-curvature="0"
         id="path40"
         d="m 221.26,135.86 2.39,2.06 c 0,0 30.62,-22.65 42.5,16.85 8.92,29.63 -23.63,35.29 -20.66,35.13 2.97,-0.16 -6.22,3.63 -15.17,-0.29 a 31.31,31.31 0 0 1 -17,-17.71 31.75,31.75 0 0 1 -0.1,-24.26 c 3.54,-8.4 8.04,-11.78 8.04,-11.78 z"
         class="cls-4" />
      <circle
         id="circle42"
         transform="rotate(-17.65,248.34321,164.67723)"
         r="9.6899996"
         cy="164.7"
         cx="248.39999"
         class="cls-4" />
      <path
         inkscape:connector-curvature="0"
         id="path44"
         d="m 239.16,161.59 a 8.34,8.34 0 1 1 -10.25,-5.86 8.35,8.35 0 0 1 10.25,5.86 z"
         class="cls-4" />
      <path
         inkscape:connector-curvature="0"
         id="path46"
         d="m 212.47,163.69 c 0,0 0.1,0.71 0.28,2 0.05,0.33 0.08,0.72 0.16,1.11 0.08,0.39 0.18,0.79 0.29,1.23 0.11,0.44 0.21,0.93 0.33,1.44 0.12,0.51 0.36,1.05 0.55,1.62 a 32.79,32.79 0 0 0 1.53,3.69 l 1.11,2 c 0.38,0.69 0.89,1.33 1.36,2 a 28.22,28.22 0 0 0 8.32,7.67 26.33,26.33 0 0 0 12.86,3.62 15.73,15.73 0 0 0 1.81,-0.07 16.77,16.77 0 0 0 1.79,-0.16 25.52,25.52 0 0 0 3.7,-0.77 24.68,24.68 0 0 0 6.95,-3.12 27.47,27.47 0 0 0 10.23,-12 29.77,29.77 0 0 0 2.27,-7.82 32.37,32.37 0 0 0 0.06,-8.17 31.8,31.8 0 0 0 -0.84,-4 c -0.19,-0.64 -0.32,-1.27 -0.56,-1.9 l -0.73,-1.89 a 29.66,29.66 0 0 0 -4.11,-6.86 27.42,27.42 0 0 0 -12.38,-8.82 23.66,23.66 0 0 0 -7.12,-1.35 25.77,25.77 0 0 0 -3.52,0.06 h -0.38 c -0.05,0 0.18,0 0.06,0 l -0.47,0.08 -0.93,0.15 a 14.14,14.14 0 0 0 -1.78,0.33 24.39,24.39 0 0 0 -3.1,0.94 c -0.51,0.21 -1,0.38 -1.52,0.6 l -1.45,0.72 a 25.14,25.14 0 0 0 -2.72,1.59 c -0.84,0.6 -1.65,1.23 -2.42,1.86 a 28.8,28.8 0 0 0 -6.67,8.64 c -0.33,0.75 -0.73,1.45 -1,2.18 -0.27,0.73 -0.51,1.42 -0.76,2.1 a 30.3,30.3 0 0 0 -0.87,3.84 c -0.1,0.59 -0.18,1.15 -0.27,1.67 -0.09,0.52 -0.06,1 -0.08,1.49 a 14.89,14.89 0 0 0 -0.05,2.36 c 0.05,1.29 0.07,2 0.07,2 z m -2.75,0.36 c 0,0 -0.06,-0.75 -0.18,-2.14 a 17.64,17.64 0 0 1 0,-2.59 q 0,-0.76 0,-1.65 c 0.06,-0.58 0.13,-1.2 0.21,-1.85 a 34.8,34.8 0 0 1 0.79,-4.3 c 0.24,-0.76 0.48,-1.56 0.74,-2.38 0.26,-0.82 0.64,-1.63 1,-2.5 a 31.17,31.17 0 0 1 7.13,-10.16 28.49,28.49 0 0 1 29.53,-6 30.69,30.69 0 0 1 14,10.52 33.22,33.22 0 0 1 4.31,7.92 l 0.72,2.14 c 0.24,0.72 0.37,1.5 0.56,2.24 a 37,37 0 0 1 0.72,4.42 35.82,35.82 0 0 1 -0.46,9 32.62,32.62 0 0 1 -2.83,8.4 30.57,30.57 0 0 1 -11.46,12.48 27.46,27.46 0 0 1 -7.52,3.16 27.94,27.94 0 0 1 -3.83,0.73 16.89,16.89 0 0 1 -2,0.14 17.45,17.45 0 0 1 -1.91,0 29.31,29.31 0 0 1 -13.63,-3.73 31.68,31.68 0 0 1 -9.16,-7.79 c -0.53,-0.73 -1.11,-1.39 -1.55,-2.11 l -1.3,-2.08 a 33.24,33.24 0 0 1 -1.82,-3.91 c -0.24,-0.61 -0.46,-1.18 -0.66,-1.73 l -0.45,-1.6 -0.38,-1.39 c -0.09,-0.42 -0.14,-0.78 -0.21,-1.11 -0.23,-1.33 -0.36,-2 -0.36,-2 z"
         class="cls-6" />
      <path
         style="fill:url(#linear-gradient-2)"
         inkscape:connector-curvature="0"
         id="path48"
         d="m 257.1,154.05 c -4.66,-10.26 -16.32,-15 -26.05,-10.59 -9.73,4.41 -13.82,16.32 -9.16,26.58 4.66,10.26 16.32,15 26,10.59 9.68,-4.41 13.87,-16.31 9.21,-26.58 z m -24.37,16.3 c -8.73,2.39 -12.42,-11.15 -3.69,-13.53 8.73,-2.38 12.42,11.18 3.69,13.53 z m 18.18,2.81 c -10.78,3 -15.35,-13.78 -4.56,-16.73 10.79,-2.95 15.35,13.79 4.56,16.73 z"
         class="cls-7" />
      <path
         inkscape:connector-curvature="0"
         id="path50"
         d="m 125.92,197.94 1.47,1.7 c 0,0 23.94,-12.84 28.27,16.26 3.25,21.83 -20.31,22.48 -18.2,22.67 2.11,0.19 -4.76,1.93 -10.68,-1.77 a 22.27,22.27 0 0 1 -10.15,-14.24 22.57,22.57 0 0 1 2.42,-17.13 c 3.34,-5.57 6.87,-7.49 6.87,-7.49 z"
         class="cls-4" />
      <circle
         id="circle52"
         transform="rotate(-9.36,142.07622,221.05409)"
         r="6.9200001"
         cy="221.08"
         cx="142.10001"
         class="cls-4" />
      <path
         inkscape:connector-curvature="0"
         id="path54"
         d="m 135.9,217.93 a 5.95,5.95 0 1 1 -6.63,-5.18 6,6 0 0 1 6.63,5.18 z"
         class="cls-4" />
      <path
         inkscape:connector-curvature="0"
         id="path56"
         d="m 116.85,216.67 c 0,0 0,0.52 0,1.48 0,0.23 0,0.51 0,0.79 0,0.28 0,0.58 0.08,0.9 0.08,0.32 0.06,0.68 0.09,1 0.03,0.32 0.14,0.78 0.22,1.2 a 22.37,22.37 0 0 0 0.7,2.76 l 0.58,1.52 c 0.2,0.53 0.49,1 0.75,1.58 a 20.12,20.12 0 0 0 5.08,6.26 18.9,18.9 0 0 0 8.71,3.88 10.89,10.89 0 0 0 1.28,0.14 11.52,11.52 0 0 0 1.29,0.07 18.33,18.33 0 0 0 2.69,-0.17 17.69,17.69 0 0 0 5.22,-1.48 19.72,19.72 0 0 0 8.46,-7.42 21.6,21.6 0 0 0 2.4,-5.29 23.29,23.29 0 0 0 0.89,-5.76 26.07,26.07 0 0 0 -0.18,-2.94 c -0.07,-0.46 -0.1,-0.93 -0.2,-1.4 l -0.32,-1.41 a 21.14,21.14 0 0 0 -2.2,-5.25 19.59,19.59 0 0 0 -7.83,-7.51 17.09,17.09 0 0 0 -4.89,-1.68 17.86,17.86 0 0 0 -2.49,-0.32 h -0.27 c 0,0 0.13,0 0,0 h -1 c -0.42,0 -0.92,0 -1.28,0.05 a 18.11,18.11 0 0 0 -2.29,0.35 c -0.38,0.09 -0.77,0.16 -1.14,0.26 l -1.09,0.36 a 18.27,18.27 0 0 0 -2.09,0.85 c -0.65,0.33 -1.29,0.69 -1.9,1.06 a 20.68,20.68 0 0 0 -5.59,5.41 c -0.32,0.5 -0.67,0.95 -0.93,1.44 l -0.75,1.4 a 23.46,23.46 0 0 0 -1,2.62 c -0.13,0.41 -0.24,0.79 -0.36,1.16 -0.12,0.37 -0.15,0.72 -0.21,1 a 10.82,10.82 0 0 0 -0.28,1.66 c -0.1,0.91 -0.15,1.4 -0.15,1.4 z m -2,0 c 0,0 0,-0.54 0.1,-1.54 a 12.1,12.1 0 0 1 0.22,-1.83 c 0.06,-0.36 0.13,-0.75 0.19,-1.16 0.06,-0.41 0.22,-0.83 0.34,-1.29 a 26.4,26.4 0 0 1 1,-3 c 0.25,-0.51 0.5,-1 0.77,-1.6 0.27,-0.6 0.62,-1.09 1,-1.66 a 22.08,22.08 0 0 1 6.08,-6.44 20.32,20.32 0 0 1 21.45,-1.15 21.83,21.83 0 0 1 8.8,8.86 23.12,23.12 0 0 1 2.22,6 l 0.29,1.59 c 0.1,0.53 0.12,1.1 0.17,1.64 a 26.16,26.16 0 0 1 0,3.19 25.25,25.25 0 0 1 -1.24,6.28 23,23 0 0 1 -2.86,5.63 21.85,21.85 0 0 1 -9.38,7.64 20,20 0 0 1 -5.63,1.46 20.29,20.29 0 0 1 -2.78,0.12 12.23,12.23 0 0 1 -1.39,-0.11 12,12 0 0 1 -1.36,-0.17 20.87,20.87 0 0 1 -9.23,-4 22.45,22.45 0 0 1 -5.66,-6.45 c -0.31,-0.57 -0.65,-1.09 -0.89,-1.65 l -0.7,-1.6 a 24.22,24.22 0 0 1 -0.88,-2.94 c -0.11,-0.46 -0.2,-0.89 -0.29,-1.29 -0.09,-0.4 -0.11,-0.82 -0.15,-1.18 l -0.13,-1 c 0,-0.3 0,-0.56 0,-0.81 0,-0.95 0,-1.47 0,-1.47 z"
         class="cls-6" />
      <path
         style="fill:url(#linear-gradient-3)"
         inkscape:connector-curvature="0"
         id="path58"
         d="m 149.34,214.46 c -2.24,-7.73 -10,-12.27 -17.29,-10.16 -7.29,2.11 -11.44,10.1 -9.21,17.83 2.23,7.73 10,12.27 17.3,10.15 7.3,-2.12 11.43,-10.09 9.2,-17.82 z m -18.87,9 c -6.41,0.79 -7.63,-9.15 -1.22,-9.93 6.41,-0.78 7.62,9.15 1.22,9.93 z m 12.53,3.85 c -7.92,1 -9.42,-11.3 -1.5,-12.27 7.92,-0.97 9.43,11.3 1.5,12.27 z"
         class="cls-8" />
      <path
         inkscape:connector-curvature="0"
         id="path60"
         d="m 439.84,262.05 v 2.17 c 0,0 25.57,5.69 10.41,29.68 -11.37,18 -29,3.63 -27.57,5.1 1.43,1.47 -4.69,-1.59 -6.69,-8 a 21.52,21.52 0 0 1 1.55,-16.79 21.9,21.9 0 0 1 12.56,-11 c 5.96,-1.98 9.74,-1.16 9.74,-1.16 z"
         class="cls-4" />
      <circle
         id="circle62"
         transform="rotate(-58.6,437.09242,289.14865)"
         r="6.6700001"
         cy="289.14999"
         cx="437.09"
         class="cls-4" />
      <path
         inkscape:connector-curvature="0"
         id="path64"
         d="m 434.55,282.94 a 5.74,5.74 0 1 1 -1.58,-8 5.73,5.73 0 0 1 1.58,8 z"
         class="cls-4" />
      <path
         inkscape:connector-curvature="0"
         id="path66"
         d="m 421.42,270 -0.93,1.06 c -0.15,0.18 -0.34,0.37 -0.51,0.58 -0.17,0.21 -0.32,0.46 -0.51,0.71 l -0.59,0.82 -0.6,1 a 21.69,21.69 0 0 0 -1.22,2.46 c -0.17,0.47 -0.35,1 -0.53,1.47 -0.18,0.47 -0.29,1.06 -0.45,1.62 a 19.44,19.44 0 0 0 -0.23,7.78 18.12,18.12 0 0 0 3.92,8.32 31.09,31.09 0 0 0 1.74,1.77 18.18,18.18 0 0 0 2.07,1.57 16.91,16.91 0 0 0 4.75,2.2 18.92,18.92 0 0 0 10.85,-0.09 20.38,20.38 0 0 0 5.08,-2.35 23,23 0 0 0 4.28,-3.65 26.4,26.4 0 0 0 1.72,-2.26 c 0.24,-0.39 0.51,-0.74 0.73,-1.15 l 0.65,-1.23 a 20.16,20.16 0 0 0 1.71,-5.23 18.74,18.74 0 0 0 -1,-10.4 16.24,16.24 0 0 0 -2.51,-4.32 17.32,17.32 0 0 0 -1.62,-1.8 l -0.1,-0.11 -0.05,-0.05 v 0 0 l -0.24,-0.21 -0.5,-0.41 a 10.42,10.42 0 0 0 -1,-0.78 16.15,16.15 0 0 0 -1.88,-1.18 c -0.34,-0.18 -0.66,-0.37 -1,-0.53 l -1,-0.42 a 17.71,17.71 0 0 0 -2.05,-0.7 c -0.69,-0.16 -1.38,-0.3 -2.06,-0.41 a 19.71,19.71 0 0 0 -7.49,0.42 c -0.54,0.17 -1.09,0.28 -1.58,0.47 l -1.43,0.55 a 21,21 0 0 0 -2.39,1.28 l -1,0.62 -0.82,0.63 a 10.51,10.51 0 0 0 -1.24,1 l -1,0.92 z m -1.42,-1.24 1,-1.06 a 11.9,11.9 0 0 1 1.32,-1.19 l 0.87,-0.73 1.06,-0.73 a 21.64,21.64 0 0 1 2.59,-1.52 c 0.5,-0.22 1,-0.46 1.57,-0.69 0.57,-0.23 1.13,-0.41 1.73,-0.62 a 21.51,21.51 0 0 1 8.5,-0.88 19.61,19.61 0 0 1 16.48,12.66 21.12,21.12 0 0 1 0.85,12 22.54,22.54 0 0 1 -2.18,5.81 l -0.79,1.34 c -0.26,0.45 -0.61,0.87 -0.91,1.3 a 21.7,21.7 0 0 1 -6.83,6.17 22.27,22.27 0 0 1 -5.64,2.31 20.93,20.93 0 0 1 -11.65,-0.32 19.23,19.23 0 0 1 -5,-2.48 20,20 0 0 1 -2.1,-1.66 12.24,12.24 0 0 1 -0.95,-1 c -0.3,-0.33 -0.63,-0.62 -0.89,-1 a 20.3,20.3 0 0 1 -4.21,-8.76 21.76,21.76 0 0 1 -0.08,-8.27 c 0.14,-0.61 0.22,-1.21 0.4,-1.76 0.18,-0.55 0.33,-1.1 0.49,-1.61 a 22.5,22.5 0 0 1 1.21,-2.71 l 0.6,-1.13 0.63,-0.95 0.55,-0.82 c 0.18,-0.24 0.35,-0.43 0.49,-0.61 l 0.89,-1.11 z"
         class="cls-6" />
      <path
         style="fill:url(#linear-gradient-4)"
         inkscape:connector-curvature="0"
         id="path68"
         d="m 446.55,288.87 c 3.23,-7.05 0.44,-15.25 -6.24,-18.31 -6.68,-3.06 -14.71,0.17 -17.94,7.22 -3.23,7.05 -0.44,15.25 6.24,18.31 6.68,3.06 14.71,-0.17 17.94,-7.22 z m -19.45,-5.31 c -5.18,-3.46 0.19,-11.49 5.36,-8 5.17,3.49 -0.19,11.44 -5.36,8 z m 6.73,10.71 c -6.39,-4.28 0.24,-14.19 6.64,-9.91 6.4,4.28 -0.24,14.19 -6.64,9.91 z"
         class="cls-9" />
      <path
         inkscape:connector-curvature="0"
         id="path70"
         d="m 94.82,120 c 1.27,-5.31 21.17,-6.88 33.39,-4 12.22,2.88 21.1,9.58 19.83,14.89 -1.27,5.31 -8.67,-2.84 -20.89,-5.75 -12.22,-2.91 -33.6,0.12 -32.33,-5.14 z"
         class="cls-10" />
      <path
         inkscape:connector-curvature="0"
         id="path72"
         d="m 455.09,204.16 c -0.56,-4.75 7.84,-9.63 18.75,-10.9 10.91,-1.27 30.21,1.12 30.76,5.87 0.55,4.75 -18,0.67 -28.89,2 -10.89,1.33 -20.07,7.77 -20.62,3.03 z"
         class="cls-10" />
      <path
         inkscape:connector-curvature="0"
         id="path74"
         d="m 105.91,179.81 3.88,3 c 0,0 40.51,-38.81 65.21,22.65 18.53,46.1 -28,58.21 -23.67,57.67 4.33,-0.54 -8.4,6.36 -22.22,1 -13.82,-5.36 -22.49,-15.27 -28.07,-26.44 -5.58,-11.17 -8.23,-24.78 -4.66,-38.44 3.57,-13.66 9.53,-19.44 9.53,-19.44 z"
         class="cls-4" />
      <ellipse
         id="ellipse76"
         transform="rotate(-20.55,150.94079,222.93287)"
         ry="15.57"
         rx="14.09"
         cy="222.91"
         cx="150.91"
         class="cls-4" />
      <path
         inkscape:connector-curvature="0"
         id="path78"
         d="m 161.64,208.55 c -8.72,-15.83 -26.63,-22.22 -40,-14.29 -13.37,7.93 -17.17,27.19 -8.45,43 8.72,15.81 26.63,22.22 40,14.28 13.37,-7.94 17.17,-27.17 8.45,-42.99 z"
         class="cls-11" />
      <path
         inkscape:connector-curvature="0"
         id="path80"
         d="m 442.7,239.41 -0.16,4.43 c 0,0 49.9,9.5 18.08,59.59 -23.86,37.58 -57.39,9.77 -54.71,12.65 2.68,2.88 -9.11,-2.86 -12.52,-15.78 -3.41,-12.92 -0.78,-24.44 4.42,-34.34 5.2,-9.9 13.75,-18.93 25.63,-23.42 11.88,-4.49 19.26,-3.13 19.26,-3.13 z"
         class="cls-4" />
      <path
         inkscape:connector-curvature="0"
         id="path82"
         d="m 430.57,282.41 c -3.69,5.51 -10.77,7.24 -15.81,3.87 -5.04,-3.37 -6.15,-10.59 -2.47,-16.1 3.68,-5.51 10.77,-7.24 15.82,-3.87 5.05,3.37 6.15,10.59 2.46,16.1 z"
         class="cls-4" />
      <path
         inkscape:connector-curvature="0"
         id="path84"
         d="m 453.72,296.85 c 6.94,-14.63 2.11,-31.1 -10.79,-36.78 -12.9,-5.68 -29,1.55 -35.93,16.17 -6.93,14.62 -2.1,31.1 10.8,36.79 12.9,5.69 28.98,-1.56 35.92,-16.18 z"
         class="cls-11" />
      <path
         inkscape:connector-curvature="0"
         id="path86"
         d="m 392.15,208.33 c -3.09,10.95 -13.55,17.59 -23.37,14.83 -9.82,-2.76 -15.28,-13.89 -12.2,-24.85"
         class="cls-4" />
      <path
         inkscape:connector-curvature="0"
         id="path88"
         d="m 378,194.45 c -2.66,9.44 -11.67,15.16 -20.12,12.77 -8.45,-2.39 -13.16,-11.95 -10.5,-21.39 2.66,-9.44 11.66,-15.15 20.12,-12.77 8.46,2.38 13.19,11.94 10.5,21.39 z"
         class="cls-4" />
      <path
         inkscape:connector-curvature="0"
         id="path90"
         d="m 399.51,196.12 c 3.12,-23.71 -10.81,-44.52 -31.13,-46.48 -20.32,-1.96 -39.32,15.65 -42.44,39.36 -3.12,23.71 10.82,44.52 31.13,46.48 20.31,1.96 39.32,-15.65 42.44,-39.36 z"
         class="cls-11" />
      <path
         inkscape:connector-curvature="0"
         id="path92"
         d="m 216,98.45 3.57,5.44 c 0,0 66.3,-32 71.74,55.68 4.08,65.75 -58.68,61.57 -53.1,62.69 5.58,1.12 -13.06,4.49 -28,-8 -14.94,-12.49 -21.68,-28.6 -24,-45 -2.32,-16.4 0,-34.63 10,-50.32 10,-15.69 19.79,-20.49 19.79,-20.49 z"
         class="cls-4" />
      <path
         inkscape:connector-curvature="0"
         id="path94"
         d="m 274.79,157 c -4.33,-23.55 -24,-39.08 -43.86,-34.69 -19.86,4.39 -32.5,27.05 -28.17,50.6 4.33,23.55 24,39.08 43.85,34.69 19.85,-4.39 32.51,-27.04 28.18,-50.6 z"
         class="cls-11" />
      <path
         inkscape:connector-curvature="0"
         id="path96"
         d="m 223.48,21.07 c 6.27,-8.09 39,2.07 57.66,16.51 18.66,14.44 28.64,32.69 22.37,40.78 -6.27,8.09 -12.63,-11.57 -31.26,-26 C 253.62,37.93 217.21,29.17 223.48,21.07 Z"
         class="cls-10" />
      <path
         inkscape:connector-curvature="0"
         id="path98"
         d="m 333.1,87.26 c -3.82,-9.5 10.81,-24.33 32.67,-33.12 21.86,-8.79 53.8,-12.9 59.06,-3.8 a 3,3 0 0 1 0.5,1.91 c -0.59,4.37 -13.75,4.38 -31.23,9.94 -5,1.59 -8.54,3 -11.91,4.45 C 354.8,78 336.64,96.06 333.1,87.26 Z"
         class="cls-10" />
      <ellipse
         id="ellipse100"
         transform="rotate(-3.51,239.12625,165.27469)"
         ry="20.24"
         rx="18.040001"
         cy="165.42"
         cx="239.23"
         class="cls-1" />
      <ellipse
         id="ellipse102"
         transform="rotate(-71.99,362.79527,192.91761)"
         ry="18.040001"
         rx="20.24"
         cy="192.92"
         cx="362.79001"
         class="cls-1" />
      <ellipse
         id="ellipse104"
         transform="rotate(-58.63,430.93247,287.04425)"
         ry="12.38"
         rx="14.08"
         cy="287.04999"
         cx="430.97"
         class="cls-1" />
      <ellipse
         id="ellipse106"
         transform="rotate(-22.09,137.55918,223.81285)"
         ry="14.08"
         rx="12.38"
         cy="223.78999"
         cx="137.53999"
         class="cls-1" />
      <circle
         id="circle108"
         r="2.8299999"
         cy="228.96001"
         cx="134.84"
         class="cls-3" />
      <circle
         id="circle110"
         r="2.8299999"
         cy="291.06"
         cx="425.92001"
         class="cls-3" />
      <circle
         id="circle112"
         r="4.5500002"
         cy="174.16"
         cx="234.44"
         class="cls-3" />
      <circle
         id="circle114"
         r="4.5500002"
         cy="200.45"
         cx="356.20001"
         class="cls-3" />
      <rect
         id="rect116"
         transform="rotate(15.72,557.90827,334.40564)"
         height="228.36"
         width="11.98"
         y="220.25999"
         x="551.96997"
         class="cls-1" />
      <path
         inkscape:connector-curvature="0"
         id="path118"
         d="M 730.72,147.41 A 115.64,115.64 0 1 1 651.28,4.48 115.63,115.63 0 0 1 730.72,147.41 Z"
         class="cls-12" />
      <path
         inkscape:connector-curvature="0"
         id="path120"
         d="m 591.56,213.6 a 101.85,101.85 0 1 1 125.9,-70 102,102 0 0 1 -125.9,70 z"
         class="cls-13" />
      <path
         inkscape:connector-curvature="0"
         id="path122"
         d="m 549.31,121.49 a 27.13,27.13 0 0 1 -8.55,-4.24 24.5,24.5 0 0 1 -6.6,-7.29 l 8,-5.45 a 23.44,23.44 0 0 0 4.5,5 15,15 0 0 0 5.52,3 8.32,8.32 0 0 0 5.19,0.18 4,4 0 0 0 2.53,-2.8 3.69,3.69 0 0 0 0.06,-2 4.52,4.52 0 0 0 -1,-1.77 12.55,12.55 0 0 0 -1.8,-1.74 l -2.39,-1.94 -5.29,-4.27 a 19.31,19.31 0 0 1 -2.91,-2.82 15.78,15.78 0 0 1 -2.21,-3.5 12.63,12.63 0 0 1 -1.08,-4.14 13.06,13.06 0 0 1 0.53,-4.78 12.67,12.67 0 0 1 2.73,-5 13.71,13.71 0 0 1 4.65,-3.42 16.8,16.8 0 0 1 6,-1.45 20.6,20.6 0 0 1 6.92,0.82 22.36,22.36 0 0 1 7.52,3.84 20.81,20.81 0 0 1 5.6,6.5 l -7.18,5.06 a 21.17,21.17 0 0 0 -3.76,-4 13.45,13.45 0 0 0 -4.68,-2.28 7.7,7.7 0 0 0 -4.59,-0.12 3.65,3.65 0 0 0 -2.47,2.62 3.12,3.12 0 0 0 0,2 5.42,5.42 0 0 0 1.1,1.77 16.74,16.74 0 0 0 1.92,1.73 q 1.13,0.89 2.43,2 l 5.25,4 a 16.84,16.84 0 0 1 5.36,6.58 12.46,12.46 0 0 1 0.2,8.55 13.77,13.77 0 0 1 -2.74,5.15 13.62,13.62 0 0 1 -4.69,3.56 17.5,17.5 0 0 1 -6.37,1.55 22.59,22.59 0 0 1 -7.7,-0.9 z"
         class="cls-3" />
      <path
         inkscape:connector-curvature="0"
         id="path124"
         d="M 582.4,130 593.07,92.63 580.4,89 l 2.51,-8.78 35.81,10.23 -2.51,8.78 -12.67,-3.62 -10.67,37.39 z"
         class="cls-3" />
      <path
         inkscape:connector-curvature="0"
         id="path126"
         d="m 629.29,144.33 a 22.21,22.21 0 0 1 -8,-4.1 19.27,19.27 0 0 1 -5.26,-6.67 22.82,22.82 0 0 1 -2.11,-8.79 32.59,32.59 0 0 1 1.36,-10.56 32.08,32.08 0 0 1 4.41,-9.65 21.64,21.64 0 0 1 6.4,-6.21 19.16,19.16 0 0 1 7.91,-2.71 24.53,24.53 0 0 1 17,4.87 18.87,18.87 0 0 1 5.29,6.53 22,22 0 0 1 2.15,8.69 35.43,35.43 0 0 1 -5.75,20.13 22.7,22.7 0 0 1 -6.44,6.35 19.3,19.3 0 0 1 -8,2.89 22.27,22.27 0 0 1 -8.96,-0.77 z m 2.57,-9 a 9,9 0 0 0 8.66,-1.93 q 3.93,-3.27 5.93,-10.29 2,-7.02 0.33,-11.61 a 9.54,9.54 0 0 0 -15,-4.29 q -3.87,3.11 -5.85,10 -1.98,6.89 -0.4,11.87 a 9,9 0 0 0 6.33,6.26 z"
         class="cls-3" />
      <path
         inkscape:connector-curvature="0"
         id="path128"
         d="m 659.19,152 13.18,-46.15 15.85,4.53 a 34.19,34.19 0 0 1 6.94,2.78 16.81,16.81 0 0 1 5.09,4.14 12.64,12.64 0 0 1 2.62,5.72 16.2,16.2 0 0 1 -0.56,7.46 16.52,16.52 0 0 1 -3.45,6.59 14.09,14.09 0 0 1 -5.33,3.76 17.53,17.53 0 0 1 -6.53,1.17 26.29,26.29 0 0 1 -7.2,-1.07 l -5.73,-1.63 -4.47,15.64 z m 17.24,-21 5.09,1.45 q 8.49,2.43 10.6,-4.93 c 0.68,-2.41 0.41,-4.32 -0.81,-5.75 a 12.4,12.4 0 0 0 -6.09,-3.34 l -4.81,-1.38 z"
         class="cls-3" />
      <path
         inkscape:connector-curvature="0"
         id="path130"
         d="m 295.15,175.72 c -1,-5.69 -6.59,-33.33 -32.82,-52.23 -27.49,-19.79 -57,-15.13 -62.31,-14.21 l 29,-41.49 95.13,66.43 z"
         class="cls-10" />
      <path
         inkscape:connector-curvature="0"
         id="path132"
         d="m 180.14,209.29 c -2,-3.19 -12,-18.66 -33.77,-26.68 -22.79,-8.4 -41.36,-2.34 -44.66,-1.2 l 9.76,-27.41 75.6,31.41 z"
         class="cls-10" />
      <path
         inkscape:connector-curvature="0"
         id="path134"
         d="m 474.37,266 c -2.73,-2.91 -16.31,-16.8 -37.14,-16.5 -21.83,0.31 -44.75,21.21 -47.11,24.07 -0.39,-12.38 9.76,-29.24 16.68,-37.45 l 65.37,-3.38 z"
         class="cls-10" />
      <path
         inkscape:connector-curvature="0"
         id="path136"
         d="m 420.78,151.77 c -7.66,-3.66 -31.36,-13.77 -60.95,-7.18 -30.05,6.7 -47.33,26.45 -52.61,33 L 297.15,133.32 410.71,107.5 Z"
         class="cls-10" />
      <path
         inkscape:connector-curvature="0"
         id="path138"
         d="m 58.55,548.52 c 0.47,-7.55 9.19,-12.83 14.16,-14.75 5.35,-2.07 10.07,-1.67 16.78,-1 9.46,0.92 15.5,3.15 19,4.07 7.72,2 19.71,2.15 37.79,-7.53 v 38.49 c -19.25,-5.26 -33.69,-4.25 -43.46,-2.26 -8.64,1.75 -14.31,4.41 -22.95,2.38 C 70.25,565.65 58,557.83 58.55,548.52 Z"
         class="cls-1" />
      <path
         inkscape:connector-curvature="0"
         id="path140"
         d="m 441,546.26 c -0.46,-7.55 -8.86,-12.84 -13.65,-14.76 -5.16,-2.07 -9.71,-1.66 -16.18,-1 -9.12,0.92 -14.94,3.14 -18.31,4.07 -7.44,2 -19,2.15 -36.42,-7.53 v 38.48 a 98.07,98.07 0 0 1 23.33,-3.81 76.35,76.35 0 0 1 18.55,1.55 c 8.33,1.76 13.8,4.41 22.13,2.39 9.24,-2.27 21.07,-10.08 20.55,-19.39 z"
         class="cls-1" />
    </g>
  </g>
</svg>
